%
M48
M72
T01C0.0130
T02C0.0320
T03C0.0400
T04C0.0433
%
T01
X10180Y1667
X16930Y4167
X17430Y4417
X17930Y4667
X24430Y4167
X24930Y4417
X24930Y3917
X25430Y3917
X25930Y3667
X26430Y3667
X26930Y3417
X27430Y4417
T02
X32680Y3917
X33680Y3917
X38680Y3917
X39680Y3917
X41330Y7667
X42330Y7667
X36430Y7667
X35430Y7667
X30430Y7667
X29430Y7667
X24430Y7667
X23430Y7667
X18430Y7667
X17430Y7667
X12430Y7667
X11430Y7667
X6430Y7667
X5430Y7667
X8680Y3917
X9680Y3917
X15180Y3917
X16180Y3917
T03
X16430Y2417
X17430Y2417
X18430Y2417
X19430Y2417
X20430Y2417
X21430Y2417
X22430Y2417
X23430Y2417
X23430Y1417
X22430Y1417
X21430Y1417
X20430Y1417
X19430Y1417
X18430Y1417
X17430Y1417
X16430Y1417
T04
X15239Y2917
X14058Y2917
X10711Y2917
X8989Y2917
X7808Y2917
X4461Y2917
X4558Y6667
X5739Y6667
X7211Y6667
X10558Y6667
X11739Y6667
X13211Y6667
X16558Y6667
X17739Y6667
X19211Y6667
X22558Y6667
X23739Y6667
X25211Y6667
X28558Y6667
X29739Y6667
X31211Y6667
X34558Y6667
X35739Y6667
X37211Y6667
X40558Y6667
X41739Y6667
X38989Y2917
X37808Y2917
X34461Y2917
X32989Y2917
X31808Y2917
X28461Y2917
X1211Y6667
M30
