G75*
%MOIN*%
%OFA0B0*%
%FSLAX25Y25*%
%IPPOS*%
%LPD*%
%AMOC8*
5,1,8,0,0,1.08239X$1,22.5*
%
%ADD10C,0.00500*%
%ADD11C,0.00300*%
%ADD12C,0.01000*%
D10*
X0040678Y0011450D02*
X0082017Y0011450D01*
X0082017Y0029954D01*
X0090678Y0029954D01*
X0090678Y0028379D01*
X0082410Y0028379D01*
X0082017Y0029954D02*
X0082017Y0046883D01*
X0040678Y0046883D01*
X0040678Y0035072D01*
X0048552Y0035072D01*
X0048552Y0023261D01*
X0040678Y0023261D01*
X0040678Y0035072D01*
X0053707Y0029167D02*
X0053710Y0029427D01*
X0053720Y0029687D01*
X0053736Y0029946D01*
X0053758Y0030205D01*
X0053787Y0030464D01*
X0053822Y0030721D01*
X0053863Y0030978D01*
X0053911Y0031234D01*
X0053964Y0031488D01*
X0054024Y0031741D01*
X0054091Y0031992D01*
X0054163Y0032242D01*
X0054242Y0032490D01*
X0054326Y0032736D01*
X0054417Y0032979D01*
X0054513Y0033221D01*
X0054616Y0033460D01*
X0054724Y0033696D01*
X0054838Y0033930D01*
X0054958Y0034161D01*
X0055083Y0034388D01*
X0055214Y0034613D01*
X0055350Y0034834D01*
X0055492Y0035052D01*
X0055639Y0035267D01*
X0055792Y0035477D01*
X0055949Y0035684D01*
X0056112Y0035887D01*
X0056279Y0036086D01*
X0056451Y0036281D01*
X0056628Y0036471D01*
X0056810Y0036657D01*
X0056996Y0036839D01*
X0057186Y0037016D01*
X0057381Y0037188D01*
X0057580Y0037355D01*
X0057783Y0037518D01*
X0057990Y0037675D01*
X0058200Y0037828D01*
X0058415Y0037975D01*
X0058633Y0038117D01*
X0058854Y0038253D01*
X0059079Y0038384D01*
X0059306Y0038509D01*
X0059537Y0038629D01*
X0059771Y0038743D01*
X0060007Y0038851D01*
X0060246Y0038954D01*
X0060488Y0039050D01*
X0060731Y0039141D01*
X0060977Y0039225D01*
X0061225Y0039304D01*
X0061475Y0039376D01*
X0061726Y0039443D01*
X0061979Y0039503D01*
X0062233Y0039556D01*
X0062489Y0039604D01*
X0062746Y0039645D01*
X0063003Y0039680D01*
X0063262Y0039709D01*
X0063521Y0039731D01*
X0063780Y0039747D01*
X0064040Y0039757D01*
X0064300Y0039760D01*
X0064560Y0039757D01*
X0064820Y0039747D01*
X0065079Y0039731D01*
X0065338Y0039709D01*
X0065597Y0039680D01*
X0065854Y0039645D01*
X0066111Y0039604D01*
X0066367Y0039556D01*
X0066621Y0039503D01*
X0066874Y0039443D01*
X0067125Y0039376D01*
X0067375Y0039304D01*
X0067623Y0039225D01*
X0067869Y0039141D01*
X0068112Y0039050D01*
X0068354Y0038954D01*
X0068593Y0038851D01*
X0068829Y0038743D01*
X0069063Y0038629D01*
X0069294Y0038509D01*
X0069521Y0038384D01*
X0069746Y0038253D01*
X0069967Y0038117D01*
X0070185Y0037975D01*
X0070400Y0037828D01*
X0070610Y0037675D01*
X0070817Y0037518D01*
X0071020Y0037355D01*
X0071219Y0037188D01*
X0071414Y0037016D01*
X0071604Y0036839D01*
X0071790Y0036657D01*
X0071972Y0036471D01*
X0072149Y0036281D01*
X0072321Y0036086D01*
X0072488Y0035887D01*
X0072651Y0035684D01*
X0072808Y0035477D01*
X0072961Y0035267D01*
X0073108Y0035052D01*
X0073250Y0034834D01*
X0073386Y0034613D01*
X0073517Y0034388D01*
X0073642Y0034161D01*
X0073762Y0033930D01*
X0073876Y0033696D01*
X0073984Y0033460D01*
X0074087Y0033221D01*
X0074183Y0032979D01*
X0074274Y0032736D01*
X0074358Y0032490D01*
X0074437Y0032242D01*
X0074509Y0031992D01*
X0074576Y0031741D01*
X0074636Y0031488D01*
X0074689Y0031234D01*
X0074737Y0030978D01*
X0074778Y0030721D01*
X0074813Y0030464D01*
X0074842Y0030205D01*
X0074864Y0029946D01*
X0074880Y0029687D01*
X0074890Y0029427D01*
X0074893Y0029167D01*
X0074890Y0028907D01*
X0074880Y0028647D01*
X0074864Y0028388D01*
X0074842Y0028129D01*
X0074813Y0027870D01*
X0074778Y0027613D01*
X0074737Y0027356D01*
X0074689Y0027100D01*
X0074636Y0026846D01*
X0074576Y0026593D01*
X0074509Y0026342D01*
X0074437Y0026092D01*
X0074358Y0025844D01*
X0074274Y0025598D01*
X0074183Y0025355D01*
X0074087Y0025113D01*
X0073984Y0024874D01*
X0073876Y0024638D01*
X0073762Y0024404D01*
X0073642Y0024173D01*
X0073517Y0023946D01*
X0073386Y0023721D01*
X0073250Y0023500D01*
X0073108Y0023282D01*
X0072961Y0023067D01*
X0072808Y0022857D01*
X0072651Y0022650D01*
X0072488Y0022447D01*
X0072321Y0022248D01*
X0072149Y0022053D01*
X0071972Y0021863D01*
X0071790Y0021677D01*
X0071604Y0021495D01*
X0071414Y0021318D01*
X0071219Y0021146D01*
X0071020Y0020979D01*
X0070817Y0020816D01*
X0070610Y0020659D01*
X0070400Y0020506D01*
X0070185Y0020359D01*
X0069967Y0020217D01*
X0069746Y0020081D01*
X0069521Y0019950D01*
X0069294Y0019825D01*
X0069063Y0019705D01*
X0068829Y0019591D01*
X0068593Y0019483D01*
X0068354Y0019380D01*
X0068112Y0019284D01*
X0067869Y0019193D01*
X0067623Y0019109D01*
X0067375Y0019030D01*
X0067125Y0018958D01*
X0066874Y0018891D01*
X0066621Y0018831D01*
X0066367Y0018778D01*
X0066111Y0018730D01*
X0065854Y0018689D01*
X0065597Y0018654D01*
X0065338Y0018625D01*
X0065079Y0018603D01*
X0064820Y0018587D01*
X0064560Y0018577D01*
X0064300Y0018574D01*
X0064040Y0018577D01*
X0063780Y0018587D01*
X0063521Y0018603D01*
X0063262Y0018625D01*
X0063003Y0018654D01*
X0062746Y0018689D01*
X0062489Y0018730D01*
X0062233Y0018778D01*
X0061979Y0018831D01*
X0061726Y0018891D01*
X0061475Y0018958D01*
X0061225Y0019030D01*
X0060977Y0019109D01*
X0060731Y0019193D01*
X0060488Y0019284D01*
X0060246Y0019380D01*
X0060007Y0019483D01*
X0059771Y0019591D01*
X0059537Y0019705D01*
X0059306Y0019825D01*
X0059079Y0019950D01*
X0058854Y0020081D01*
X0058633Y0020217D01*
X0058415Y0020359D01*
X0058200Y0020506D01*
X0057990Y0020659D01*
X0057783Y0020816D01*
X0057580Y0020979D01*
X0057381Y0021146D01*
X0057186Y0021318D01*
X0056996Y0021495D01*
X0056810Y0021677D01*
X0056628Y0021863D01*
X0056451Y0022053D01*
X0056279Y0022248D01*
X0056112Y0022447D01*
X0055949Y0022650D01*
X0055792Y0022857D01*
X0055639Y0023067D01*
X0055492Y0023282D01*
X0055350Y0023500D01*
X0055214Y0023721D01*
X0055083Y0023946D01*
X0054958Y0024173D01*
X0054838Y0024404D01*
X0054724Y0024638D01*
X0054616Y0024874D01*
X0054513Y0025113D01*
X0054417Y0025355D01*
X0054326Y0025598D01*
X0054242Y0025844D01*
X0054163Y0026092D01*
X0054091Y0026342D01*
X0054024Y0026593D01*
X0053964Y0026846D01*
X0053911Y0027100D01*
X0053863Y0027356D01*
X0053822Y0027613D01*
X0053787Y0027870D01*
X0053758Y0028129D01*
X0053736Y0028388D01*
X0053720Y0028647D01*
X0053710Y0028907D01*
X0053707Y0029167D01*
X0051850Y0029167D02*
X0051854Y0029473D01*
X0051865Y0029778D01*
X0051884Y0030083D01*
X0051910Y0030387D01*
X0051944Y0030691D01*
X0051985Y0030994D01*
X0052033Y0031295D01*
X0052089Y0031596D01*
X0052153Y0031895D01*
X0052223Y0032192D01*
X0052301Y0032488D01*
X0052386Y0032781D01*
X0052478Y0033072D01*
X0052578Y0033361D01*
X0052684Y0033648D01*
X0052798Y0033931D01*
X0052918Y0034212D01*
X0053045Y0034490D01*
X0053179Y0034765D01*
X0053320Y0035036D01*
X0053467Y0035304D01*
X0053621Y0035568D01*
X0053782Y0035828D01*
X0053948Y0036084D01*
X0054121Y0036336D01*
X0054300Y0036583D01*
X0054485Y0036827D01*
X0054676Y0037065D01*
X0054873Y0037299D01*
X0055075Y0037528D01*
X0055283Y0037752D01*
X0055497Y0037970D01*
X0055715Y0038184D01*
X0055939Y0038392D01*
X0056168Y0038594D01*
X0056402Y0038791D01*
X0056640Y0038982D01*
X0056884Y0039167D01*
X0057131Y0039346D01*
X0057383Y0039519D01*
X0057639Y0039685D01*
X0057899Y0039846D01*
X0058163Y0040000D01*
X0058431Y0040147D01*
X0058702Y0040288D01*
X0058977Y0040422D01*
X0059255Y0040549D01*
X0059536Y0040669D01*
X0059819Y0040783D01*
X0060106Y0040889D01*
X0060395Y0040989D01*
X0060686Y0041081D01*
X0060979Y0041166D01*
X0061275Y0041244D01*
X0061572Y0041314D01*
X0061871Y0041378D01*
X0062172Y0041434D01*
X0062473Y0041482D01*
X0062776Y0041523D01*
X0063080Y0041557D01*
X0063384Y0041583D01*
X0063689Y0041602D01*
X0063994Y0041613D01*
X0064300Y0041617D01*
X0064606Y0041613D01*
X0064911Y0041602D01*
X0065216Y0041583D01*
X0065520Y0041557D01*
X0065824Y0041523D01*
X0066127Y0041482D01*
X0066428Y0041434D01*
X0066729Y0041378D01*
X0067028Y0041314D01*
X0067325Y0041244D01*
X0067621Y0041166D01*
X0067914Y0041081D01*
X0068205Y0040989D01*
X0068494Y0040889D01*
X0068781Y0040783D01*
X0069064Y0040669D01*
X0069345Y0040549D01*
X0069623Y0040422D01*
X0069898Y0040288D01*
X0070169Y0040147D01*
X0070437Y0040000D01*
X0070701Y0039846D01*
X0070961Y0039685D01*
X0071217Y0039519D01*
X0071469Y0039346D01*
X0071716Y0039167D01*
X0071960Y0038982D01*
X0072198Y0038791D01*
X0072432Y0038594D01*
X0072661Y0038392D01*
X0072885Y0038184D01*
X0073103Y0037970D01*
X0073317Y0037752D01*
X0073525Y0037528D01*
X0073727Y0037299D01*
X0073924Y0037065D01*
X0074115Y0036827D01*
X0074300Y0036583D01*
X0074479Y0036336D01*
X0074652Y0036084D01*
X0074818Y0035828D01*
X0074979Y0035568D01*
X0075133Y0035304D01*
X0075280Y0035036D01*
X0075421Y0034765D01*
X0075555Y0034490D01*
X0075682Y0034212D01*
X0075802Y0033931D01*
X0075916Y0033648D01*
X0076022Y0033361D01*
X0076122Y0033072D01*
X0076214Y0032781D01*
X0076299Y0032488D01*
X0076377Y0032192D01*
X0076447Y0031895D01*
X0076511Y0031596D01*
X0076567Y0031295D01*
X0076615Y0030994D01*
X0076656Y0030691D01*
X0076690Y0030387D01*
X0076716Y0030083D01*
X0076735Y0029778D01*
X0076746Y0029473D01*
X0076750Y0029167D01*
X0076746Y0028861D01*
X0076735Y0028556D01*
X0076716Y0028251D01*
X0076690Y0027947D01*
X0076656Y0027643D01*
X0076615Y0027340D01*
X0076567Y0027039D01*
X0076511Y0026738D01*
X0076447Y0026439D01*
X0076377Y0026142D01*
X0076299Y0025846D01*
X0076214Y0025553D01*
X0076122Y0025262D01*
X0076022Y0024973D01*
X0075916Y0024686D01*
X0075802Y0024403D01*
X0075682Y0024122D01*
X0075555Y0023844D01*
X0075421Y0023569D01*
X0075280Y0023298D01*
X0075133Y0023030D01*
X0074979Y0022766D01*
X0074818Y0022506D01*
X0074652Y0022250D01*
X0074479Y0021998D01*
X0074300Y0021751D01*
X0074115Y0021507D01*
X0073924Y0021269D01*
X0073727Y0021035D01*
X0073525Y0020806D01*
X0073317Y0020582D01*
X0073103Y0020364D01*
X0072885Y0020150D01*
X0072661Y0019942D01*
X0072432Y0019740D01*
X0072198Y0019543D01*
X0071960Y0019352D01*
X0071716Y0019167D01*
X0071469Y0018988D01*
X0071217Y0018815D01*
X0070961Y0018649D01*
X0070701Y0018488D01*
X0070437Y0018334D01*
X0070169Y0018187D01*
X0069898Y0018046D01*
X0069623Y0017912D01*
X0069345Y0017785D01*
X0069064Y0017665D01*
X0068781Y0017551D01*
X0068494Y0017445D01*
X0068205Y0017345D01*
X0067914Y0017253D01*
X0067621Y0017168D01*
X0067325Y0017090D01*
X0067028Y0017020D01*
X0066729Y0016956D01*
X0066428Y0016900D01*
X0066127Y0016852D01*
X0065824Y0016811D01*
X0065520Y0016777D01*
X0065216Y0016751D01*
X0064911Y0016732D01*
X0064606Y0016721D01*
X0064300Y0016717D01*
X0063994Y0016721D01*
X0063689Y0016732D01*
X0063384Y0016751D01*
X0063080Y0016777D01*
X0062776Y0016811D01*
X0062473Y0016852D01*
X0062172Y0016900D01*
X0061871Y0016956D01*
X0061572Y0017020D01*
X0061275Y0017090D01*
X0060979Y0017168D01*
X0060686Y0017253D01*
X0060395Y0017345D01*
X0060106Y0017445D01*
X0059819Y0017551D01*
X0059536Y0017665D01*
X0059255Y0017785D01*
X0058977Y0017912D01*
X0058702Y0018046D01*
X0058431Y0018187D01*
X0058163Y0018334D01*
X0057899Y0018488D01*
X0057639Y0018649D01*
X0057383Y0018815D01*
X0057131Y0018988D01*
X0056884Y0019167D01*
X0056640Y0019352D01*
X0056402Y0019543D01*
X0056168Y0019740D01*
X0055939Y0019942D01*
X0055715Y0020150D01*
X0055497Y0020364D01*
X0055283Y0020582D01*
X0055075Y0020806D01*
X0054873Y0021035D01*
X0054676Y0021269D01*
X0054485Y0021507D01*
X0054300Y0021751D01*
X0054121Y0021998D01*
X0053948Y0022250D01*
X0053782Y0022506D01*
X0053621Y0022766D01*
X0053467Y0023030D01*
X0053320Y0023298D01*
X0053179Y0023569D01*
X0053045Y0023844D01*
X0052918Y0024122D01*
X0052798Y0024403D01*
X0052684Y0024686D01*
X0052578Y0024973D01*
X0052478Y0025262D01*
X0052386Y0025553D01*
X0052301Y0025846D01*
X0052223Y0026142D01*
X0052153Y0026439D01*
X0052089Y0026738D01*
X0052033Y0027039D01*
X0051985Y0027340D01*
X0051944Y0027643D01*
X0051910Y0027947D01*
X0051884Y0028251D01*
X0051865Y0028556D01*
X0051854Y0028861D01*
X0051850Y0029167D01*
X0040678Y0023261D02*
X0040678Y0011450D01*
X0103178Y0011450D02*
X0144517Y0011450D01*
X0144517Y0029954D01*
X0153178Y0029954D01*
X0153178Y0028379D01*
X0144910Y0028379D01*
X0144517Y0029954D02*
X0144517Y0046883D01*
X0103178Y0046883D01*
X0103178Y0035072D01*
X0111052Y0035072D01*
X0111052Y0023261D01*
X0103178Y0023261D01*
X0103178Y0035072D01*
X0116207Y0029167D02*
X0116210Y0029427D01*
X0116220Y0029687D01*
X0116236Y0029946D01*
X0116258Y0030205D01*
X0116287Y0030464D01*
X0116322Y0030721D01*
X0116363Y0030978D01*
X0116411Y0031234D01*
X0116464Y0031488D01*
X0116524Y0031741D01*
X0116591Y0031992D01*
X0116663Y0032242D01*
X0116742Y0032490D01*
X0116826Y0032736D01*
X0116917Y0032979D01*
X0117013Y0033221D01*
X0117116Y0033460D01*
X0117224Y0033696D01*
X0117338Y0033930D01*
X0117458Y0034161D01*
X0117583Y0034388D01*
X0117714Y0034613D01*
X0117850Y0034834D01*
X0117992Y0035052D01*
X0118139Y0035267D01*
X0118292Y0035477D01*
X0118449Y0035684D01*
X0118612Y0035887D01*
X0118779Y0036086D01*
X0118951Y0036281D01*
X0119128Y0036471D01*
X0119310Y0036657D01*
X0119496Y0036839D01*
X0119686Y0037016D01*
X0119881Y0037188D01*
X0120080Y0037355D01*
X0120283Y0037518D01*
X0120490Y0037675D01*
X0120700Y0037828D01*
X0120915Y0037975D01*
X0121133Y0038117D01*
X0121354Y0038253D01*
X0121579Y0038384D01*
X0121806Y0038509D01*
X0122037Y0038629D01*
X0122271Y0038743D01*
X0122507Y0038851D01*
X0122746Y0038954D01*
X0122988Y0039050D01*
X0123231Y0039141D01*
X0123477Y0039225D01*
X0123725Y0039304D01*
X0123975Y0039376D01*
X0124226Y0039443D01*
X0124479Y0039503D01*
X0124733Y0039556D01*
X0124989Y0039604D01*
X0125246Y0039645D01*
X0125503Y0039680D01*
X0125762Y0039709D01*
X0126021Y0039731D01*
X0126280Y0039747D01*
X0126540Y0039757D01*
X0126800Y0039760D01*
X0127060Y0039757D01*
X0127320Y0039747D01*
X0127579Y0039731D01*
X0127838Y0039709D01*
X0128097Y0039680D01*
X0128354Y0039645D01*
X0128611Y0039604D01*
X0128867Y0039556D01*
X0129121Y0039503D01*
X0129374Y0039443D01*
X0129625Y0039376D01*
X0129875Y0039304D01*
X0130123Y0039225D01*
X0130369Y0039141D01*
X0130612Y0039050D01*
X0130854Y0038954D01*
X0131093Y0038851D01*
X0131329Y0038743D01*
X0131563Y0038629D01*
X0131794Y0038509D01*
X0132021Y0038384D01*
X0132246Y0038253D01*
X0132467Y0038117D01*
X0132685Y0037975D01*
X0132900Y0037828D01*
X0133110Y0037675D01*
X0133317Y0037518D01*
X0133520Y0037355D01*
X0133719Y0037188D01*
X0133914Y0037016D01*
X0134104Y0036839D01*
X0134290Y0036657D01*
X0134472Y0036471D01*
X0134649Y0036281D01*
X0134821Y0036086D01*
X0134988Y0035887D01*
X0135151Y0035684D01*
X0135308Y0035477D01*
X0135461Y0035267D01*
X0135608Y0035052D01*
X0135750Y0034834D01*
X0135886Y0034613D01*
X0136017Y0034388D01*
X0136142Y0034161D01*
X0136262Y0033930D01*
X0136376Y0033696D01*
X0136484Y0033460D01*
X0136587Y0033221D01*
X0136683Y0032979D01*
X0136774Y0032736D01*
X0136858Y0032490D01*
X0136937Y0032242D01*
X0137009Y0031992D01*
X0137076Y0031741D01*
X0137136Y0031488D01*
X0137189Y0031234D01*
X0137237Y0030978D01*
X0137278Y0030721D01*
X0137313Y0030464D01*
X0137342Y0030205D01*
X0137364Y0029946D01*
X0137380Y0029687D01*
X0137390Y0029427D01*
X0137393Y0029167D01*
X0137390Y0028907D01*
X0137380Y0028647D01*
X0137364Y0028388D01*
X0137342Y0028129D01*
X0137313Y0027870D01*
X0137278Y0027613D01*
X0137237Y0027356D01*
X0137189Y0027100D01*
X0137136Y0026846D01*
X0137076Y0026593D01*
X0137009Y0026342D01*
X0136937Y0026092D01*
X0136858Y0025844D01*
X0136774Y0025598D01*
X0136683Y0025355D01*
X0136587Y0025113D01*
X0136484Y0024874D01*
X0136376Y0024638D01*
X0136262Y0024404D01*
X0136142Y0024173D01*
X0136017Y0023946D01*
X0135886Y0023721D01*
X0135750Y0023500D01*
X0135608Y0023282D01*
X0135461Y0023067D01*
X0135308Y0022857D01*
X0135151Y0022650D01*
X0134988Y0022447D01*
X0134821Y0022248D01*
X0134649Y0022053D01*
X0134472Y0021863D01*
X0134290Y0021677D01*
X0134104Y0021495D01*
X0133914Y0021318D01*
X0133719Y0021146D01*
X0133520Y0020979D01*
X0133317Y0020816D01*
X0133110Y0020659D01*
X0132900Y0020506D01*
X0132685Y0020359D01*
X0132467Y0020217D01*
X0132246Y0020081D01*
X0132021Y0019950D01*
X0131794Y0019825D01*
X0131563Y0019705D01*
X0131329Y0019591D01*
X0131093Y0019483D01*
X0130854Y0019380D01*
X0130612Y0019284D01*
X0130369Y0019193D01*
X0130123Y0019109D01*
X0129875Y0019030D01*
X0129625Y0018958D01*
X0129374Y0018891D01*
X0129121Y0018831D01*
X0128867Y0018778D01*
X0128611Y0018730D01*
X0128354Y0018689D01*
X0128097Y0018654D01*
X0127838Y0018625D01*
X0127579Y0018603D01*
X0127320Y0018587D01*
X0127060Y0018577D01*
X0126800Y0018574D01*
X0126540Y0018577D01*
X0126280Y0018587D01*
X0126021Y0018603D01*
X0125762Y0018625D01*
X0125503Y0018654D01*
X0125246Y0018689D01*
X0124989Y0018730D01*
X0124733Y0018778D01*
X0124479Y0018831D01*
X0124226Y0018891D01*
X0123975Y0018958D01*
X0123725Y0019030D01*
X0123477Y0019109D01*
X0123231Y0019193D01*
X0122988Y0019284D01*
X0122746Y0019380D01*
X0122507Y0019483D01*
X0122271Y0019591D01*
X0122037Y0019705D01*
X0121806Y0019825D01*
X0121579Y0019950D01*
X0121354Y0020081D01*
X0121133Y0020217D01*
X0120915Y0020359D01*
X0120700Y0020506D01*
X0120490Y0020659D01*
X0120283Y0020816D01*
X0120080Y0020979D01*
X0119881Y0021146D01*
X0119686Y0021318D01*
X0119496Y0021495D01*
X0119310Y0021677D01*
X0119128Y0021863D01*
X0118951Y0022053D01*
X0118779Y0022248D01*
X0118612Y0022447D01*
X0118449Y0022650D01*
X0118292Y0022857D01*
X0118139Y0023067D01*
X0117992Y0023282D01*
X0117850Y0023500D01*
X0117714Y0023721D01*
X0117583Y0023946D01*
X0117458Y0024173D01*
X0117338Y0024404D01*
X0117224Y0024638D01*
X0117116Y0024874D01*
X0117013Y0025113D01*
X0116917Y0025355D01*
X0116826Y0025598D01*
X0116742Y0025844D01*
X0116663Y0026092D01*
X0116591Y0026342D01*
X0116524Y0026593D01*
X0116464Y0026846D01*
X0116411Y0027100D01*
X0116363Y0027356D01*
X0116322Y0027613D01*
X0116287Y0027870D01*
X0116258Y0028129D01*
X0116236Y0028388D01*
X0116220Y0028647D01*
X0116210Y0028907D01*
X0116207Y0029167D01*
X0114350Y0029167D02*
X0114354Y0029473D01*
X0114365Y0029778D01*
X0114384Y0030083D01*
X0114410Y0030387D01*
X0114444Y0030691D01*
X0114485Y0030994D01*
X0114533Y0031295D01*
X0114589Y0031596D01*
X0114653Y0031895D01*
X0114723Y0032192D01*
X0114801Y0032488D01*
X0114886Y0032781D01*
X0114978Y0033072D01*
X0115078Y0033361D01*
X0115184Y0033648D01*
X0115298Y0033931D01*
X0115418Y0034212D01*
X0115545Y0034490D01*
X0115679Y0034765D01*
X0115820Y0035036D01*
X0115967Y0035304D01*
X0116121Y0035568D01*
X0116282Y0035828D01*
X0116448Y0036084D01*
X0116621Y0036336D01*
X0116800Y0036583D01*
X0116985Y0036827D01*
X0117176Y0037065D01*
X0117373Y0037299D01*
X0117575Y0037528D01*
X0117783Y0037752D01*
X0117997Y0037970D01*
X0118215Y0038184D01*
X0118439Y0038392D01*
X0118668Y0038594D01*
X0118902Y0038791D01*
X0119140Y0038982D01*
X0119384Y0039167D01*
X0119631Y0039346D01*
X0119883Y0039519D01*
X0120139Y0039685D01*
X0120399Y0039846D01*
X0120663Y0040000D01*
X0120931Y0040147D01*
X0121202Y0040288D01*
X0121477Y0040422D01*
X0121755Y0040549D01*
X0122036Y0040669D01*
X0122319Y0040783D01*
X0122606Y0040889D01*
X0122895Y0040989D01*
X0123186Y0041081D01*
X0123479Y0041166D01*
X0123775Y0041244D01*
X0124072Y0041314D01*
X0124371Y0041378D01*
X0124672Y0041434D01*
X0124973Y0041482D01*
X0125276Y0041523D01*
X0125580Y0041557D01*
X0125884Y0041583D01*
X0126189Y0041602D01*
X0126494Y0041613D01*
X0126800Y0041617D01*
X0127106Y0041613D01*
X0127411Y0041602D01*
X0127716Y0041583D01*
X0128020Y0041557D01*
X0128324Y0041523D01*
X0128627Y0041482D01*
X0128928Y0041434D01*
X0129229Y0041378D01*
X0129528Y0041314D01*
X0129825Y0041244D01*
X0130121Y0041166D01*
X0130414Y0041081D01*
X0130705Y0040989D01*
X0130994Y0040889D01*
X0131281Y0040783D01*
X0131564Y0040669D01*
X0131845Y0040549D01*
X0132123Y0040422D01*
X0132398Y0040288D01*
X0132669Y0040147D01*
X0132937Y0040000D01*
X0133201Y0039846D01*
X0133461Y0039685D01*
X0133717Y0039519D01*
X0133969Y0039346D01*
X0134216Y0039167D01*
X0134460Y0038982D01*
X0134698Y0038791D01*
X0134932Y0038594D01*
X0135161Y0038392D01*
X0135385Y0038184D01*
X0135603Y0037970D01*
X0135817Y0037752D01*
X0136025Y0037528D01*
X0136227Y0037299D01*
X0136424Y0037065D01*
X0136615Y0036827D01*
X0136800Y0036583D01*
X0136979Y0036336D01*
X0137152Y0036084D01*
X0137318Y0035828D01*
X0137479Y0035568D01*
X0137633Y0035304D01*
X0137780Y0035036D01*
X0137921Y0034765D01*
X0138055Y0034490D01*
X0138182Y0034212D01*
X0138302Y0033931D01*
X0138416Y0033648D01*
X0138522Y0033361D01*
X0138622Y0033072D01*
X0138714Y0032781D01*
X0138799Y0032488D01*
X0138877Y0032192D01*
X0138947Y0031895D01*
X0139011Y0031596D01*
X0139067Y0031295D01*
X0139115Y0030994D01*
X0139156Y0030691D01*
X0139190Y0030387D01*
X0139216Y0030083D01*
X0139235Y0029778D01*
X0139246Y0029473D01*
X0139250Y0029167D01*
X0139246Y0028861D01*
X0139235Y0028556D01*
X0139216Y0028251D01*
X0139190Y0027947D01*
X0139156Y0027643D01*
X0139115Y0027340D01*
X0139067Y0027039D01*
X0139011Y0026738D01*
X0138947Y0026439D01*
X0138877Y0026142D01*
X0138799Y0025846D01*
X0138714Y0025553D01*
X0138622Y0025262D01*
X0138522Y0024973D01*
X0138416Y0024686D01*
X0138302Y0024403D01*
X0138182Y0024122D01*
X0138055Y0023844D01*
X0137921Y0023569D01*
X0137780Y0023298D01*
X0137633Y0023030D01*
X0137479Y0022766D01*
X0137318Y0022506D01*
X0137152Y0022250D01*
X0136979Y0021998D01*
X0136800Y0021751D01*
X0136615Y0021507D01*
X0136424Y0021269D01*
X0136227Y0021035D01*
X0136025Y0020806D01*
X0135817Y0020582D01*
X0135603Y0020364D01*
X0135385Y0020150D01*
X0135161Y0019942D01*
X0134932Y0019740D01*
X0134698Y0019543D01*
X0134460Y0019352D01*
X0134216Y0019167D01*
X0133969Y0018988D01*
X0133717Y0018815D01*
X0133461Y0018649D01*
X0133201Y0018488D01*
X0132937Y0018334D01*
X0132669Y0018187D01*
X0132398Y0018046D01*
X0132123Y0017912D01*
X0131845Y0017785D01*
X0131564Y0017665D01*
X0131281Y0017551D01*
X0130994Y0017445D01*
X0130705Y0017345D01*
X0130414Y0017253D01*
X0130121Y0017168D01*
X0129825Y0017090D01*
X0129528Y0017020D01*
X0129229Y0016956D01*
X0128928Y0016900D01*
X0128627Y0016852D01*
X0128324Y0016811D01*
X0128020Y0016777D01*
X0127716Y0016751D01*
X0127411Y0016732D01*
X0127106Y0016721D01*
X0126800Y0016717D01*
X0126494Y0016721D01*
X0126189Y0016732D01*
X0125884Y0016751D01*
X0125580Y0016777D01*
X0125276Y0016811D01*
X0124973Y0016852D01*
X0124672Y0016900D01*
X0124371Y0016956D01*
X0124072Y0017020D01*
X0123775Y0017090D01*
X0123479Y0017168D01*
X0123186Y0017253D01*
X0122895Y0017345D01*
X0122606Y0017445D01*
X0122319Y0017551D01*
X0122036Y0017665D01*
X0121755Y0017785D01*
X0121477Y0017912D01*
X0121202Y0018046D01*
X0120931Y0018187D01*
X0120663Y0018334D01*
X0120399Y0018488D01*
X0120139Y0018649D01*
X0119883Y0018815D01*
X0119631Y0018988D01*
X0119384Y0019167D01*
X0119140Y0019352D01*
X0118902Y0019543D01*
X0118668Y0019740D01*
X0118439Y0019942D01*
X0118215Y0020150D01*
X0117997Y0020364D01*
X0117783Y0020582D01*
X0117575Y0020806D01*
X0117373Y0021035D01*
X0117176Y0021269D01*
X0116985Y0021507D01*
X0116800Y0021751D01*
X0116621Y0021998D01*
X0116448Y0022250D01*
X0116282Y0022506D01*
X0116121Y0022766D01*
X0115967Y0023030D01*
X0115820Y0023298D01*
X0115679Y0023569D01*
X0115545Y0023844D01*
X0115418Y0024122D01*
X0115298Y0024403D01*
X0115184Y0024686D01*
X0115078Y0024973D01*
X0114978Y0025262D01*
X0114886Y0025553D01*
X0114801Y0025846D01*
X0114723Y0026142D01*
X0114653Y0026439D01*
X0114589Y0026738D01*
X0114533Y0027039D01*
X0114485Y0027340D01*
X0114444Y0027643D01*
X0114410Y0027947D01*
X0114384Y0028251D01*
X0114365Y0028556D01*
X0114354Y0028861D01*
X0114350Y0029167D01*
X0103178Y0023261D02*
X0103178Y0011450D01*
X0094536Y0042917D02*
X0094536Y0045417D01*
X0093302Y0044144D02*
X0095802Y0044144D01*
X0109517Y0048950D02*
X0109517Y0067454D01*
X0118178Y0067454D01*
X0118178Y0065879D01*
X0109910Y0065879D01*
X0109517Y0067454D02*
X0109517Y0084383D01*
X0068178Y0084383D01*
X0068178Y0072572D01*
X0076052Y0072572D01*
X0076052Y0060761D01*
X0068178Y0060761D01*
X0068178Y0072572D01*
X0058178Y0067454D02*
X0049517Y0067454D01*
X0049517Y0084383D01*
X0008178Y0084383D01*
X0008178Y0072572D01*
X0016052Y0072572D01*
X0016052Y0060761D01*
X0008178Y0060761D01*
X0008178Y0072572D01*
X0021207Y0066667D02*
X0021210Y0066927D01*
X0021220Y0067187D01*
X0021236Y0067446D01*
X0021258Y0067705D01*
X0021287Y0067964D01*
X0021322Y0068221D01*
X0021363Y0068478D01*
X0021411Y0068734D01*
X0021464Y0068988D01*
X0021524Y0069241D01*
X0021591Y0069492D01*
X0021663Y0069742D01*
X0021742Y0069990D01*
X0021826Y0070236D01*
X0021917Y0070479D01*
X0022013Y0070721D01*
X0022116Y0070960D01*
X0022224Y0071196D01*
X0022338Y0071430D01*
X0022458Y0071661D01*
X0022583Y0071888D01*
X0022714Y0072113D01*
X0022850Y0072334D01*
X0022992Y0072552D01*
X0023139Y0072767D01*
X0023292Y0072977D01*
X0023449Y0073184D01*
X0023612Y0073387D01*
X0023779Y0073586D01*
X0023951Y0073781D01*
X0024128Y0073971D01*
X0024310Y0074157D01*
X0024496Y0074339D01*
X0024686Y0074516D01*
X0024881Y0074688D01*
X0025080Y0074855D01*
X0025283Y0075018D01*
X0025490Y0075175D01*
X0025700Y0075328D01*
X0025915Y0075475D01*
X0026133Y0075617D01*
X0026354Y0075753D01*
X0026579Y0075884D01*
X0026806Y0076009D01*
X0027037Y0076129D01*
X0027271Y0076243D01*
X0027507Y0076351D01*
X0027746Y0076454D01*
X0027988Y0076550D01*
X0028231Y0076641D01*
X0028477Y0076725D01*
X0028725Y0076804D01*
X0028975Y0076876D01*
X0029226Y0076943D01*
X0029479Y0077003D01*
X0029733Y0077056D01*
X0029989Y0077104D01*
X0030246Y0077145D01*
X0030503Y0077180D01*
X0030762Y0077209D01*
X0031021Y0077231D01*
X0031280Y0077247D01*
X0031540Y0077257D01*
X0031800Y0077260D01*
X0032060Y0077257D01*
X0032320Y0077247D01*
X0032579Y0077231D01*
X0032838Y0077209D01*
X0033097Y0077180D01*
X0033354Y0077145D01*
X0033611Y0077104D01*
X0033867Y0077056D01*
X0034121Y0077003D01*
X0034374Y0076943D01*
X0034625Y0076876D01*
X0034875Y0076804D01*
X0035123Y0076725D01*
X0035369Y0076641D01*
X0035612Y0076550D01*
X0035854Y0076454D01*
X0036093Y0076351D01*
X0036329Y0076243D01*
X0036563Y0076129D01*
X0036794Y0076009D01*
X0037021Y0075884D01*
X0037246Y0075753D01*
X0037467Y0075617D01*
X0037685Y0075475D01*
X0037900Y0075328D01*
X0038110Y0075175D01*
X0038317Y0075018D01*
X0038520Y0074855D01*
X0038719Y0074688D01*
X0038914Y0074516D01*
X0039104Y0074339D01*
X0039290Y0074157D01*
X0039472Y0073971D01*
X0039649Y0073781D01*
X0039821Y0073586D01*
X0039988Y0073387D01*
X0040151Y0073184D01*
X0040308Y0072977D01*
X0040461Y0072767D01*
X0040608Y0072552D01*
X0040750Y0072334D01*
X0040886Y0072113D01*
X0041017Y0071888D01*
X0041142Y0071661D01*
X0041262Y0071430D01*
X0041376Y0071196D01*
X0041484Y0070960D01*
X0041587Y0070721D01*
X0041683Y0070479D01*
X0041774Y0070236D01*
X0041858Y0069990D01*
X0041937Y0069742D01*
X0042009Y0069492D01*
X0042076Y0069241D01*
X0042136Y0068988D01*
X0042189Y0068734D01*
X0042237Y0068478D01*
X0042278Y0068221D01*
X0042313Y0067964D01*
X0042342Y0067705D01*
X0042364Y0067446D01*
X0042380Y0067187D01*
X0042390Y0066927D01*
X0042393Y0066667D01*
X0042390Y0066407D01*
X0042380Y0066147D01*
X0042364Y0065888D01*
X0042342Y0065629D01*
X0042313Y0065370D01*
X0042278Y0065113D01*
X0042237Y0064856D01*
X0042189Y0064600D01*
X0042136Y0064346D01*
X0042076Y0064093D01*
X0042009Y0063842D01*
X0041937Y0063592D01*
X0041858Y0063344D01*
X0041774Y0063098D01*
X0041683Y0062855D01*
X0041587Y0062613D01*
X0041484Y0062374D01*
X0041376Y0062138D01*
X0041262Y0061904D01*
X0041142Y0061673D01*
X0041017Y0061446D01*
X0040886Y0061221D01*
X0040750Y0061000D01*
X0040608Y0060782D01*
X0040461Y0060567D01*
X0040308Y0060357D01*
X0040151Y0060150D01*
X0039988Y0059947D01*
X0039821Y0059748D01*
X0039649Y0059553D01*
X0039472Y0059363D01*
X0039290Y0059177D01*
X0039104Y0058995D01*
X0038914Y0058818D01*
X0038719Y0058646D01*
X0038520Y0058479D01*
X0038317Y0058316D01*
X0038110Y0058159D01*
X0037900Y0058006D01*
X0037685Y0057859D01*
X0037467Y0057717D01*
X0037246Y0057581D01*
X0037021Y0057450D01*
X0036794Y0057325D01*
X0036563Y0057205D01*
X0036329Y0057091D01*
X0036093Y0056983D01*
X0035854Y0056880D01*
X0035612Y0056784D01*
X0035369Y0056693D01*
X0035123Y0056609D01*
X0034875Y0056530D01*
X0034625Y0056458D01*
X0034374Y0056391D01*
X0034121Y0056331D01*
X0033867Y0056278D01*
X0033611Y0056230D01*
X0033354Y0056189D01*
X0033097Y0056154D01*
X0032838Y0056125D01*
X0032579Y0056103D01*
X0032320Y0056087D01*
X0032060Y0056077D01*
X0031800Y0056074D01*
X0031540Y0056077D01*
X0031280Y0056087D01*
X0031021Y0056103D01*
X0030762Y0056125D01*
X0030503Y0056154D01*
X0030246Y0056189D01*
X0029989Y0056230D01*
X0029733Y0056278D01*
X0029479Y0056331D01*
X0029226Y0056391D01*
X0028975Y0056458D01*
X0028725Y0056530D01*
X0028477Y0056609D01*
X0028231Y0056693D01*
X0027988Y0056784D01*
X0027746Y0056880D01*
X0027507Y0056983D01*
X0027271Y0057091D01*
X0027037Y0057205D01*
X0026806Y0057325D01*
X0026579Y0057450D01*
X0026354Y0057581D01*
X0026133Y0057717D01*
X0025915Y0057859D01*
X0025700Y0058006D01*
X0025490Y0058159D01*
X0025283Y0058316D01*
X0025080Y0058479D01*
X0024881Y0058646D01*
X0024686Y0058818D01*
X0024496Y0058995D01*
X0024310Y0059177D01*
X0024128Y0059363D01*
X0023951Y0059553D01*
X0023779Y0059748D01*
X0023612Y0059947D01*
X0023449Y0060150D01*
X0023292Y0060357D01*
X0023139Y0060567D01*
X0022992Y0060782D01*
X0022850Y0061000D01*
X0022714Y0061221D01*
X0022583Y0061446D01*
X0022458Y0061673D01*
X0022338Y0061904D01*
X0022224Y0062138D01*
X0022116Y0062374D01*
X0022013Y0062613D01*
X0021917Y0062855D01*
X0021826Y0063098D01*
X0021742Y0063344D01*
X0021663Y0063592D01*
X0021591Y0063842D01*
X0021524Y0064093D01*
X0021464Y0064346D01*
X0021411Y0064600D01*
X0021363Y0064856D01*
X0021322Y0065113D01*
X0021287Y0065370D01*
X0021258Y0065629D01*
X0021236Y0065888D01*
X0021220Y0066147D01*
X0021210Y0066407D01*
X0021207Y0066667D01*
X0019350Y0066667D02*
X0019354Y0066973D01*
X0019365Y0067278D01*
X0019384Y0067583D01*
X0019410Y0067887D01*
X0019444Y0068191D01*
X0019485Y0068494D01*
X0019533Y0068795D01*
X0019589Y0069096D01*
X0019653Y0069395D01*
X0019723Y0069692D01*
X0019801Y0069988D01*
X0019886Y0070281D01*
X0019978Y0070572D01*
X0020078Y0070861D01*
X0020184Y0071148D01*
X0020298Y0071431D01*
X0020418Y0071712D01*
X0020545Y0071990D01*
X0020679Y0072265D01*
X0020820Y0072536D01*
X0020967Y0072804D01*
X0021121Y0073068D01*
X0021282Y0073328D01*
X0021448Y0073584D01*
X0021621Y0073836D01*
X0021800Y0074083D01*
X0021985Y0074327D01*
X0022176Y0074565D01*
X0022373Y0074799D01*
X0022575Y0075028D01*
X0022783Y0075252D01*
X0022997Y0075470D01*
X0023215Y0075684D01*
X0023439Y0075892D01*
X0023668Y0076094D01*
X0023902Y0076291D01*
X0024140Y0076482D01*
X0024384Y0076667D01*
X0024631Y0076846D01*
X0024883Y0077019D01*
X0025139Y0077185D01*
X0025399Y0077346D01*
X0025663Y0077500D01*
X0025931Y0077647D01*
X0026202Y0077788D01*
X0026477Y0077922D01*
X0026755Y0078049D01*
X0027036Y0078169D01*
X0027319Y0078283D01*
X0027606Y0078389D01*
X0027895Y0078489D01*
X0028186Y0078581D01*
X0028479Y0078666D01*
X0028775Y0078744D01*
X0029072Y0078814D01*
X0029371Y0078878D01*
X0029672Y0078934D01*
X0029973Y0078982D01*
X0030276Y0079023D01*
X0030580Y0079057D01*
X0030884Y0079083D01*
X0031189Y0079102D01*
X0031494Y0079113D01*
X0031800Y0079117D01*
X0032106Y0079113D01*
X0032411Y0079102D01*
X0032716Y0079083D01*
X0033020Y0079057D01*
X0033324Y0079023D01*
X0033627Y0078982D01*
X0033928Y0078934D01*
X0034229Y0078878D01*
X0034528Y0078814D01*
X0034825Y0078744D01*
X0035121Y0078666D01*
X0035414Y0078581D01*
X0035705Y0078489D01*
X0035994Y0078389D01*
X0036281Y0078283D01*
X0036564Y0078169D01*
X0036845Y0078049D01*
X0037123Y0077922D01*
X0037398Y0077788D01*
X0037669Y0077647D01*
X0037937Y0077500D01*
X0038201Y0077346D01*
X0038461Y0077185D01*
X0038717Y0077019D01*
X0038969Y0076846D01*
X0039216Y0076667D01*
X0039460Y0076482D01*
X0039698Y0076291D01*
X0039932Y0076094D01*
X0040161Y0075892D01*
X0040385Y0075684D01*
X0040603Y0075470D01*
X0040817Y0075252D01*
X0041025Y0075028D01*
X0041227Y0074799D01*
X0041424Y0074565D01*
X0041615Y0074327D01*
X0041800Y0074083D01*
X0041979Y0073836D01*
X0042152Y0073584D01*
X0042318Y0073328D01*
X0042479Y0073068D01*
X0042633Y0072804D01*
X0042780Y0072536D01*
X0042921Y0072265D01*
X0043055Y0071990D01*
X0043182Y0071712D01*
X0043302Y0071431D01*
X0043416Y0071148D01*
X0043522Y0070861D01*
X0043622Y0070572D01*
X0043714Y0070281D01*
X0043799Y0069988D01*
X0043877Y0069692D01*
X0043947Y0069395D01*
X0044011Y0069096D01*
X0044067Y0068795D01*
X0044115Y0068494D01*
X0044156Y0068191D01*
X0044190Y0067887D01*
X0044216Y0067583D01*
X0044235Y0067278D01*
X0044246Y0066973D01*
X0044250Y0066667D01*
X0044246Y0066361D01*
X0044235Y0066056D01*
X0044216Y0065751D01*
X0044190Y0065447D01*
X0044156Y0065143D01*
X0044115Y0064840D01*
X0044067Y0064539D01*
X0044011Y0064238D01*
X0043947Y0063939D01*
X0043877Y0063642D01*
X0043799Y0063346D01*
X0043714Y0063053D01*
X0043622Y0062762D01*
X0043522Y0062473D01*
X0043416Y0062186D01*
X0043302Y0061903D01*
X0043182Y0061622D01*
X0043055Y0061344D01*
X0042921Y0061069D01*
X0042780Y0060798D01*
X0042633Y0060530D01*
X0042479Y0060266D01*
X0042318Y0060006D01*
X0042152Y0059750D01*
X0041979Y0059498D01*
X0041800Y0059251D01*
X0041615Y0059007D01*
X0041424Y0058769D01*
X0041227Y0058535D01*
X0041025Y0058306D01*
X0040817Y0058082D01*
X0040603Y0057864D01*
X0040385Y0057650D01*
X0040161Y0057442D01*
X0039932Y0057240D01*
X0039698Y0057043D01*
X0039460Y0056852D01*
X0039216Y0056667D01*
X0038969Y0056488D01*
X0038717Y0056315D01*
X0038461Y0056149D01*
X0038201Y0055988D01*
X0037937Y0055834D01*
X0037669Y0055687D01*
X0037398Y0055546D01*
X0037123Y0055412D01*
X0036845Y0055285D01*
X0036564Y0055165D01*
X0036281Y0055051D01*
X0035994Y0054945D01*
X0035705Y0054845D01*
X0035414Y0054753D01*
X0035121Y0054668D01*
X0034825Y0054590D01*
X0034528Y0054520D01*
X0034229Y0054456D01*
X0033928Y0054400D01*
X0033627Y0054352D01*
X0033324Y0054311D01*
X0033020Y0054277D01*
X0032716Y0054251D01*
X0032411Y0054232D01*
X0032106Y0054221D01*
X0031800Y0054217D01*
X0031494Y0054221D01*
X0031189Y0054232D01*
X0030884Y0054251D01*
X0030580Y0054277D01*
X0030276Y0054311D01*
X0029973Y0054352D01*
X0029672Y0054400D01*
X0029371Y0054456D01*
X0029072Y0054520D01*
X0028775Y0054590D01*
X0028479Y0054668D01*
X0028186Y0054753D01*
X0027895Y0054845D01*
X0027606Y0054945D01*
X0027319Y0055051D01*
X0027036Y0055165D01*
X0026755Y0055285D01*
X0026477Y0055412D01*
X0026202Y0055546D01*
X0025931Y0055687D01*
X0025663Y0055834D01*
X0025399Y0055988D01*
X0025139Y0056149D01*
X0024883Y0056315D01*
X0024631Y0056488D01*
X0024384Y0056667D01*
X0024140Y0056852D01*
X0023902Y0057043D01*
X0023668Y0057240D01*
X0023439Y0057442D01*
X0023215Y0057650D01*
X0022997Y0057864D01*
X0022783Y0058082D01*
X0022575Y0058306D01*
X0022373Y0058535D01*
X0022176Y0058769D01*
X0021985Y0059007D01*
X0021800Y0059251D01*
X0021621Y0059498D01*
X0021448Y0059750D01*
X0021282Y0060006D01*
X0021121Y0060266D01*
X0020967Y0060530D01*
X0020820Y0060798D01*
X0020679Y0061069D01*
X0020545Y0061344D01*
X0020418Y0061622D01*
X0020298Y0061903D01*
X0020184Y0062186D01*
X0020078Y0062473D01*
X0019978Y0062762D01*
X0019886Y0063053D01*
X0019801Y0063346D01*
X0019723Y0063642D01*
X0019653Y0063939D01*
X0019589Y0064238D01*
X0019533Y0064539D01*
X0019485Y0064840D01*
X0019444Y0065143D01*
X0019410Y0065447D01*
X0019384Y0065751D01*
X0019365Y0066056D01*
X0019354Y0066361D01*
X0019350Y0066667D01*
X0008178Y0060761D02*
X0008178Y0048950D01*
X0049517Y0048950D01*
X0049517Y0067454D01*
X0049910Y0065879D02*
X0058178Y0065879D01*
X0058178Y0067454D01*
X0068178Y0060761D02*
X0068178Y0048950D01*
X0109517Y0048950D01*
X0128178Y0048950D02*
X0169517Y0048950D01*
X0169517Y0067454D01*
X0178178Y0067454D01*
X0178178Y0065879D01*
X0169910Y0065879D01*
X0169517Y0067454D02*
X0169517Y0084383D01*
X0128178Y0084383D01*
X0128178Y0072572D01*
X0136052Y0072572D01*
X0136052Y0060761D01*
X0128178Y0060761D01*
X0128178Y0072572D01*
X0141207Y0066667D02*
X0141210Y0066927D01*
X0141220Y0067187D01*
X0141236Y0067446D01*
X0141258Y0067705D01*
X0141287Y0067964D01*
X0141322Y0068221D01*
X0141363Y0068478D01*
X0141411Y0068734D01*
X0141464Y0068988D01*
X0141524Y0069241D01*
X0141591Y0069492D01*
X0141663Y0069742D01*
X0141742Y0069990D01*
X0141826Y0070236D01*
X0141917Y0070479D01*
X0142013Y0070721D01*
X0142116Y0070960D01*
X0142224Y0071196D01*
X0142338Y0071430D01*
X0142458Y0071661D01*
X0142583Y0071888D01*
X0142714Y0072113D01*
X0142850Y0072334D01*
X0142992Y0072552D01*
X0143139Y0072767D01*
X0143292Y0072977D01*
X0143449Y0073184D01*
X0143612Y0073387D01*
X0143779Y0073586D01*
X0143951Y0073781D01*
X0144128Y0073971D01*
X0144310Y0074157D01*
X0144496Y0074339D01*
X0144686Y0074516D01*
X0144881Y0074688D01*
X0145080Y0074855D01*
X0145283Y0075018D01*
X0145490Y0075175D01*
X0145700Y0075328D01*
X0145915Y0075475D01*
X0146133Y0075617D01*
X0146354Y0075753D01*
X0146579Y0075884D01*
X0146806Y0076009D01*
X0147037Y0076129D01*
X0147271Y0076243D01*
X0147507Y0076351D01*
X0147746Y0076454D01*
X0147988Y0076550D01*
X0148231Y0076641D01*
X0148477Y0076725D01*
X0148725Y0076804D01*
X0148975Y0076876D01*
X0149226Y0076943D01*
X0149479Y0077003D01*
X0149733Y0077056D01*
X0149989Y0077104D01*
X0150246Y0077145D01*
X0150503Y0077180D01*
X0150762Y0077209D01*
X0151021Y0077231D01*
X0151280Y0077247D01*
X0151540Y0077257D01*
X0151800Y0077260D01*
X0152060Y0077257D01*
X0152320Y0077247D01*
X0152579Y0077231D01*
X0152838Y0077209D01*
X0153097Y0077180D01*
X0153354Y0077145D01*
X0153611Y0077104D01*
X0153867Y0077056D01*
X0154121Y0077003D01*
X0154374Y0076943D01*
X0154625Y0076876D01*
X0154875Y0076804D01*
X0155123Y0076725D01*
X0155369Y0076641D01*
X0155612Y0076550D01*
X0155854Y0076454D01*
X0156093Y0076351D01*
X0156329Y0076243D01*
X0156563Y0076129D01*
X0156794Y0076009D01*
X0157021Y0075884D01*
X0157246Y0075753D01*
X0157467Y0075617D01*
X0157685Y0075475D01*
X0157900Y0075328D01*
X0158110Y0075175D01*
X0158317Y0075018D01*
X0158520Y0074855D01*
X0158719Y0074688D01*
X0158914Y0074516D01*
X0159104Y0074339D01*
X0159290Y0074157D01*
X0159472Y0073971D01*
X0159649Y0073781D01*
X0159821Y0073586D01*
X0159988Y0073387D01*
X0160151Y0073184D01*
X0160308Y0072977D01*
X0160461Y0072767D01*
X0160608Y0072552D01*
X0160750Y0072334D01*
X0160886Y0072113D01*
X0161017Y0071888D01*
X0161142Y0071661D01*
X0161262Y0071430D01*
X0161376Y0071196D01*
X0161484Y0070960D01*
X0161587Y0070721D01*
X0161683Y0070479D01*
X0161774Y0070236D01*
X0161858Y0069990D01*
X0161937Y0069742D01*
X0162009Y0069492D01*
X0162076Y0069241D01*
X0162136Y0068988D01*
X0162189Y0068734D01*
X0162237Y0068478D01*
X0162278Y0068221D01*
X0162313Y0067964D01*
X0162342Y0067705D01*
X0162364Y0067446D01*
X0162380Y0067187D01*
X0162390Y0066927D01*
X0162393Y0066667D01*
X0162390Y0066407D01*
X0162380Y0066147D01*
X0162364Y0065888D01*
X0162342Y0065629D01*
X0162313Y0065370D01*
X0162278Y0065113D01*
X0162237Y0064856D01*
X0162189Y0064600D01*
X0162136Y0064346D01*
X0162076Y0064093D01*
X0162009Y0063842D01*
X0161937Y0063592D01*
X0161858Y0063344D01*
X0161774Y0063098D01*
X0161683Y0062855D01*
X0161587Y0062613D01*
X0161484Y0062374D01*
X0161376Y0062138D01*
X0161262Y0061904D01*
X0161142Y0061673D01*
X0161017Y0061446D01*
X0160886Y0061221D01*
X0160750Y0061000D01*
X0160608Y0060782D01*
X0160461Y0060567D01*
X0160308Y0060357D01*
X0160151Y0060150D01*
X0159988Y0059947D01*
X0159821Y0059748D01*
X0159649Y0059553D01*
X0159472Y0059363D01*
X0159290Y0059177D01*
X0159104Y0058995D01*
X0158914Y0058818D01*
X0158719Y0058646D01*
X0158520Y0058479D01*
X0158317Y0058316D01*
X0158110Y0058159D01*
X0157900Y0058006D01*
X0157685Y0057859D01*
X0157467Y0057717D01*
X0157246Y0057581D01*
X0157021Y0057450D01*
X0156794Y0057325D01*
X0156563Y0057205D01*
X0156329Y0057091D01*
X0156093Y0056983D01*
X0155854Y0056880D01*
X0155612Y0056784D01*
X0155369Y0056693D01*
X0155123Y0056609D01*
X0154875Y0056530D01*
X0154625Y0056458D01*
X0154374Y0056391D01*
X0154121Y0056331D01*
X0153867Y0056278D01*
X0153611Y0056230D01*
X0153354Y0056189D01*
X0153097Y0056154D01*
X0152838Y0056125D01*
X0152579Y0056103D01*
X0152320Y0056087D01*
X0152060Y0056077D01*
X0151800Y0056074D01*
X0151540Y0056077D01*
X0151280Y0056087D01*
X0151021Y0056103D01*
X0150762Y0056125D01*
X0150503Y0056154D01*
X0150246Y0056189D01*
X0149989Y0056230D01*
X0149733Y0056278D01*
X0149479Y0056331D01*
X0149226Y0056391D01*
X0148975Y0056458D01*
X0148725Y0056530D01*
X0148477Y0056609D01*
X0148231Y0056693D01*
X0147988Y0056784D01*
X0147746Y0056880D01*
X0147507Y0056983D01*
X0147271Y0057091D01*
X0147037Y0057205D01*
X0146806Y0057325D01*
X0146579Y0057450D01*
X0146354Y0057581D01*
X0146133Y0057717D01*
X0145915Y0057859D01*
X0145700Y0058006D01*
X0145490Y0058159D01*
X0145283Y0058316D01*
X0145080Y0058479D01*
X0144881Y0058646D01*
X0144686Y0058818D01*
X0144496Y0058995D01*
X0144310Y0059177D01*
X0144128Y0059363D01*
X0143951Y0059553D01*
X0143779Y0059748D01*
X0143612Y0059947D01*
X0143449Y0060150D01*
X0143292Y0060357D01*
X0143139Y0060567D01*
X0142992Y0060782D01*
X0142850Y0061000D01*
X0142714Y0061221D01*
X0142583Y0061446D01*
X0142458Y0061673D01*
X0142338Y0061904D01*
X0142224Y0062138D01*
X0142116Y0062374D01*
X0142013Y0062613D01*
X0141917Y0062855D01*
X0141826Y0063098D01*
X0141742Y0063344D01*
X0141663Y0063592D01*
X0141591Y0063842D01*
X0141524Y0064093D01*
X0141464Y0064346D01*
X0141411Y0064600D01*
X0141363Y0064856D01*
X0141322Y0065113D01*
X0141287Y0065370D01*
X0141258Y0065629D01*
X0141236Y0065888D01*
X0141220Y0066147D01*
X0141210Y0066407D01*
X0141207Y0066667D01*
X0139350Y0066667D02*
X0139354Y0066973D01*
X0139365Y0067278D01*
X0139384Y0067583D01*
X0139410Y0067887D01*
X0139444Y0068191D01*
X0139485Y0068494D01*
X0139533Y0068795D01*
X0139589Y0069096D01*
X0139653Y0069395D01*
X0139723Y0069692D01*
X0139801Y0069988D01*
X0139886Y0070281D01*
X0139978Y0070572D01*
X0140078Y0070861D01*
X0140184Y0071148D01*
X0140298Y0071431D01*
X0140418Y0071712D01*
X0140545Y0071990D01*
X0140679Y0072265D01*
X0140820Y0072536D01*
X0140967Y0072804D01*
X0141121Y0073068D01*
X0141282Y0073328D01*
X0141448Y0073584D01*
X0141621Y0073836D01*
X0141800Y0074083D01*
X0141985Y0074327D01*
X0142176Y0074565D01*
X0142373Y0074799D01*
X0142575Y0075028D01*
X0142783Y0075252D01*
X0142997Y0075470D01*
X0143215Y0075684D01*
X0143439Y0075892D01*
X0143668Y0076094D01*
X0143902Y0076291D01*
X0144140Y0076482D01*
X0144384Y0076667D01*
X0144631Y0076846D01*
X0144883Y0077019D01*
X0145139Y0077185D01*
X0145399Y0077346D01*
X0145663Y0077500D01*
X0145931Y0077647D01*
X0146202Y0077788D01*
X0146477Y0077922D01*
X0146755Y0078049D01*
X0147036Y0078169D01*
X0147319Y0078283D01*
X0147606Y0078389D01*
X0147895Y0078489D01*
X0148186Y0078581D01*
X0148479Y0078666D01*
X0148775Y0078744D01*
X0149072Y0078814D01*
X0149371Y0078878D01*
X0149672Y0078934D01*
X0149973Y0078982D01*
X0150276Y0079023D01*
X0150580Y0079057D01*
X0150884Y0079083D01*
X0151189Y0079102D01*
X0151494Y0079113D01*
X0151800Y0079117D01*
X0152106Y0079113D01*
X0152411Y0079102D01*
X0152716Y0079083D01*
X0153020Y0079057D01*
X0153324Y0079023D01*
X0153627Y0078982D01*
X0153928Y0078934D01*
X0154229Y0078878D01*
X0154528Y0078814D01*
X0154825Y0078744D01*
X0155121Y0078666D01*
X0155414Y0078581D01*
X0155705Y0078489D01*
X0155994Y0078389D01*
X0156281Y0078283D01*
X0156564Y0078169D01*
X0156845Y0078049D01*
X0157123Y0077922D01*
X0157398Y0077788D01*
X0157669Y0077647D01*
X0157937Y0077500D01*
X0158201Y0077346D01*
X0158461Y0077185D01*
X0158717Y0077019D01*
X0158969Y0076846D01*
X0159216Y0076667D01*
X0159460Y0076482D01*
X0159698Y0076291D01*
X0159932Y0076094D01*
X0160161Y0075892D01*
X0160385Y0075684D01*
X0160603Y0075470D01*
X0160817Y0075252D01*
X0161025Y0075028D01*
X0161227Y0074799D01*
X0161424Y0074565D01*
X0161615Y0074327D01*
X0161800Y0074083D01*
X0161979Y0073836D01*
X0162152Y0073584D01*
X0162318Y0073328D01*
X0162479Y0073068D01*
X0162633Y0072804D01*
X0162780Y0072536D01*
X0162921Y0072265D01*
X0163055Y0071990D01*
X0163182Y0071712D01*
X0163302Y0071431D01*
X0163416Y0071148D01*
X0163522Y0070861D01*
X0163622Y0070572D01*
X0163714Y0070281D01*
X0163799Y0069988D01*
X0163877Y0069692D01*
X0163947Y0069395D01*
X0164011Y0069096D01*
X0164067Y0068795D01*
X0164115Y0068494D01*
X0164156Y0068191D01*
X0164190Y0067887D01*
X0164216Y0067583D01*
X0164235Y0067278D01*
X0164246Y0066973D01*
X0164250Y0066667D01*
X0164246Y0066361D01*
X0164235Y0066056D01*
X0164216Y0065751D01*
X0164190Y0065447D01*
X0164156Y0065143D01*
X0164115Y0064840D01*
X0164067Y0064539D01*
X0164011Y0064238D01*
X0163947Y0063939D01*
X0163877Y0063642D01*
X0163799Y0063346D01*
X0163714Y0063053D01*
X0163622Y0062762D01*
X0163522Y0062473D01*
X0163416Y0062186D01*
X0163302Y0061903D01*
X0163182Y0061622D01*
X0163055Y0061344D01*
X0162921Y0061069D01*
X0162780Y0060798D01*
X0162633Y0060530D01*
X0162479Y0060266D01*
X0162318Y0060006D01*
X0162152Y0059750D01*
X0161979Y0059498D01*
X0161800Y0059251D01*
X0161615Y0059007D01*
X0161424Y0058769D01*
X0161227Y0058535D01*
X0161025Y0058306D01*
X0160817Y0058082D01*
X0160603Y0057864D01*
X0160385Y0057650D01*
X0160161Y0057442D01*
X0159932Y0057240D01*
X0159698Y0057043D01*
X0159460Y0056852D01*
X0159216Y0056667D01*
X0158969Y0056488D01*
X0158717Y0056315D01*
X0158461Y0056149D01*
X0158201Y0055988D01*
X0157937Y0055834D01*
X0157669Y0055687D01*
X0157398Y0055546D01*
X0157123Y0055412D01*
X0156845Y0055285D01*
X0156564Y0055165D01*
X0156281Y0055051D01*
X0155994Y0054945D01*
X0155705Y0054845D01*
X0155414Y0054753D01*
X0155121Y0054668D01*
X0154825Y0054590D01*
X0154528Y0054520D01*
X0154229Y0054456D01*
X0153928Y0054400D01*
X0153627Y0054352D01*
X0153324Y0054311D01*
X0153020Y0054277D01*
X0152716Y0054251D01*
X0152411Y0054232D01*
X0152106Y0054221D01*
X0151800Y0054217D01*
X0151494Y0054221D01*
X0151189Y0054232D01*
X0150884Y0054251D01*
X0150580Y0054277D01*
X0150276Y0054311D01*
X0149973Y0054352D01*
X0149672Y0054400D01*
X0149371Y0054456D01*
X0149072Y0054520D01*
X0148775Y0054590D01*
X0148479Y0054668D01*
X0148186Y0054753D01*
X0147895Y0054845D01*
X0147606Y0054945D01*
X0147319Y0055051D01*
X0147036Y0055165D01*
X0146755Y0055285D01*
X0146477Y0055412D01*
X0146202Y0055546D01*
X0145931Y0055687D01*
X0145663Y0055834D01*
X0145399Y0055988D01*
X0145139Y0056149D01*
X0144883Y0056315D01*
X0144631Y0056488D01*
X0144384Y0056667D01*
X0144140Y0056852D01*
X0143902Y0057043D01*
X0143668Y0057240D01*
X0143439Y0057442D01*
X0143215Y0057650D01*
X0142997Y0057864D01*
X0142783Y0058082D01*
X0142575Y0058306D01*
X0142373Y0058535D01*
X0142176Y0058769D01*
X0141985Y0059007D01*
X0141800Y0059251D01*
X0141621Y0059498D01*
X0141448Y0059750D01*
X0141282Y0060006D01*
X0141121Y0060266D01*
X0140967Y0060530D01*
X0140820Y0060798D01*
X0140679Y0061069D01*
X0140545Y0061344D01*
X0140418Y0061622D01*
X0140298Y0061903D01*
X0140184Y0062186D01*
X0140078Y0062473D01*
X0139978Y0062762D01*
X0139886Y0063053D01*
X0139801Y0063346D01*
X0139723Y0063642D01*
X0139653Y0063939D01*
X0139589Y0064238D01*
X0139533Y0064539D01*
X0139485Y0064840D01*
X0139444Y0065143D01*
X0139410Y0065447D01*
X0139384Y0065751D01*
X0139365Y0066056D01*
X0139354Y0066361D01*
X0139350Y0066667D01*
X0128178Y0060761D02*
X0128178Y0048950D01*
X0158302Y0044144D02*
X0160802Y0044144D01*
X0159536Y0042917D02*
X0159536Y0045417D01*
X0188178Y0048950D02*
X0229517Y0048950D01*
X0229517Y0067454D01*
X0238178Y0067454D01*
X0238178Y0065879D01*
X0229910Y0065879D01*
X0229517Y0067454D02*
X0229517Y0084383D01*
X0188178Y0084383D01*
X0188178Y0072572D01*
X0196052Y0072572D01*
X0196052Y0060761D01*
X0188178Y0060761D01*
X0188178Y0072572D01*
X0201207Y0066667D02*
X0201210Y0066927D01*
X0201220Y0067187D01*
X0201236Y0067446D01*
X0201258Y0067705D01*
X0201287Y0067964D01*
X0201322Y0068221D01*
X0201363Y0068478D01*
X0201411Y0068734D01*
X0201464Y0068988D01*
X0201524Y0069241D01*
X0201591Y0069492D01*
X0201663Y0069742D01*
X0201742Y0069990D01*
X0201826Y0070236D01*
X0201917Y0070479D01*
X0202013Y0070721D01*
X0202116Y0070960D01*
X0202224Y0071196D01*
X0202338Y0071430D01*
X0202458Y0071661D01*
X0202583Y0071888D01*
X0202714Y0072113D01*
X0202850Y0072334D01*
X0202992Y0072552D01*
X0203139Y0072767D01*
X0203292Y0072977D01*
X0203449Y0073184D01*
X0203612Y0073387D01*
X0203779Y0073586D01*
X0203951Y0073781D01*
X0204128Y0073971D01*
X0204310Y0074157D01*
X0204496Y0074339D01*
X0204686Y0074516D01*
X0204881Y0074688D01*
X0205080Y0074855D01*
X0205283Y0075018D01*
X0205490Y0075175D01*
X0205700Y0075328D01*
X0205915Y0075475D01*
X0206133Y0075617D01*
X0206354Y0075753D01*
X0206579Y0075884D01*
X0206806Y0076009D01*
X0207037Y0076129D01*
X0207271Y0076243D01*
X0207507Y0076351D01*
X0207746Y0076454D01*
X0207988Y0076550D01*
X0208231Y0076641D01*
X0208477Y0076725D01*
X0208725Y0076804D01*
X0208975Y0076876D01*
X0209226Y0076943D01*
X0209479Y0077003D01*
X0209733Y0077056D01*
X0209989Y0077104D01*
X0210246Y0077145D01*
X0210503Y0077180D01*
X0210762Y0077209D01*
X0211021Y0077231D01*
X0211280Y0077247D01*
X0211540Y0077257D01*
X0211800Y0077260D01*
X0212060Y0077257D01*
X0212320Y0077247D01*
X0212579Y0077231D01*
X0212838Y0077209D01*
X0213097Y0077180D01*
X0213354Y0077145D01*
X0213611Y0077104D01*
X0213867Y0077056D01*
X0214121Y0077003D01*
X0214374Y0076943D01*
X0214625Y0076876D01*
X0214875Y0076804D01*
X0215123Y0076725D01*
X0215369Y0076641D01*
X0215612Y0076550D01*
X0215854Y0076454D01*
X0216093Y0076351D01*
X0216329Y0076243D01*
X0216563Y0076129D01*
X0216794Y0076009D01*
X0217021Y0075884D01*
X0217246Y0075753D01*
X0217467Y0075617D01*
X0217685Y0075475D01*
X0217900Y0075328D01*
X0218110Y0075175D01*
X0218317Y0075018D01*
X0218520Y0074855D01*
X0218719Y0074688D01*
X0218914Y0074516D01*
X0219104Y0074339D01*
X0219290Y0074157D01*
X0219472Y0073971D01*
X0219649Y0073781D01*
X0219821Y0073586D01*
X0219988Y0073387D01*
X0220151Y0073184D01*
X0220308Y0072977D01*
X0220461Y0072767D01*
X0220608Y0072552D01*
X0220750Y0072334D01*
X0220886Y0072113D01*
X0221017Y0071888D01*
X0221142Y0071661D01*
X0221262Y0071430D01*
X0221376Y0071196D01*
X0221484Y0070960D01*
X0221587Y0070721D01*
X0221683Y0070479D01*
X0221774Y0070236D01*
X0221858Y0069990D01*
X0221937Y0069742D01*
X0222009Y0069492D01*
X0222076Y0069241D01*
X0222136Y0068988D01*
X0222189Y0068734D01*
X0222237Y0068478D01*
X0222278Y0068221D01*
X0222313Y0067964D01*
X0222342Y0067705D01*
X0222364Y0067446D01*
X0222380Y0067187D01*
X0222390Y0066927D01*
X0222393Y0066667D01*
X0222390Y0066407D01*
X0222380Y0066147D01*
X0222364Y0065888D01*
X0222342Y0065629D01*
X0222313Y0065370D01*
X0222278Y0065113D01*
X0222237Y0064856D01*
X0222189Y0064600D01*
X0222136Y0064346D01*
X0222076Y0064093D01*
X0222009Y0063842D01*
X0221937Y0063592D01*
X0221858Y0063344D01*
X0221774Y0063098D01*
X0221683Y0062855D01*
X0221587Y0062613D01*
X0221484Y0062374D01*
X0221376Y0062138D01*
X0221262Y0061904D01*
X0221142Y0061673D01*
X0221017Y0061446D01*
X0220886Y0061221D01*
X0220750Y0061000D01*
X0220608Y0060782D01*
X0220461Y0060567D01*
X0220308Y0060357D01*
X0220151Y0060150D01*
X0219988Y0059947D01*
X0219821Y0059748D01*
X0219649Y0059553D01*
X0219472Y0059363D01*
X0219290Y0059177D01*
X0219104Y0058995D01*
X0218914Y0058818D01*
X0218719Y0058646D01*
X0218520Y0058479D01*
X0218317Y0058316D01*
X0218110Y0058159D01*
X0217900Y0058006D01*
X0217685Y0057859D01*
X0217467Y0057717D01*
X0217246Y0057581D01*
X0217021Y0057450D01*
X0216794Y0057325D01*
X0216563Y0057205D01*
X0216329Y0057091D01*
X0216093Y0056983D01*
X0215854Y0056880D01*
X0215612Y0056784D01*
X0215369Y0056693D01*
X0215123Y0056609D01*
X0214875Y0056530D01*
X0214625Y0056458D01*
X0214374Y0056391D01*
X0214121Y0056331D01*
X0213867Y0056278D01*
X0213611Y0056230D01*
X0213354Y0056189D01*
X0213097Y0056154D01*
X0212838Y0056125D01*
X0212579Y0056103D01*
X0212320Y0056087D01*
X0212060Y0056077D01*
X0211800Y0056074D01*
X0211540Y0056077D01*
X0211280Y0056087D01*
X0211021Y0056103D01*
X0210762Y0056125D01*
X0210503Y0056154D01*
X0210246Y0056189D01*
X0209989Y0056230D01*
X0209733Y0056278D01*
X0209479Y0056331D01*
X0209226Y0056391D01*
X0208975Y0056458D01*
X0208725Y0056530D01*
X0208477Y0056609D01*
X0208231Y0056693D01*
X0207988Y0056784D01*
X0207746Y0056880D01*
X0207507Y0056983D01*
X0207271Y0057091D01*
X0207037Y0057205D01*
X0206806Y0057325D01*
X0206579Y0057450D01*
X0206354Y0057581D01*
X0206133Y0057717D01*
X0205915Y0057859D01*
X0205700Y0058006D01*
X0205490Y0058159D01*
X0205283Y0058316D01*
X0205080Y0058479D01*
X0204881Y0058646D01*
X0204686Y0058818D01*
X0204496Y0058995D01*
X0204310Y0059177D01*
X0204128Y0059363D01*
X0203951Y0059553D01*
X0203779Y0059748D01*
X0203612Y0059947D01*
X0203449Y0060150D01*
X0203292Y0060357D01*
X0203139Y0060567D01*
X0202992Y0060782D01*
X0202850Y0061000D01*
X0202714Y0061221D01*
X0202583Y0061446D01*
X0202458Y0061673D01*
X0202338Y0061904D01*
X0202224Y0062138D01*
X0202116Y0062374D01*
X0202013Y0062613D01*
X0201917Y0062855D01*
X0201826Y0063098D01*
X0201742Y0063344D01*
X0201663Y0063592D01*
X0201591Y0063842D01*
X0201524Y0064093D01*
X0201464Y0064346D01*
X0201411Y0064600D01*
X0201363Y0064856D01*
X0201322Y0065113D01*
X0201287Y0065370D01*
X0201258Y0065629D01*
X0201236Y0065888D01*
X0201220Y0066147D01*
X0201210Y0066407D01*
X0201207Y0066667D01*
X0199350Y0066667D02*
X0199354Y0066973D01*
X0199365Y0067278D01*
X0199384Y0067583D01*
X0199410Y0067887D01*
X0199444Y0068191D01*
X0199485Y0068494D01*
X0199533Y0068795D01*
X0199589Y0069096D01*
X0199653Y0069395D01*
X0199723Y0069692D01*
X0199801Y0069988D01*
X0199886Y0070281D01*
X0199978Y0070572D01*
X0200078Y0070861D01*
X0200184Y0071148D01*
X0200298Y0071431D01*
X0200418Y0071712D01*
X0200545Y0071990D01*
X0200679Y0072265D01*
X0200820Y0072536D01*
X0200967Y0072804D01*
X0201121Y0073068D01*
X0201282Y0073328D01*
X0201448Y0073584D01*
X0201621Y0073836D01*
X0201800Y0074083D01*
X0201985Y0074327D01*
X0202176Y0074565D01*
X0202373Y0074799D01*
X0202575Y0075028D01*
X0202783Y0075252D01*
X0202997Y0075470D01*
X0203215Y0075684D01*
X0203439Y0075892D01*
X0203668Y0076094D01*
X0203902Y0076291D01*
X0204140Y0076482D01*
X0204384Y0076667D01*
X0204631Y0076846D01*
X0204883Y0077019D01*
X0205139Y0077185D01*
X0205399Y0077346D01*
X0205663Y0077500D01*
X0205931Y0077647D01*
X0206202Y0077788D01*
X0206477Y0077922D01*
X0206755Y0078049D01*
X0207036Y0078169D01*
X0207319Y0078283D01*
X0207606Y0078389D01*
X0207895Y0078489D01*
X0208186Y0078581D01*
X0208479Y0078666D01*
X0208775Y0078744D01*
X0209072Y0078814D01*
X0209371Y0078878D01*
X0209672Y0078934D01*
X0209973Y0078982D01*
X0210276Y0079023D01*
X0210580Y0079057D01*
X0210884Y0079083D01*
X0211189Y0079102D01*
X0211494Y0079113D01*
X0211800Y0079117D01*
X0212106Y0079113D01*
X0212411Y0079102D01*
X0212716Y0079083D01*
X0213020Y0079057D01*
X0213324Y0079023D01*
X0213627Y0078982D01*
X0213928Y0078934D01*
X0214229Y0078878D01*
X0214528Y0078814D01*
X0214825Y0078744D01*
X0215121Y0078666D01*
X0215414Y0078581D01*
X0215705Y0078489D01*
X0215994Y0078389D01*
X0216281Y0078283D01*
X0216564Y0078169D01*
X0216845Y0078049D01*
X0217123Y0077922D01*
X0217398Y0077788D01*
X0217669Y0077647D01*
X0217937Y0077500D01*
X0218201Y0077346D01*
X0218461Y0077185D01*
X0218717Y0077019D01*
X0218969Y0076846D01*
X0219216Y0076667D01*
X0219460Y0076482D01*
X0219698Y0076291D01*
X0219932Y0076094D01*
X0220161Y0075892D01*
X0220385Y0075684D01*
X0220603Y0075470D01*
X0220817Y0075252D01*
X0221025Y0075028D01*
X0221227Y0074799D01*
X0221424Y0074565D01*
X0221615Y0074327D01*
X0221800Y0074083D01*
X0221979Y0073836D01*
X0222152Y0073584D01*
X0222318Y0073328D01*
X0222479Y0073068D01*
X0222633Y0072804D01*
X0222780Y0072536D01*
X0222921Y0072265D01*
X0223055Y0071990D01*
X0223182Y0071712D01*
X0223302Y0071431D01*
X0223416Y0071148D01*
X0223522Y0070861D01*
X0223622Y0070572D01*
X0223714Y0070281D01*
X0223799Y0069988D01*
X0223877Y0069692D01*
X0223947Y0069395D01*
X0224011Y0069096D01*
X0224067Y0068795D01*
X0224115Y0068494D01*
X0224156Y0068191D01*
X0224190Y0067887D01*
X0224216Y0067583D01*
X0224235Y0067278D01*
X0224246Y0066973D01*
X0224250Y0066667D01*
X0224246Y0066361D01*
X0224235Y0066056D01*
X0224216Y0065751D01*
X0224190Y0065447D01*
X0224156Y0065143D01*
X0224115Y0064840D01*
X0224067Y0064539D01*
X0224011Y0064238D01*
X0223947Y0063939D01*
X0223877Y0063642D01*
X0223799Y0063346D01*
X0223714Y0063053D01*
X0223622Y0062762D01*
X0223522Y0062473D01*
X0223416Y0062186D01*
X0223302Y0061903D01*
X0223182Y0061622D01*
X0223055Y0061344D01*
X0222921Y0061069D01*
X0222780Y0060798D01*
X0222633Y0060530D01*
X0222479Y0060266D01*
X0222318Y0060006D01*
X0222152Y0059750D01*
X0221979Y0059498D01*
X0221800Y0059251D01*
X0221615Y0059007D01*
X0221424Y0058769D01*
X0221227Y0058535D01*
X0221025Y0058306D01*
X0220817Y0058082D01*
X0220603Y0057864D01*
X0220385Y0057650D01*
X0220161Y0057442D01*
X0219932Y0057240D01*
X0219698Y0057043D01*
X0219460Y0056852D01*
X0219216Y0056667D01*
X0218969Y0056488D01*
X0218717Y0056315D01*
X0218461Y0056149D01*
X0218201Y0055988D01*
X0217937Y0055834D01*
X0217669Y0055687D01*
X0217398Y0055546D01*
X0217123Y0055412D01*
X0216845Y0055285D01*
X0216564Y0055165D01*
X0216281Y0055051D01*
X0215994Y0054945D01*
X0215705Y0054845D01*
X0215414Y0054753D01*
X0215121Y0054668D01*
X0214825Y0054590D01*
X0214528Y0054520D01*
X0214229Y0054456D01*
X0213928Y0054400D01*
X0213627Y0054352D01*
X0213324Y0054311D01*
X0213020Y0054277D01*
X0212716Y0054251D01*
X0212411Y0054232D01*
X0212106Y0054221D01*
X0211800Y0054217D01*
X0211494Y0054221D01*
X0211189Y0054232D01*
X0210884Y0054251D01*
X0210580Y0054277D01*
X0210276Y0054311D01*
X0209973Y0054352D01*
X0209672Y0054400D01*
X0209371Y0054456D01*
X0209072Y0054520D01*
X0208775Y0054590D01*
X0208479Y0054668D01*
X0208186Y0054753D01*
X0207895Y0054845D01*
X0207606Y0054945D01*
X0207319Y0055051D01*
X0207036Y0055165D01*
X0206755Y0055285D01*
X0206477Y0055412D01*
X0206202Y0055546D01*
X0205931Y0055687D01*
X0205663Y0055834D01*
X0205399Y0055988D01*
X0205139Y0056149D01*
X0204883Y0056315D01*
X0204631Y0056488D01*
X0204384Y0056667D01*
X0204140Y0056852D01*
X0203902Y0057043D01*
X0203668Y0057240D01*
X0203439Y0057442D01*
X0203215Y0057650D01*
X0202997Y0057864D01*
X0202783Y0058082D01*
X0202575Y0058306D01*
X0202373Y0058535D01*
X0202176Y0058769D01*
X0201985Y0059007D01*
X0201800Y0059251D01*
X0201621Y0059498D01*
X0201448Y0059750D01*
X0201282Y0060006D01*
X0201121Y0060266D01*
X0200967Y0060530D01*
X0200820Y0060798D01*
X0200679Y0061069D01*
X0200545Y0061344D01*
X0200418Y0061622D01*
X0200298Y0061903D01*
X0200184Y0062186D01*
X0200078Y0062473D01*
X0199978Y0062762D01*
X0199886Y0063053D01*
X0199801Y0063346D01*
X0199723Y0063642D01*
X0199653Y0063939D01*
X0199589Y0064238D01*
X0199533Y0064539D01*
X0199485Y0064840D01*
X0199444Y0065143D01*
X0199410Y0065447D01*
X0199384Y0065751D01*
X0199365Y0066056D01*
X0199354Y0066361D01*
X0199350Y0066667D01*
X0188178Y0060761D02*
X0188178Y0048950D01*
X0248178Y0048950D02*
X0289517Y0048950D01*
X0289517Y0067454D01*
X0298178Y0067454D01*
X0298178Y0065879D01*
X0289910Y0065879D01*
X0289517Y0067454D02*
X0289517Y0084383D01*
X0248178Y0084383D01*
X0248178Y0072572D01*
X0256052Y0072572D01*
X0256052Y0060761D01*
X0248178Y0060761D01*
X0248178Y0072572D01*
X0261207Y0066667D02*
X0261210Y0066927D01*
X0261220Y0067187D01*
X0261236Y0067446D01*
X0261258Y0067705D01*
X0261287Y0067964D01*
X0261322Y0068221D01*
X0261363Y0068478D01*
X0261411Y0068734D01*
X0261464Y0068988D01*
X0261524Y0069241D01*
X0261591Y0069492D01*
X0261663Y0069742D01*
X0261742Y0069990D01*
X0261826Y0070236D01*
X0261917Y0070479D01*
X0262013Y0070721D01*
X0262116Y0070960D01*
X0262224Y0071196D01*
X0262338Y0071430D01*
X0262458Y0071661D01*
X0262583Y0071888D01*
X0262714Y0072113D01*
X0262850Y0072334D01*
X0262992Y0072552D01*
X0263139Y0072767D01*
X0263292Y0072977D01*
X0263449Y0073184D01*
X0263612Y0073387D01*
X0263779Y0073586D01*
X0263951Y0073781D01*
X0264128Y0073971D01*
X0264310Y0074157D01*
X0264496Y0074339D01*
X0264686Y0074516D01*
X0264881Y0074688D01*
X0265080Y0074855D01*
X0265283Y0075018D01*
X0265490Y0075175D01*
X0265700Y0075328D01*
X0265915Y0075475D01*
X0266133Y0075617D01*
X0266354Y0075753D01*
X0266579Y0075884D01*
X0266806Y0076009D01*
X0267037Y0076129D01*
X0267271Y0076243D01*
X0267507Y0076351D01*
X0267746Y0076454D01*
X0267988Y0076550D01*
X0268231Y0076641D01*
X0268477Y0076725D01*
X0268725Y0076804D01*
X0268975Y0076876D01*
X0269226Y0076943D01*
X0269479Y0077003D01*
X0269733Y0077056D01*
X0269989Y0077104D01*
X0270246Y0077145D01*
X0270503Y0077180D01*
X0270762Y0077209D01*
X0271021Y0077231D01*
X0271280Y0077247D01*
X0271540Y0077257D01*
X0271800Y0077260D01*
X0272060Y0077257D01*
X0272320Y0077247D01*
X0272579Y0077231D01*
X0272838Y0077209D01*
X0273097Y0077180D01*
X0273354Y0077145D01*
X0273611Y0077104D01*
X0273867Y0077056D01*
X0274121Y0077003D01*
X0274374Y0076943D01*
X0274625Y0076876D01*
X0274875Y0076804D01*
X0275123Y0076725D01*
X0275369Y0076641D01*
X0275612Y0076550D01*
X0275854Y0076454D01*
X0276093Y0076351D01*
X0276329Y0076243D01*
X0276563Y0076129D01*
X0276794Y0076009D01*
X0277021Y0075884D01*
X0277246Y0075753D01*
X0277467Y0075617D01*
X0277685Y0075475D01*
X0277900Y0075328D01*
X0278110Y0075175D01*
X0278317Y0075018D01*
X0278520Y0074855D01*
X0278719Y0074688D01*
X0278914Y0074516D01*
X0279104Y0074339D01*
X0279290Y0074157D01*
X0279472Y0073971D01*
X0279649Y0073781D01*
X0279821Y0073586D01*
X0279988Y0073387D01*
X0280151Y0073184D01*
X0280308Y0072977D01*
X0280461Y0072767D01*
X0280608Y0072552D01*
X0280750Y0072334D01*
X0280886Y0072113D01*
X0281017Y0071888D01*
X0281142Y0071661D01*
X0281262Y0071430D01*
X0281376Y0071196D01*
X0281484Y0070960D01*
X0281587Y0070721D01*
X0281683Y0070479D01*
X0281774Y0070236D01*
X0281858Y0069990D01*
X0281937Y0069742D01*
X0282009Y0069492D01*
X0282076Y0069241D01*
X0282136Y0068988D01*
X0282189Y0068734D01*
X0282237Y0068478D01*
X0282278Y0068221D01*
X0282313Y0067964D01*
X0282342Y0067705D01*
X0282364Y0067446D01*
X0282380Y0067187D01*
X0282390Y0066927D01*
X0282393Y0066667D01*
X0282390Y0066407D01*
X0282380Y0066147D01*
X0282364Y0065888D01*
X0282342Y0065629D01*
X0282313Y0065370D01*
X0282278Y0065113D01*
X0282237Y0064856D01*
X0282189Y0064600D01*
X0282136Y0064346D01*
X0282076Y0064093D01*
X0282009Y0063842D01*
X0281937Y0063592D01*
X0281858Y0063344D01*
X0281774Y0063098D01*
X0281683Y0062855D01*
X0281587Y0062613D01*
X0281484Y0062374D01*
X0281376Y0062138D01*
X0281262Y0061904D01*
X0281142Y0061673D01*
X0281017Y0061446D01*
X0280886Y0061221D01*
X0280750Y0061000D01*
X0280608Y0060782D01*
X0280461Y0060567D01*
X0280308Y0060357D01*
X0280151Y0060150D01*
X0279988Y0059947D01*
X0279821Y0059748D01*
X0279649Y0059553D01*
X0279472Y0059363D01*
X0279290Y0059177D01*
X0279104Y0058995D01*
X0278914Y0058818D01*
X0278719Y0058646D01*
X0278520Y0058479D01*
X0278317Y0058316D01*
X0278110Y0058159D01*
X0277900Y0058006D01*
X0277685Y0057859D01*
X0277467Y0057717D01*
X0277246Y0057581D01*
X0277021Y0057450D01*
X0276794Y0057325D01*
X0276563Y0057205D01*
X0276329Y0057091D01*
X0276093Y0056983D01*
X0275854Y0056880D01*
X0275612Y0056784D01*
X0275369Y0056693D01*
X0275123Y0056609D01*
X0274875Y0056530D01*
X0274625Y0056458D01*
X0274374Y0056391D01*
X0274121Y0056331D01*
X0273867Y0056278D01*
X0273611Y0056230D01*
X0273354Y0056189D01*
X0273097Y0056154D01*
X0272838Y0056125D01*
X0272579Y0056103D01*
X0272320Y0056087D01*
X0272060Y0056077D01*
X0271800Y0056074D01*
X0271540Y0056077D01*
X0271280Y0056087D01*
X0271021Y0056103D01*
X0270762Y0056125D01*
X0270503Y0056154D01*
X0270246Y0056189D01*
X0269989Y0056230D01*
X0269733Y0056278D01*
X0269479Y0056331D01*
X0269226Y0056391D01*
X0268975Y0056458D01*
X0268725Y0056530D01*
X0268477Y0056609D01*
X0268231Y0056693D01*
X0267988Y0056784D01*
X0267746Y0056880D01*
X0267507Y0056983D01*
X0267271Y0057091D01*
X0267037Y0057205D01*
X0266806Y0057325D01*
X0266579Y0057450D01*
X0266354Y0057581D01*
X0266133Y0057717D01*
X0265915Y0057859D01*
X0265700Y0058006D01*
X0265490Y0058159D01*
X0265283Y0058316D01*
X0265080Y0058479D01*
X0264881Y0058646D01*
X0264686Y0058818D01*
X0264496Y0058995D01*
X0264310Y0059177D01*
X0264128Y0059363D01*
X0263951Y0059553D01*
X0263779Y0059748D01*
X0263612Y0059947D01*
X0263449Y0060150D01*
X0263292Y0060357D01*
X0263139Y0060567D01*
X0262992Y0060782D01*
X0262850Y0061000D01*
X0262714Y0061221D01*
X0262583Y0061446D01*
X0262458Y0061673D01*
X0262338Y0061904D01*
X0262224Y0062138D01*
X0262116Y0062374D01*
X0262013Y0062613D01*
X0261917Y0062855D01*
X0261826Y0063098D01*
X0261742Y0063344D01*
X0261663Y0063592D01*
X0261591Y0063842D01*
X0261524Y0064093D01*
X0261464Y0064346D01*
X0261411Y0064600D01*
X0261363Y0064856D01*
X0261322Y0065113D01*
X0261287Y0065370D01*
X0261258Y0065629D01*
X0261236Y0065888D01*
X0261220Y0066147D01*
X0261210Y0066407D01*
X0261207Y0066667D01*
X0259350Y0066667D02*
X0259354Y0066973D01*
X0259365Y0067278D01*
X0259384Y0067583D01*
X0259410Y0067887D01*
X0259444Y0068191D01*
X0259485Y0068494D01*
X0259533Y0068795D01*
X0259589Y0069096D01*
X0259653Y0069395D01*
X0259723Y0069692D01*
X0259801Y0069988D01*
X0259886Y0070281D01*
X0259978Y0070572D01*
X0260078Y0070861D01*
X0260184Y0071148D01*
X0260298Y0071431D01*
X0260418Y0071712D01*
X0260545Y0071990D01*
X0260679Y0072265D01*
X0260820Y0072536D01*
X0260967Y0072804D01*
X0261121Y0073068D01*
X0261282Y0073328D01*
X0261448Y0073584D01*
X0261621Y0073836D01*
X0261800Y0074083D01*
X0261985Y0074327D01*
X0262176Y0074565D01*
X0262373Y0074799D01*
X0262575Y0075028D01*
X0262783Y0075252D01*
X0262997Y0075470D01*
X0263215Y0075684D01*
X0263439Y0075892D01*
X0263668Y0076094D01*
X0263902Y0076291D01*
X0264140Y0076482D01*
X0264384Y0076667D01*
X0264631Y0076846D01*
X0264883Y0077019D01*
X0265139Y0077185D01*
X0265399Y0077346D01*
X0265663Y0077500D01*
X0265931Y0077647D01*
X0266202Y0077788D01*
X0266477Y0077922D01*
X0266755Y0078049D01*
X0267036Y0078169D01*
X0267319Y0078283D01*
X0267606Y0078389D01*
X0267895Y0078489D01*
X0268186Y0078581D01*
X0268479Y0078666D01*
X0268775Y0078744D01*
X0269072Y0078814D01*
X0269371Y0078878D01*
X0269672Y0078934D01*
X0269973Y0078982D01*
X0270276Y0079023D01*
X0270580Y0079057D01*
X0270884Y0079083D01*
X0271189Y0079102D01*
X0271494Y0079113D01*
X0271800Y0079117D01*
X0272106Y0079113D01*
X0272411Y0079102D01*
X0272716Y0079083D01*
X0273020Y0079057D01*
X0273324Y0079023D01*
X0273627Y0078982D01*
X0273928Y0078934D01*
X0274229Y0078878D01*
X0274528Y0078814D01*
X0274825Y0078744D01*
X0275121Y0078666D01*
X0275414Y0078581D01*
X0275705Y0078489D01*
X0275994Y0078389D01*
X0276281Y0078283D01*
X0276564Y0078169D01*
X0276845Y0078049D01*
X0277123Y0077922D01*
X0277398Y0077788D01*
X0277669Y0077647D01*
X0277937Y0077500D01*
X0278201Y0077346D01*
X0278461Y0077185D01*
X0278717Y0077019D01*
X0278969Y0076846D01*
X0279216Y0076667D01*
X0279460Y0076482D01*
X0279698Y0076291D01*
X0279932Y0076094D01*
X0280161Y0075892D01*
X0280385Y0075684D01*
X0280603Y0075470D01*
X0280817Y0075252D01*
X0281025Y0075028D01*
X0281227Y0074799D01*
X0281424Y0074565D01*
X0281615Y0074327D01*
X0281800Y0074083D01*
X0281979Y0073836D01*
X0282152Y0073584D01*
X0282318Y0073328D01*
X0282479Y0073068D01*
X0282633Y0072804D01*
X0282780Y0072536D01*
X0282921Y0072265D01*
X0283055Y0071990D01*
X0283182Y0071712D01*
X0283302Y0071431D01*
X0283416Y0071148D01*
X0283522Y0070861D01*
X0283622Y0070572D01*
X0283714Y0070281D01*
X0283799Y0069988D01*
X0283877Y0069692D01*
X0283947Y0069395D01*
X0284011Y0069096D01*
X0284067Y0068795D01*
X0284115Y0068494D01*
X0284156Y0068191D01*
X0284190Y0067887D01*
X0284216Y0067583D01*
X0284235Y0067278D01*
X0284246Y0066973D01*
X0284250Y0066667D01*
X0284246Y0066361D01*
X0284235Y0066056D01*
X0284216Y0065751D01*
X0284190Y0065447D01*
X0284156Y0065143D01*
X0284115Y0064840D01*
X0284067Y0064539D01*
X0284011Y0064238D01*
X0283947Y0063939D01*
X0283877Y0063642D01*
X0283799Y0063346D01*
X0283714Y0063053D01*
X0283622Y0062762D01*
X0283522Y0062473D01*
X0283416Y0062186D01*
X0283302Y0061903D01*
X0283182Y0061622D01*
X0283055Y0061344D01*
X0282921Y0061069D01*
X0282780Y0060798D01*
X0282633Y0060530D01*
X0282479Y0060266D01*
X0282318Y0060006D01*
X0282152Y0059750D01*
X0281979Y0059498D01*
X0281800Y0059251D01*
X0281615Y0059007D01*
X0281424Y0058769D01*
X0281227Y0058535D01*
X0281025Y0058306D01*
X0280817Y0058082D01*
X0280603Y0057864D01*
X0280385Y0057650D01*
X0280161Y0057442D01*
X0279932Y0057240D01*
X0279698Y0057043D01*
X0279460Y0056852D01*
X0279216Y0056667D01*
X0278969Y0056488D01*
X0278717Y0056315D01*
X0278461Y0056149D01*
X0278201Y0055988D01*
X0277937Y0055834D01*
X0277669Y0055687D01*
X0277398Y0055546D01*
X0277123Y0055412D01*
X0276845Y0055285D01*
X0276564Y0055165D01*
X0276281Y0055051D01*
X0275994Y0054945D01*
X0275705Y0054845D01*
X0275414Y0054753D01*
X0275121Y0054668D01*
X0274825Y0054590D01*
X0274528Y0054520D01*
X0274229Y0054456D01*
X0273928Y0054400D01*
X0273627Y0054352D01*
X0273324Y0054311D01*
X0273020Y0054277D01*
X0272716Y0054251D01*
X0272411Y0054232D01*
X0272106Y0054221D01*
X0271800Y0054217D01*
X0271494Y0054221D01*
X0271189Y0054232D01*
X0270884Y0054251D01*
X0270580Y0054277D01*
X0270276Y0054311D01*
X0269973Y0054352D01*
X0269672Y0054400D01*
X0269371Y0054456D01*
X0269072Y0054520D01*
X0268775Y0054590D01*
X0268479Y0054668D01*
X0268186Y0054753D01*
X0267895Y0054845D01*
X0267606Y0054945D01*
X0267319Y0055051D01*
X0267036Y0055165D01*
X0266755Y0055285D01*
X0266477Y0055412D01*
X0266202Y0055546D01*
X0265931Y0055687D01*
X0265663Y0055834D01*
X0265399Y0055988D01*
X0265139Y0056149D01*
X0264883Y0056315D01*
X0264631Y0056488D01*
X0264384Y0056667D01*
X0264140Y0056852D01*
X0263902Y0057043D01*
X0263668Y0057240D01*
X0263439Y0057442D01*
X0263215Y0057650D01*
X0262997Y0057864D01*
X0262783Y0058082D01*
X0262575Y0058306D01*
X0262373Y0058535D01*
X0262176Y0058769D01*
X0261985Y0059007D01*
X0261800Y0059251D01*
X0261621Y0059498D01*
X0261448Y0059750D01*
X0261282Y0060006D01*
X0261121Y0060266D01*
X0260967Y0060530D01*
X0260820Y0060798D01*
X0260679Y0061069D01*
X0260545Y0061344D01*
X0260418Y0061622D01*
X0260298Y0061903D01*
X0260184Y0062186D01*
X0260078Y0062473D01*
X0259978Y0062762D01*
X0259886Y0063053D01*
X0259801Y0063346D01*
X0259723Y0063642D01*
X0259653Y0063939D01*
X0259589Y0064238D01*
X0259533Y0064539D01*
X0259485Y0064840D01*
X0259444Y0065143D01*
X0259410Y0065447D01*
X0259384Y0065751D01*
X0259365Y0066056D01*
X0259354Y0066361D01*
X0259350Y0066667D01*
X0248178Y0060761D02*
X0248178Y0048950D01*
X0280678Y0046883D02*
X0322017Y0046883D01*
X0322017Y0029954D01*
X0330678Y0029954D01*
X0330678Y0028379D01*
X0322410Y0028379D01*
X0322017Y0029954D02*
X0322017Y0011450D01*
X0280678Y0011450D01*
X0280678Y0023261D01*
X0288552Y0023261D01*
X0288552Y0035072D01*
X0280678Y0035072D01*
X0280678Y0046883D01*
X0308178Y0048950D02*
X0349517Y0048950D01*
X0349517Y0067454D01*
X0358178Y0067454D01*
X0358178Y0065879D01*
X0349910Y0065879D01*
X0349517Y0067454D02*
X0349517Y0084383D01*
X0308178Y0084383D01*
X0308178Y0072572D01*
X0316052Y0072572D01*
X0316052Y0060761D01*
X0308178Y0060761D01*
X0308178Y0072572D01*
X0321207Y0066667D02*
X0321210Y0066927D01*
X0321220Y0067187D01*
X0321236Y0067446D01*
X0321258Y0067705D01*
X0321287Y0067964D01*
X0321322Y0068221D01*
X0321363Y0068478D01*
X0321411Y0068734D01*
X0321464Y0068988D01*
X0321524Y0069241D01*
X0321591Y0069492D01*
X0321663Y0069742D01*
X0321742Y0069990D01*
X0321826Y0070236D01*
X0321917Y0070479D01*
X0322013Y0070721D01*
X0322116Y0070960D01*
X0322224Y0071196D01*
X0322338Y0071430D01*
X0322458Y0071661D01*
X0322583Y0071888D01*
X0322714Y0072113D01*
X0322850Y0072334D01*
X0322992Y0072552D01*
X0323139Y0072767D01*
X0323292Y0072977D01*
X0323449Y0073184D01*
X0323612Y0073387D01*
X0323779Y0073586D01*
X0323951Y0073781D01*
X0324128Y0073971D01*
X0324310Y0074157D01*
X0324496Y0074339D01*
X0324686Y0074516D01*
X0324881Y0074688D01*
X0325080Y0074855D01*
X0325283Y0075018D01*
X0325490Y0075175D01*
X0325700Y0075328D01*
X0325915Y0075475D01*
X0326133Y0075617D01*
X0326354Y0075753D01*
X0326579Y0075884D01*
X0326806Y0076009D01*
X0327037Y0076129D01*
X0327271Y0076243D01*
X0327507Y0076351D01*
X0327746Y0076454D01*
X0327988Y0076550D01*
X0328231Y0076641D01*
X0328477Y0076725D01*
X0328725Y0076804D01*
X0328975Y0076876D01*
X0329226Y0076943D01*
X0329479Y0077003D01*
X0329733Y0077056D01*
X0329989Y0077104D01*
X0330246Y0077145D01*
X0330503Y0077180D01*
X0330762Y0077209D01*
X0331021Y0077231D01*
X0331280Y0077247D01*
X0331540Y0077257D01*
X0331800Y0077260D01*
X0332060Y0077257D01*
X0332320Y0077247D01*
X0332579Y0077231D01*
X0332838Y0077209D01*
X0333097Y0077180D01*
X0333354Y0077145D01*
X0333611Y0077104D01*
X0333867Y0077056D01*
X0334121Y0077003D01*
X0334374Y0076943D01*
X0334625Y0076876D01*
X0334875Y0076804D01*
X0335123Y0076725D01*
X0335369Y0076641D01*
X0335612Y0076550D01*
X0335854Y0076454D01*
X0336093Y0076351D01*
X0336329Y0076243D01*
X0336563Y0076129D01*
X0336794Y0076009D01*
X0337021Y0075884D01*
X0337246Y0075753D01*
X0337467Y0075617D01*
X0337685Y0075475D01*
X0337900Y0075328D01*
X0338110Y0075175D01*
X0338317Y0075018D01*
X0338520Y0074855D01*
X0338719Y0074688D01*
X0338914Y0074516D01*
X0339104Y0074339D01*
X0339290Y0074157D01*
X0339472Y0073971D01*
X0339649Y0073781D01*
X0339821Y0073586D01*
X0339988Y0073387D01*
X0340151Y0073184D01*
X0340308Y0072977D01*
X0340461Y0072767D01*
X0340608Y0072552D01*
X0340750Y0072334D01*
X0340886Y0072113D01*
X0341017Y0071888D01*
X0341142Y0071661D01*
X0341262Y0071430D01*
X0341376Y0071196D01*
X0341484Y0070960D01*
X0341587Y0070721D01*
X0341683Y0070479D01*
X0341774Y0070236D01*
X0341858Y0069990D01*
X0341937Y0069742D01*
X0342009Y0069492D01*
X0342076Y0069241D01*
X0342136Y0068988D01*
X0342189Y0068734D01*
X0342237Y0068478D01*
X0342278Y0068221D01*
X0342313Y0067964D01*
X0342342Y0067705D01*
X0342364Y0067446D01*
X0342380Y0067187D01*
X0342390Y0066927D01*
X0342393Y0066667D01*
X0342390Y0066407D01*
X0342380Y0066147D01*
X0342364Y0065888D01*
X0342342Y0065629D01*
X0342313Y0065370D01*
X0342278Y0065113D01*
X0342237Y0064856D01*
X0342189Y0064600D01*
X0342136Y0064346D01*
X0342076Y0064093D01*
X0342009Y0063842D01*
X0341937Y0063592D01*
X0341858Y0063344D01*
X0341774Y0063098D01*
X0341683Y0062855D01*
X0341587Y0062613D01*
X0341484Y0062374D01*
X0341376Y0062138D01*
X0341262Y0061904D01*
X0341142Y0061673D01*
X0341017Y0061446D01*
X0340886Y0061221D01*
X0340750Y0061000D01*
X0340608Y0060782D01*
X0340461Y0060567D01*
X0340308Y0060357D01*
X0340151Y0060150D01*
X0339988Y0059947D01*
X0339821Y0059748D01*
X0339649Y0059553D01*
X0339472Y0059363D01*
X0339290Y0059177D01*
X0339104Y0058995D01*
X0338914Y0058818D01*
X0338719Y0058646D01*
X0338520Y0058479D01*
X0338317Y0058316D01*
X0338110Y0058159D01*
X0337900Y0058006D01*
X0337685Y0057859D01*
X0337467Y0057717D01*
X0337246Y0057581D01*
X0337021Y0057450D01*
X0336794Y0057325D01*
X0336563Y0057205D01*
X0336329Y0057091D01*
X0336093Y0056983D01*
X0335854Y0056880D01*
X0335612Y0056784D01*
X0335369Y0056693D01*
X0335123Y0056609D01*
X0334875Y0056530D01*
X0334625Y0056458D01*
X0334374Y0056391D01*
X0334121Y0056331D01*
X0333867Y0056278D01*
X0333611Y0056230D01*
X0333354Y0056189D01*
X0333097Y0056154D01*
X0332838Y0056125D01*
X0332579Y0056103D01*
X0332320Y0056087D01*
X0332060Y0056077D01*
X0331800Y0056074D01*
X0331540Y0056077D01*
X0331280Y0056087D01*
X0331021Y0056103D01*
X0330762Y0056125D01*
X0330503Y0056154D01*
X0330246Y0056189D01*
X0329989Y0056230D01*
X0329733Y0056278D01*
X0329479Y0056331D01*
X0329226Y0056391D01*
X0328975Y0056458D01*
X0328725Y0056530D01*
X0328477Y0056609D01*
X0328231Y0056693D01*
X0327988Y0056784D01*
X0327746Y0056880D01*
X0327507Y0056983D01*
X0327271Y0057091D01*
X0327037Y0057205D01*
X0326806Y0057325D01*
X0326579Y0057450D01*
X0326354Y0057581D01*
X0326133Y0057717D01*
X0325915Y0057859D01*
X0325700Y0058006D01*
X0325490Y0058159D01*
X0325283Y0058316D01*
X0325080Y0058479D01*
X0324881Y0058646D01*
X0324686Y0058818D01*
X0324496Y0058995D01*
X0324310Y0059177D01*
X0324128Y0059363D01*
X0323951Y0059553D01*
X0323779Y0059748D01*
X0323612Y0059947D01*
X0323449Y0060150D01*
X0323292Y0060357D01*
X0323139Y0060567D01*
X0322992Y0060782D01*
X0322850Y0061000D01*
X0322714Y0061221D01*
X0322583Y0061446D01*
X0322458Y0061673D01*
X0322338Y0061904D01*
X0322224Y0062138D01*
X0322116Y0062374D01*
X0322013Y0062613D01*
X0321917Y0062855D01*
X0321826Y0063098D01*
X0321742Y0063344D01*
X0321663Y0063592D01*
X0321591Y0063842D01*
X0321524Y0064093D01*
X0321464Y0064346D01*
X0321411Y0064600D01*
X0321363Y0064856D01*
X0321322Y0065113D01*
X0321287Y0065370D01*
X0321258Y0065629D01*
X0321236Y0065888D01*
X0321220Y0066147D01*
X0321210Y0066407D01*
X0321207Y0066667D01*
X0319350Y0066667D02*
X0319354Y0066973D01*
X0319365Y0067278D01*
X0319384Y0067583D01*
X0319410Y0067887D01*
X0319444Y0068191D01*
X0319485Y0068494D01*
X0319533Y0068795D01*
X0319589Y0069096D01*
X0319653Y0069395D01*
X0319723Y0069692D01*
X0319801Y0069988D01*
X0319886Y0070281D01*
X0319978Y0070572D01*
X0320078Y0070861D01*
X0320184Y0071148D01*
X0320298Y0071431D01*
X0320418Y0071712D01*
X0320545Y0071990D01*
X0320679Y0072265D01*
X0320820Y0072536D01*
X0320967Y0072804D01*
X0321121Y0073068D01*
X0321282Y0073328D01*
X0321448Y0073584D01*
X0321621Y0073836D01*
X0321800Y0074083D01*
X0321985Y0074327D01*
X0322176Y0074565D01*
X0322373Y0074799D01*
X0322575Y0075028D01*
X0322783Y0075252D01*
X0322997Y0075470D01*
X0323215Y0075684D01*
X0323439Y0075892D01*
X0323668Y0076094D01*
X0323902Y0076291D01*
X0324140Y0076482D01*
X0324384Y0076667D01*
X0324631Y0076846D01*
X0324883Y0077019D01*
X0325139Y0077185D01*
X0325399Y0077346D01*
X0325663Y0077500D01*
X0325931Y0077647D01*
X0326202Y0077788D01*
X0326477Y0077922D01*
X0326755Y0078049D01*
X0327036Y0078169D01*
X0327319Y0078283D01*
X0327606Y0078389D01*
X0327895Y0078489D01*
X0328186Y0078581D01*
X0328479Y0078666D01*
X0328775Y0078744D01*
X0329072Y0078814D01*
X0329371Y0078878D01*
X0329672Y0078934D01*
X0329973Y0078982D01*
X0330276Y0079023D01*
X0330580Y0079057D01*
X0330884Y0079083D01*
X0331189Y0079102D01*
X0331494Y0079113D01*
X0331800Y0079117D01*
X0332106Y0079113D01*
X0332411Y0079102D01*
X0332716Y0079083D01*
X0333020Y0079057D01*
X0333324Y0079023D01*
X0333627Y0078982D01*
X0333928Y0078934D01*
X0334229Y0078878D01*
X0334528Y0078814D01*
X0334825Y0078744D01*
X0335121Y0078666D01*
X0335414Y0078581D01*
X0335705Y0078489D01*
X0335994Y0078389D01*
X0336281Y0078283D01*
X0336564Y0078169D01*
X0336845Y0078049D01*
X0337123Y0077922D01*
X0337398Y0077788D01*
X0337669Y0077647D01*
X0337937Y0077500D01*
X0338201Y0077346D01*
X0338461Y0077185D01*
X0338717Y0077019D01*
X0338969Y0076846D01*
X0339216Y0076667D01*
X0339460Y0076482D01*
X0339698Y0076291D01*
X0339932Y0076094D01*
X0340161Y0075892D01*
X0340385Y0075684D01*
X0340603Y0075470D01*
X0340817Y0075252D01*
X0341025Y0075028D01*
X0341227Y0074799D01*
X0341424Y0074565D01*
X0341615Y0074327D01*
X0341800Y0074083D01*
X0341979Y0073836D01*
X0342152Y0073584D01*
X0342318Y0073328D01*
X0342479Y0073068D01*
X0342633Y0072804D01*
X0342780Y0072536D01*
X0342921Y0072265D01*
X0343055Y0071990D01*
X0343182Y0071712D01*
X0343302Y0071431D01*
X0343416Y0071148D01*
X0343522Y0070861D01*
X0343622Y0070572D01*
X0343714Y0070281D01*
X0343799Y0069988D01*
X0343877Y0069692D01*
X0343947Y0069395D01*
X0344011Y0069096D01*
X0344067Y0068795D01*
X0344115Y0068494D01*
X0344156Y0068191D01*
X0344190Y0067887D01*
X0344216Y0067583D01*
X0344235Y0067278D01*
X0344246Y0066973D01*
X0344250Y0066667D01*
X0344246Y0066361D01*
X0344235Y0066056D01*
X0344216Y0065751D01*
X0344190Y0065447D01*
X0344156Y0065143D01*
X0344115Y0064840D01*
X0344067Y0064539D01*
X0344011Y0064238D01*
X0343947Y0063939D01*
X0343877Y0063642D01*
X0343799Y0063346D01*
X0343714Y0063053D01*
X0343622Y0062762D01*
X0343522Y0062473D01*
X0343416Y0062186D01*
X0343302Y0061903D01*
X0343182Y0061622D01*
X0343055Y0061344D01*
X0342921Y0061069D01*
X0342780Y0060798D01*
X0342633Y0060530D01*
X0342479Y0060266D01*
X0342318Y0060006D01*
X0342152Y0059750D01*
X0341979Y0059498D01*
X0341800Y0059251D01*
X0341615Y0059007D01*
X0341424Y0058769D01*
X0341227Y0058535D01*
X0341025Y0058306D01*
X0340817Y0058082D01*
X0340603Y0057864D01*
X0340385Y0057650D01*
X0340161Y0057442D01*
X0339932Y0057240D01*
X0339698Y0057043D01*
X0339460Y0056852D01*
X0339216Y0056667D01*
X0338969Y0056488D01*
X0338717Y0056315D01*
X0338461Y0056149D01*
X0338201Y0055988D01*
X0337937Y0055834D01*
X0337669Y0055687D01*
X0337398Y0055546D01*
X0337123Y0055412D01*
X0336845Y0055285D01*
X0336564Y0055165D01*
X0336281Y0055051D01*
X0335994Y0054945D01*
X0335705Y0054845D01*
X0335414Y0054753D01*
X0335121Y0054668D01*
X0334825Y0054590D01*
X0334528Y0054520D01*
X0334229Y0054456D01*
X0333928Y0054400D01*
X0333627Y0054352D01*
X0333324Y0054311D01*
X0333020Y0054277D01*
X0332716Y0054251D01*
X0332411Y0054232D01*
X0332106Y0054221D01*
X0331800Y0054217D01*
X0331494Y0054221D01*
X0331189Y0054232D01*
X0330884Y0054251D01*
X0330580Y0054277D01*
X0330276Y0054311D01*
X0329973Y0054352D01*
X0329672Y0054400D01*
X0329371Y0054456D01*
X0329072Y0054520D01*
X0328775Y0054590D01*
X0328479Y0054668D01*
X0328186Y0054753D01*
X0327895Y0054845D01*
X0327606Y0054945D01*
X0327319Y0055051D01*
X0327036Y0055165D01*
X0326755Y0055285D01*
X0326477Y0055412D01*
X0326202Y0055546D01*
X0325931Y0055687D01*
X0325663Y0055834D01*
X0325399Y0055988D01*
X0325139Y0056149D01*
X0324883Y0056315D01*
X0324631Y0056488D01*
X0324384Y0056667D01*
X0324140Y0056852D01*
X0323902Y0057043D01*
X0323668Y0057240D01*
X0323439Y0057442D01*
X0323215Y0057650D01*
X0322997Y0057864D01*
X0322783Y0058082D01*
X0322575Y0058306D01*
X0322373Y0058535D01*
X0322176Y0058769D01*
X0321985Y0059007D01*
X0321800Y0059251D01*
X0321621Y0059498D01*
X0321448Y0059750D01*
X0321282Y0060006D01*
X0321121Y0060266D01*
X0320967Y0060530D01*
X0320820Y0060798D01*
X0320679Y0061069D01*
X0320545Y0061344D01*
X0320418Y0061622D01*
X0320298Y0061903D01*
X0320184Y0062186D01*
X0320078Y0062473D01*
X0319978Y0062762D01*
X0319886Y0063053D01*
X0319801Y0063346D01*
X0319723Y0063642D01*
X0319653Y0063939D01*
X0319589Y0064238D01*
X0319533Y0064539D01*
X0319485Y0064840D01*
X0319444Y0065143D01*
X0319410Y0065447D01*
X0319384Y0065751D01*
X0319365Y0066056D01*
X0319354Y0066361D01*
X0319350Y0066667D01*
X0308178Y0060761D02*
X0308178Y0048950D01*
X0333302Y0044144D02*
X0335802Y0044144D01*
X0334536Y0042917D02*
X0334536Y0045417D01*
X0340678Y0046883D02*
X0382017Y0046883D01*
X0382017Y0029954D01*
X0390678Y0029954D01*
X0390678Y0028379D01*
X0382410Y0028379D01*
X0382017Y0029954D02*
X0382017Y0011450D01*
X0340678Y0011450D01*
X0340678Y0023261D01*
X0348552Y0023261D01*
X0348552Y0035072D01*
X0340678Y0035072D01*
X0340678Y0046883D01*
X0368178Y0048950D02*
X0409517Y0048950D01*
X0409517Y0067454D01*
X0418178Y0067454D01*
X0418178Y0065879D01*
X0409910Y0065879D01*
X0409517Y0067454D02*
X0409517Y0084383D01*
X0368178Y0084383D01*
X0368178Y0072572D01*
X0376052Y0072572D01*
X0376052Y0060761D01*
X0368178Y0060761D01*
X0368178Y0072572D01*
X0381207Y0066667D02*
X0381210Y0066927D01*
X0381220Y0067187D01*
X0381236Y0067446D01*
X0381258Y0067705D01*
X0381287Y0067964D01*
X0381322Y0068221D01*
X0381363Y0068478D01*
X0381411Y0068734D01*
X0381464Y0068988D01*
X0381524Y0069241D01*
X0381591Y0069492D01*
X0381663Y0069742D01*
X0381742Y0069990D01*
X0381826Y0070236D01*
X0381917Y0070479D01*
X0382013Y0070721D01*
X0382116Y0070960D01*
X0382224Y0071196D01*
X0382338Y0071430D01*
X0382458Y0071661D01*
X0382583Y0071888D01*
X0382714Y0072113D01*
X0382850Y0072334D01*
X0382992Y0072552D01*
X0383139Y0072767D01*
X0383292Y0072977D01*
X0383449Y0073184D01*
X0383612Y0073387D01*
X0383779Y0073586D01*
X0383951Y0073781D01*
X0384128Y0073971D01*
X0384310Y0074157D01*
X0384496Y0074339D01*
X0384686Y0074516D01*
X0384881Y0074688D01*
X0385080Y0074855D01*
X0385283Y0075018D01*
X0385490Y0075175D01*
X0385700Y0075328D01*
X0385915Y0075475D01*
X0386133Y0075617D01*
X0386354Y0075753D01*
X0386579Y0075884D01*
X0386806Y0076009D01*
X0387037Y0076129D01*
X0387271Y0076243D01*
X0387507Y0076351D01*
X0387746Y0076454D01*
X0387988Y0076550D01*
X0388231Y0076641D01*
X0388477Y0076725D01*
X0388725Y0076804D01*
X0388975Y0076876D01*
X0389226Y0076943D01*
X0389479Y0077003D01*
X0389733Y0077056D01*
X0389989Y0077104D01*
X0390246Y0077145D01*
X0390503Y0077180D01*
X0390762Y0077209D01*
X0391021Y0077231D01*
X0391280Y0077247D01*
X0391540Y0077257D01*
X0391800Y0077260D01*
X0392060Y0077257D01*
X0392320Y0077247D01*
X0392579Y0077231D01*
X0392838Y0077209D01*
X0393097Y0077180D01*
X0393354Y0077145D01*
X0393611Y0077104D01*
X0393867Y0077056D01*
X0394121Y0077003D01*
X0394374Y0076943D01*
X0394625Y0076876D01*
X0394875Y0076804D01*
X0395123Y0076725D01*
X0395369Y0076641D01*
X0395612Y0076550D01*
X0395854Y0076454D01*
X0396093Y0076351D01*
X0396329Y0076243D01*
X0396563Y0076129D01*
X0396794Y0076009D01*
X0397021Y0075884D01*
X0397246Y0075753D01*
X0397467Y0075617D01*
X0397685Y0075475D01*
X0397900Y0075328D01*
X0398110Y0075175D01*
X0398317Y0075018D01*
X0398520Y0074855D01*
X0398719Y0074688D01*
X0398914Y0074516D01*
X0399104Y0074339D01*
X0399290Y0074157D01*
X0399472Y0073971D01*
X0399649Y0073781D01*
X0399821Y0073586D01*
X0399988Y0073387D01*
X0400151Y0073184D01*
X0400308Y0072977D01*
X0400461Y0072767D01*
X0400608Y0072552D01*
X0400750Y0072334D01*
X0400886Y0072113D01*
X0401017Y0071888D01*
X0401142Y0071661D01*
X0401262Y0071430D01*
X0401376Y0071196D01*
X0401484Y0070960D01*
X0401587Y0070721D01*
X0401683Y0070479D01*
X0401774Y0070236D01*
X0401858Y0069990D01*
X0401937Y0069742D01*
X0402009Y0069492D01*
X0402076Y0069241D01*
X0402136Y0068988D01*
X0402189Y0068734D01*
X0402237Y0068478D01*
X0402278Y0068221D01*
X0402313Y0067964D01*
X0402342Y0067705D01*
X0402364Y0067446D01*
X0402380Y0067187D01*
X0402390Y0066927D01*
X0402393Y0066667D01*
X0402390Y0066407D01*
X0402380Y0066147D01*
X0402364Y0065888D01*
X0402342Y0065629D01*
X0402313Y0065370D01*
X0402278Y0065113D01*
X0402237Y0064856D01*
X0402189Y0064600D01*
X0402136Y0064346D01*
X0402076Y0064093D01*
X0402009Y0063842D01*
X0401937Y0063592D01*
X0401858Y0063344D01*
X0401774Y0063098D01*
X0401683Y0062855D01*
X0401587Y0062613D01*
X0401484Y0062374D01*
X0401376Y0062138D01*
X0401262Y0061904D01*
X0401142Y0061673D01*
X0401017Y0061446D01*
X0400886Y0061221D01*
X0400750Y0061000D01*
X0400608Y0060782D01*
X0400461Y0060567D01*
X0400308Y0060357D01*
X0400151Y0060150D01*
X0399988Y0059947D01*
X0399821Y0059748D01*
X0399649Y0059553D01*
X0399472Y0059363D01*
X0399290Y0059177D01*
X0399104Y0058995D01*
X0398914Y0058818D01*
X0398719Y0058646D01*
X0398520Y0058479D01*
X0398317Y0058316D01*
X0398110Y0058159D01*
X0397900Y0058006D01*
X0397685Y0057859D01*
X0397467Y0057717D01*
X0397246Y0057581D01*
X0397021Y0057450D01*
X0396794Y0057325D01*
X0396563Y0057205D01*
X0396329Y0057091D01*
X0396093Y0056983D01*
X0395854Y0056880D01*
X0395612Y0056784D01*
X0395369Y0056693D01*
X0395123Y0056609D01*
X0394875Y0056530D01*
X0394625Y0056458D01*
X0394374Y0056391D01*
X0394121Y0056331D01*
X0393867Y0056278D01*
X0393611Y0056230D01*
X0393354Y0056189D01*
X0393097Y0056154D01*
X0392838Y0056125D01*
X0392579Y0056103D01*
X0392320Y0056087D01*
X0392060Y0056077D01*
X0391800Y0056074D01*
X0391540Y0056077D01*
X0391280Y0056087D01*
X0391021Y0056103D01*
X0390762Y0056125D01*
X0390503Y0056154D01*
X0390246Y0056189D01*
X0389989Y0056230D01*
X0389733Y0056278D01*
X0389479Y0056331D01*
X0389226Y0056391D01*
X0388975Y0056458D01*
X0388725Y0056530D01*
X0388477Y0056609D01*
X0388231Y0056693D01*
X0387988Y0056784D01*
X0387746Y0056880D01*
X0387507Y0056983D01*
X0387271Y0057091D01*
X0387037Y0057205D01*
X0386806Y0057325D01*
X0386579Y0057450D01*
X0386354Y0057581D01*
X0386133Y0057717D01*
X0385915Y0057859D01*
X0385700Y0058006D01*
X0385490Y0058159D01*
X0385283Y0058316D01*
X0385080Y0058479D01*
X0384881Y0058646D01*
X0384686Y0058818D01*
X0384496Y0058995D01*
X0384310Y0059177D01*
X0384128Y0059363D01*
X0383951Y0059553D01*
X0383779Y0059748D01*
X0383612Y0059947D01*
X0383449Y0060150D01*
X0383292Y0060357D01*
X0383139Y0060567D01*
X0382992Y0060782D01*
X0382850Y0061000D01*
X0382714Y0061221D01*
X0382583Y0061446D01*
X0382458Y0061673D01*
X0382338Y0061904D01*
X0382224Y0062138D01*
X0382116Y0062374D01*
X0382013Y0062613D01*
X0381917Y0062855D01*
X0381826Y0063098D01*
X0381742Y0063344D01*
X0381663Y0063592D01*
X0381591Y0063842D01*
X0381524Y0064093D01*
X0381464Y0064346D01*
X0381411Y0064600D01*
X0381363Y0064856D01*
X0381322Y0065113D01*
X0381287Y0065370D01*
X0381258Y0065629D01*
X0381236Y0065888D01*
X0381220Y0066147D01*
X0381210Y0066407D01*
X0381207Y0066667D01*
X0379350Y0066667D02*
X0379354Y0066973D01*
X0379365Y0067278D01*
X0379384Y0067583D01*
X0379410Y0067887D01*
X0379444Y0068191D01*
X0379485Y0068494D01*
X0379533Y0068795D01*
X0379589Y0069096D01*
X0379653Y0069395D01*
X0379723Y0069692D01*
X0379801Y0069988D01*
X0379886Y0070281D01*
X0379978Y0070572D01*
X0380078Y0070861D01*
X0380184Y0071148D01*
X0380298Y0071431D01*
X0380418Y0071712D01*
X0380545Y0071990D01*
X0380679Y0072265D01*
X0380820Y0072536D01*
X0380967Y0072804D01*
X0381121Y0073068D01*
X0381282Y0073328D01*
X0381448Y0073584D01*
X0381621Y0073836D01*
X0381800Y0074083D01*
X0381985Y0074327D01*
X0382176Y0074565D01*
X0382373Y0074799D01*
X0382575Y0075028D01*
X0382783Y0075252D01*
X0382997Y0075470D01*
X0383215Y0075684D01*
X0383439Y0075892D01*
X0383668Y0076094D01*
X0383902Y0076291D01*
X0384140Y0076482D01*
X0384384Y0076667D01*
X0384631Y0076846D01*
X0384883Y0077019D01*
X0385139Y0077185D01*
X0385399Y0077346D01*
X0385663Y0077500D01*
X0385931Y0077647D01*
X0386202Y0077788D01*
X0386477Y0077922D01*
X0386755Y0078049D01*
X0387036Y0078169D01*
X0387319Y0078283D01*
X0387606Y0078389D01*
X0387895Y0078489D01*
X0388186Y0078581D01*
X0388479Y0078666D01*
X0388775Y0078744D01*
X0389072Y0078814D01*
X0389371Y0078878D01*
X0389672Y0078934D01*
X0389973Y0078982D01*
X0390276Y0079023D01*
X0390580Y0079057D01*
X0390884Y0079083D01*
X0391189Y0079102D01*
X0391494Y0079113D01*
X0391800Y0079117D01*
X0392106Y0079113D01*
X0392411Y0079102D01*
X0392716Y0079083D01*
X0393020Y0079057D01*
X0393324Y0079023D01*
X0393627Y0078982D01*
X0393928Y0078934D01*
X0394229Y0078878D01*
X0394528Y0078814D01*
X0394825Y0078744D01*
X0395121Y0078666D01*
X0395414Y0078581D01*
X0395705Y0078489D01*
X0395994Y0078389D01*
X0396281Y0078283D01*
X0396564Y0078169D01*
X0396845Y0078049D01*
X0397123Y0077922D01*
X0397398Y0077788D01*
X0397669Y0077647D01*
X0397937Y0077500D01*
X0398201Y0077346D01*
X0398461Y0077185D01*
X0398717Y0077019D01*
X0398969Y0076846D01*
X0399216Y0076667D01*
X0399460Y0076482D01*
X0399698Y0076291D01*
X0399932Y0076094D01*
X0400161Y0075892D01*
X0400385Y0075684D01*
X0400603Y0075470D01*
X0400817Y0075252D01*
X0401025Y0075028D01*
X0401227Y0074799D01*
X0401424Y0074565D01*
X0401615Y0074327D01*
X0401800Y0074083D01*
X0401979Y0073836D01*
X0402152Y0073584D01*
X0402318Y0073328D01*
X0402479Y0073068D01*
X0402633Y0072804D01*
X0402780Y0072536D01*
X0402921Y0072265D01*
X0403055Y0071990D01*
X0403182Y0071712D01*
X0403302Y0071431D01*
X0403416Y0071148D01*
X0403522Y0070861D01*
X0403622Y0070572D01*
X0403714Y0070281D01*
X0403799Y0069988D01*
X0403877Y0069692D01*
X0403947Y0069395D01*
X0404011Y0069096D01*
X0404067Y0068795D01*
X0404115Y0068494D01*
X0404156Y0068191D01*
X0404190Y0067887D01*
X0404216Y0067583D01*
X0404235Y0067278D01*
X0404246Y0066973D01*
X0404250Y0066667D01*
X0404246Y0066361D01*
X0404235Y0066056D01*
X0404216Y0065751D01*
X0404190Y0065447D01*
X0404156Y0065143D01*
X0404115Y0064840D01*
X0404067Y0064539D01*
X0404011Y0064238D01*
X0403947Y0063939D01*
X0403877Y0063642D01*
X0403799Y0063346D01*
X0403714Y0063053D01*
X0403622Y0062762D01*
X0403522Y0062473D01*
X0403416Y0062186D01*
X0403302Y0061903D01*
X0403182Y0061622D01*
X0403055Y0061344D01*
X0402921Y0061069D01*
X0402780Y0060798D01*
X0402633Y0060530D01*
X0402479Y0060266D01*
X0402318Y0060006D01*
X0402152Y0059750D01*
X0401979Y0059498D01*
X0401800Y0059251D01*
X0401615Y0059007D01*
X0401424Y0058769D01*
X0401227Y0058535D01*
X0401025Y0058306D01*
X0400817Y0058082D01*
X0400603Y0057864D01*
X0400385Y0057650D01*
X0400161Y0057442D01*
X0399932Y0057240D01*
X0399698Y0057043D01*
X0399460Y0056852D01*
X0399216Y0056667D01*
X0398969Y0056488D01*
X0398717Y0056315D01*
X0398461Y0056149D01*
X0398201Y0055988D01*
X0397937Y0055834D01*
X0397669Y0055687D01*
X0397398Y0055546D01*
X0397123Y0055412D01*
X0396845Y0055285D01*
X0396564Y0055165D01*
X0396281Y0055051D01*
X0395994Y0054945D01*
X0395705Y0054845D01*
X0395414Y0054753D01*
X0395121Y0054668D01*
X0394825Y0054590D01*
X0394528Y0054520D01*
X0394229Y0054456D01*
X0393928Y0054400D01*
X0393627Y0054352D01*
X0393324Y0054311D01*
X0393020Y0054277D01*
X0392716Y0054251D01*
X0392411Y0054232D01*
X0392106Y0054221D01*
X0391800Y0054217D01*
X0391494Y0054221D01*
X0391189Y0054232D01*
X0390884Y0054251D01*
X0390580Y0054277D01*
X0390276Y0054311D01*
X0389973Y0054352D01*
X0389672Y0054400D01*
X0389371Y0054456D01*
X0389072Y0054520D01*
X0388775Y0054590D01*
X0388479Y0054668D01*
X0388186Y0054753D01*
X0387895Y0054845D01*
X0387606Y0054945D01*
X0387319Y0055051D01*
X0387036Y0055165D01*
X0386755Y0055285D01*
X0386477Y0055412D01*
X0386202Y0055546D01*
X0385931Y0055687D01*
X0385663Y0055834D01*
X0385399Y0055988D01*
X0385139Y0056149D01*
X0384883Y0056315D01*
X0384631Y0056488D01*
X0384384Y0056667D01*
X0384140Y0056852D01*
X0383902Y0057043D01*
X0383668Y0057240D01*
X0383439Y0057442D01*
X0383215Y0057650D01*
X0382997Y0057864D01*
X0382783Y0058082D01*
X0382575Y0058306D01*
X0382373Y0058535D01*
X0382176Y0058769D01*
X0381985Y0059007D01*
X0381800Y0059251D01*
X0381621Y0059498D01*
X0381448Y0059750D01*
X0381282Y0060006D01*
X0381121Y0060266D01*
X0380967Y0060530D01*
X0380820Y0060798D01*
X0380679Y0061069D01*
X0380545Y0061344D01*
X0380418Y0061622D01*
X0380298Y0061903D01*
X0380184Y0062186D01*
X0380078Y0062473D01*
X0379978Y0062762D01*
X0379886Y0063053D01*
X0379801Y0063346D01*
X0379723Y0063642D01*
X0379653Y0063939D01*
X0379589Y0064238D01*
X0379533Y0064539D01*
X0379485Y0064840D01*
X0379444Y0065143D01*
X0379410Y0065447D01*
X0379384Y0065751D01*
X0379365Y0066056D01*
X0379354Y0066361D01*
X0379350Y0066667D01*
X0368178Y0060761D02*
X0368178Y0048950D01*
X0393302Y0044144D02*
X0395802Y0044144D01*
X0394536Y0042917D02*
X0394536Y0045417D01*
X0340678Y0035072D02*
X0340678Y0023261D01*
X0353707Y0029167D02*
X0353710Y0029427D01*
X0353720Y0029687D01*
X0353736Y0029946D01*
X0353758Y0030205D01*
X0353787Y0030464D01*
X0353822Y0030721D01*
X0353863Y0030978D01*
X0353911Y0031234D01*
X0353964Y0031488D01*
X0354024Y0031741D01*
X0354091Y0031992D01*
X0354163Y0032242D01*
X0354242Y0032490D01*
X0354326Y0032736D01*
X0354417Y0032979D01*
X0354513Y0033221D01*
X0354616Y0033460D01*
X0354724Y0033696D01*
X0354838Y0033930D01*
X0354958Y0034161D01*
X0355083Y0034388D01*
X0355214Y0034613D01*
X0355350Y0034834D01*
X0355492Y0035052D01*
X0355639Y0035267D01*
X0355792Y0035477D01*
X0355949Y0035684D01*
X0356112Y0035887D01*
X0356279Y0036086D01*
X0356451Y0036281D01*
X0356628Y0036471D01*
X0356810Y0036657D01*
X0356996Y0036839D01*
X0357186Y0037016D01*
X0357381Y0037188D01*
X0357580Y0037355D01*
X0357783Y0037518D01*
X0357990Y0037675D01*
X0358200Y0037828D01*
X0358415Y0037975D01*
X0358633Y0038117D01*
X0358854Y0038253D01*
X0359079Y0038384D01*
X0359306Y0038509D01*
X0359537Y0038629D01*
X0359771Y0038743D01*
X0360007Y0038851D01*
X0360246Y0038954D01*
X0360488Y0039050D01*
X0360731Y0039141D01*
X0360977Y0039225D01*
X0361225Y0039304D01*
X0361475Y0039376D01*
X0361726Y0039443D01*
X0361979Y0039503D01*
X0362233Y0039556D01*
X0362489Y0039604D01*
X0362746Y0039645D01*
X0363003Y0039680D01*
X0363262Y0039709D01*
X0363521Y0039731D01*
X0363780Y0039747D01*
X0364040Y0039757D01*
X0364300Y0039760D01*
X0364560Y0039757D01*
X0364820Y0039747D01*
X0365079Y0039731D01*
X0365338Y0039709D01*
X0365597Y0039680D01*
X0365854Y0039645D01*
X0366111Y0039604D01*
X0366367Y0039556D01*
X0366621Y0039503D01*
X0366874Y0039443D01*
X0367125Y0039376D01*
X0367375Y0039304D01*
X0367623Y0039225D01*
X0367869Y0039141D01*
X0368112Y0039050D01*
X0368354Y0038954D01*
X0368593Y0038851D01*
X0368829Y0038743D01*
X0369063Y0038629D01*
X0369294Y0038509D01*
X0369521Y0038384D01*
X0369746Y0038253D01*
X0369967Y0038117D01*
X0370185Y0037975D01*
X0370400Y0037828D01*
X0370610Y0037675D01*
X0370817Y0037518D01*
X0371020Y0037355D01*
X0371219Y0037188D01*
X0371414Y0037016D01*
X0371604Y0036839D01*
X0371790Y0036657D01*
X0371972Y0036471D01*
X0372149Y0036281D01*
X0372321Y0036086D01*
X0372488Y0035887D01*
X0372651Y0035684D01*
X0372808Y0035477D01*
X0372961Y0035267D01*
X0373108Y0035052D01*
X0373250Y0034834D01*
X0373386Y0034613D01*
X0373517Y0034388D01*
X0373642Y0034161D01*
X0373762Y0033930D01*
X0373876Y0033696D01*
X0373984Y0033460D01*
X0374087Y0033221D01*
X0374183Y0032979D01*
X0374274Y0032736D01*
X0374358Y0032490D01*
X0374437Y0032242D01*
X0374509Y0031992D01*
X0374576Y0031741D01*
X0374636Y0031488D01*
X0374689Y0031234D01*
X0374737Y0030978D01*
X0374778Y0030721D01*
X0374813Y0030464D01*
X0374842Y0030205D01*
X0374864Y0029946D01*
X0374880Y0029687D01*
X0374890Y0029427D01*
X0374893Y0029167D01*
X0374890Y0028907D01*
X0374880Y0028647D01*
X0374864Y0028388D01*
X0374842Y0028129D01*
X0374813Y0027870D01*
X0374778Y0027613D01*
X0374737Y0027356D01*
X0374689Y0027100D01*
X0374636Y0026846D01*
X0374576Y0026593D01*
X0374509Y0026342D01*
X0374437Y0026092D01*
X0374358Y0025844D01*
X0374274Y0025598D01*
X0374183Y0025355D01*
X0374087Y0025113D01*
X0373984Y0024874D01*
X0373876Y0024638D01*
X0373762Y0024404D01*
X0373642Y0024173D01*
X0373517Y0023946D01*
X0373386Y0023721D01*
X0373250Y0023500D01*
X0373108Y0023282D01*
X0372961Y0023067D01*
X0372808Y0022857D01*
X0372651Y0022650D01*
X0372488Y0022447D01*
X0372321Y0022248D01*
X0372149Y0022053D01*
X0371972Y0021863D01*
X0371790Y0021677D01*
X0371604Y0021495D01*
X0371414Y0021318D01*
X0371219Y0021146D01*
X0371020Y0020979D01*
X0370817Y0020816D01*
X0370610Y0020659D01*
X0370400Y0020506D01*
X0370185Y0020359D01*
X0369967Y0020217D01*
X0369746Y0020081D01*
X0369521Y0019950D01*
X0369294Y0019825D01*
X0369063Y0019705D01*
X0368829Y0019591D01*
X0368593Y0019483D01*
X0368354Y0019380D01*
X0368112Y0019284D01*
X0367869Y0019193D01*
X0367623Y0019109D01*
X0367375Y0019030D01*
X0367125Y0018958D01*
X0366874Y0018891D01*
X0366621Y0018831D01*
X0366367Y0018778D01*
X0366111Y0018730D01*
X0365854Y0018689D01*
X0365597Y0018654D01*
X0365338Y0018625D01*
X0365079Y0018603D01*
X0364820Y0018587D01*
X0364560Y0018577D01*
X0364300Y0018574D01*
X0364040Y0018577D01*
X0363780Y0018587D01*
X0363521Y0018603D01*
X0363262Y0018625D01*
X0363003Y0018654D01*
X0362746Y0018689D01*
X0362489Y0018730D01*
X0362233Y0018778D01*
X0361979Y0018831D01*
X0361726Y0018891D01*
X0361475Y0018958D01*
X0361225Y0019030D01*
X0360977Y0019109D01*
X0360731Y0019193D01*
X0360488Y0019284D01*
X0360246Y0019380D01*
X0360007Y0019483D01*
X0359771Y0019591D01*
X0359537Y0019705D01*
X0359306Y0019825D01*
X0359079Y0019950D01*
X0358854Y0020081D01*
X0358633Y0020217D01*
X0358415Y0020359D01*
X0358200Y0020506D01*
X0357990Y0020659D01*
X0357783Y0020816D01*
X0357580Y0020979D01*
X0357381Y0021146D01*
X0357186Y0021318D01*
X0356996Y0021495D01*
X0356810Y0021677D01*
X0356628Y0021863D01*
X0356451Y0022053D01*
X0356279Y0022248D01*
X0356112Y0022447D01*
X0355949Y0022650D01*
X0355792Y0022857D01*
X0355639Y0023067D01*
X0355492Y0023282D01*
X0355350Y0023500D01*
X0355214Y0023721D01*
X0355083Y0023946D01*
X0354958Y0024173D01*
X0354838Y0024404D01*
X0354724Y0024638D01*
X0354616Y0024874D01*
X0354513Y0025113D01*
X0354417Y0025355D01*
X0354326Y0025598D01*
X0354242Y0025844D01*
X0354163Y0026092D01*
X0354091Y0026342D01*
X0354024Y0026593D01*
X0353964Y0026846D01*
X0353911Y0027100D01*
X0353863Y0027356D01*
X0353822Y0027613D01*
X0353787Y0027870D01*
X0353758Y0028129D01*
X0353736Y0028388D01*
X0353720Y0028647D01*
X0353710Y0028907D01*
X0353707Y0029167D01*
X0351850Y0029167D02*
X0351854Y0029473D01*
X0351865Y0029778D01*
X0351884Y0030083D01*
X0351910Y0030387D01*
X0351944Y0030691D01*
X0351985Y0030994D01*
X0352033Y0031295D01*
X0352089Y0031596D01*
X0352153Y0031895D01*
X0352223Y0032192D01*
X0352301Y0032488D01*
X0352386Y0032781D01*
X0352478Y0033072D01*
X0352578Y0033361D01*
X0352684Y0033648D01*
X0352798Y0033931D01*
X0352918Y0034212D01*
X0353045Y0034490D01*
X0353179Y0034765D01*
X0353320Y0035036D01*
X0353467Y0035304D01*
X0353621Y0035568D01*
X0353782Y0035828D01*
X0353948Y0036084D01*
X0354121Y0036336D01*
X0354300Y0036583D01*
X0354485Y0036827D01*
X0354676Y0037065D01*
X0354873Y0037299D01*
X0355075Y0037528D01*
X0355283Y0037752D01*
X0355497Y0037970D01*
X0355715Y0038184D01*
X0355939Y0038392D01*
X0356168Y0038594D01*
X0356402Y0038791D01*
X0356640Y0038982D01*
X0356884Y0039167D01*
X0357131Y0039346D01*
X0357383Y0039519D01*
X0357639Y0039685D01*
X0357899Y0039846D01*
X0358163Y0040000D01*
X0358431Y0040147D01*
X0358702Y0040288D01*
X0358977Y0040422D01*
X0359255Y0040549D01*
X0359536Y0040669D01*
X0359819Y0040783D01*
X0360106Y0040889D01*
X0360395Y0040989D01*
X0360686Y0041081D01*
X0360979Y0041166D01*
X0361275Y0041244D01*
X0361572Y0041314D01*
X0361871Y0041378D01*
X0362172Y0041434D01*
X0362473Y0041482D01*
X0362776Y0041523D01*
X0363080Y0041557D01*
X0363384Y0041583D01*
X0363689Y0041602D01*
X0363994Y0041613D01*
X0364300Y0041617D01*
X0364606Y0041613D01*
X0364911Y0041602D01*
X0365216Y0041583D01*
X0365520Y0041557D01*
X0365824Y0041523D01*
X0366127Y0041482D01*
X0366428Y0041434D01*
X0366729Y0041378D01*
X0367028Y0041314D01*
X0367325Y0041244D01*
X0367621Y0041166D01*
X0367914Y0041081D01*
X0368205Y0040989D01*
X0368494Y0040889D01*
X0368781Y0040783D01*
X0369064Y0040669D01*
X0369345Y0040549D01*
X0369623Y0040422D01*
X0369898Y0040288D01*
X0370169Y0040147D01*
X0370437Y0040000D01*
X0370701Y0039846D01*
X0370961Y0039685D01*
X0371217Y0039519D01*
X0371469Y0039346D01*
X0371716Y0039167D01*
X0371960Y0038982D01*
X0372198Y0038791D01*
X0372432Y0038594D01*
X0372661Y0038392D01*
X0372885Y0038184D01*
X0373103Y0037970D01*
X0373317Y0037752D01*
X0373525Y0037528D01*
X0373727Y0037299D01*
X0373924Y0037065D01*
X0374115Y0036827D01*
X0374300Y0036583D01*
X0374479Y0036336D01*
X0374652Y0036084D01*
X0374818Y0035828D01*
X0374979Y0035568D01*
X0375133Y0035304D01*
X0375280Y0035036D01*
X0375421Y0034765D01*
X0375555Y0034490D01*
X0375682Y0034212D01*
X0375802Y0033931D01*
X0375916Y0033648D01*
X0376022Y0033361D01*
X0376122Y0033072D01*
X0376214Y0032781D01*
X0376299Y0032488D01*
X0376377Y0032192D01*
X0376447Y0031895D01*
X0376511Y0031596D01*
X0376567Y0031295D01*
X0376615Y0030994D01*
X0376656Y0030691D01*
X0376690Y0030387D01*
X0376716Y0030083D01*
X0376735Y0029778D01*
X0376746Y0029473D01*
X0376750Y0029167D01*
X0376746Y0028861D01*
X0376735Y0028556D01*
X0376716Y0028251D01*
X0376690Y0027947D01*
X0376656Y0027643D01*
X0376615Y0027340D01*
X0376567Y0027039D01*
X0376511Y0026738D01*
X0376447Y0026439D01*
X0376377Y0026142D01*
X0376299Y0025846D01*
X0376214Y0025553D01*
X0376122Y0025262D01*
X0376022Y0024973D01*
X0375916Y0024686D01*
X0375802Y0024403D01*
X0375682Y0024122D01*
X0375555Y0023844D01*
X0375421Y0023569D01*
X0375280Y0023298D01*
X0375133Y0023030D01*
X0374979Y0022766D01*
X0374818Y0022506D01*
X0374652Y0022250D01*
X0374479Y0021998D01*
X0374300Y0021751D01*
X0374115Y0021507D01*
X0373924Y0021269D01*
X0373727Y0021035D01*
X0373525Y0020806D01*
X0373317Y0020582D01*
X0373103Y0020364D01*
X0372885Y0020150D01*
X0372661Y0019942D01*
X0372432Y0019740D01*
X0372198Y0019543D01*
X0371960Y0019352D01*
X0371716Y0019167D01*
X0371469Y0018988D01*
X0371217Y0018815D01*
X0370961Y0018649D01*
X0370701Y0018488D01*
X0370437Y0018334D01*
X0370169Y0018187D01*
X0369898Y0018046D01*
X0369623Y0017912D01*
X0369345Y0017785D01*
X0369064Y0017665D01*
X0368781Y0017551D01*
X0368494Y0017445D01*
X0368205Y0017345D01*
X0367914Y0017253D01*
X0367621Y0017168D01*
X0367325Y0017090D01*
X0367028Y0017020D01*
X0366729Y0016956D01*
X0366428Y0016900D01*
X0366127Y0016852D01*
X0365824Y0016811D01*
X0365520Y0016777D01*
X0365216Y0016751D01*
X0364911Y0016732D01*
X0364606Y0016721D01*
X0364300Y0016717D01*
X0363994Y0016721D01*
X0363689Y0016732D01*
X0363384Y0016751D01*
X0363080Y0016777D01*
X0362776Y0016811D01*
X0362473Y0016852D01*
X0362172Y0016900D01*
X0361871Y0016956D01*
X0361572Y0017020D01*
X0361275Y0017090D01*
X0360979Y0017168D01*
X0360686Y0017253D01*
X0360395Y0017345D01*
X0360106Y0017445D01*
X0359819Y0017551D01*
X0359536Y0017665D01*
X0359255Y0017785D01*
X0358977Y0017912D01*
X0358702Y0018046D01*
X0358431Y0018187D01*
X0358163Y0018334D01*
X0357899Y0018488D01*
X0357639Y0018649D01*
X0357383Y0018815D01*
X0357131Y0018988D01*
X0356884Y0019167D01*
X0356640Y0019352D01*
X0356402Y0019543D01*
X0356168Y0019740D01*
X0355939Y0019942D01*
X0355715Y0020150D01*
X0355497Y0020364D01*
X0355283Y0020582D01*
X0355075Y0020806D01*
X0354873Y0021035D01*
X0354676Y0021269D01*
X0354485Y0021507D01*
X0354300Y0021751D01*
X0354121Y0021998D01*
X0353948Y0022250D01*
X0353782Y0022506D01*
X0353621Y0022766D01*
X0353467Y0023030D01*
X0353320Y0023298D01*
X0353179Y0023569D01*
X0353045Y0023844D01*
X0352918Y0024122D01*
X0352798Y0024403D01*
X0352684Y0024686D01*
X0352578Y0024973D01*
X0352478Y0025262D01*
X0352386Y0025553D01*
X0352301Y0025846D01*
X0352223Y0026142D01*
X0352153Y0026439D01*
X0352089Y0026738D01*
X0352033Y0027039D01*
X0351985Y0027340D01*
X0351944Y0027643D01*
X0351910Y0027947D01*
X0351884Y0028251D01*
X0351865Y0028556D01*
X0351854Y0028861D01*
X0351850Y0029167D01*
X0293707Y0029167D02*
X0293710Y0029427D01*
X0293720Y0029687D01*
X0293736Y0029946D01*
X0293758Y0030205D01*
X0293787Y0030464D01*
X0293822Y0030721D01*
X0293863Y0030978D01*
X0293911Y0031234D01*
X0293964Y0031488D01*
X0294024Y0031741D01*
X0294091Y0031992D01*
X0294163Y0032242D01*
X0294242Y0032490D01*
X0294326Y0032736D01*
X0294417Y0032979D01*
X0294513Y0033221D01*
X0294616Y0033460D01*
X0294724Y0033696D01*
X0294838Y0033930D01*
X0294958Y0034161D01*
X0295083Y0034388D01*
X0295214Y0034613D01*
X0295350Y0034834D01*
X0295492Y0035052D01*
X0295639Y0035267D01*
X0295792Y0035477D01*
X0295949Y0035684D01*
X0296112Y0035887D01*
X0296279Y0036086D01*
X0296451Y0036281D01*
X0296628Y0036471D01*
X0296810Y0036657D01*
X0296996Y0036839D01*
X0297186Y0037016D01*
X0297381Y0037188D01*
X0297580Y0037355D01*
X0297783Y0037518D01*
X0297990Y0037675D01*
X0298200Y0037828D01*
X0298415Y0037975D01*
X0298633Y0038117D01*
X0298854Y0038253D01*
X0299079Y0038384D01*
X0299306Y0038509D01*
X0299537Y0038629D01*
X0299771Y0038743D01*
X0300007Y0038851D01*
X0300246Y0038954D01*
X0300488Y0039050D01*
X0300731Y0039141D01*
X0300977Y0039225D01*
X0301225Y0039304D01*
X0301475Y0039376D01*
X0301726Y0039443D01*
X0301979Y0039503D01*
X0302233Y0039556D01*
X0302489Y0039604D01*
X0302746Y0039645D01*
X0303003Y0039680D01*
X0303262Y0039709D01*
X0303521Y0039731D01*
X0303780Y0039747D01*
X0304040Y0039757D01*
X0304300Y0039760D01*
X0304560Y0039757D01*
X0304820Y0039747D01*
X0305079Y0039731D01*
X0305338Y0039709D01*
X0305597Y0039680D01*
X0305854Y0039645D01*
X0306111Y0039604D01*
X0306367Y0039556D01*
X0306621Y0039503D01*
X0306874Y0039443D01*
X0307125Y0039376D01*
X0307375Y0039304D01*
X0307623Y0039225D01*
X0307869Y0039141D01*
X0308112Y0039050D01*
X0308354Y0038954D01*
X0308593Y0038851D01*
X0308829Y0038743D01*
X0309063Y0038629D01*
X0309294Y0038509D01*
X0309521Y0038384D01*
X0309746Y0038253D01*
X0309967Y0038117D01*
X0310185Y0037975D01*
X0310400Y0037828D01*
X0310610Y0037675D01*
X0310817Y0037518D01*
X0311020Y0037355D01*
X0311219Y0037188D01*
X0311414Y0037016D01*
X0311604Y0036839D01*
X0311790Y0036657D01*
X0311972Y0036471D01*
X0312149Y0036281D01*
X0312321Y0036086D01*
X0312488Y0035887D01*
X0312651Y0035684D01*
X0312808Y0035477D01*
X0312961Y0035267D01*
X0313108Y0035052D01*
X0313250Y0034834D01*
X0313386Y0034613D01*
X0313517Y0034388D01*
X0313642Y0034161D01*
X0313762Y0033930D01*
X0313876Y0033696D01*
X0313984Y0033460D01*
X0314087Y0033221D01*
X0314183Y0032979D01*
X0314274Y0032736D01*
X0314358Y0032490D01*
X0314437Y0032242D01*
X0314509Y0031992D01*
X0314576Y0031741D01*
X0314636Y0031488D01*
X0314689Y0031234D01*
X0314737Y0030978D01*
X0314778Y0030721D01*
X0314813Y0030464D01*
X0314842Y0030205D01*
X0314864Y0029946D01*
X0314880Y0029687D01*
X0314890Y0029427D01*
X0314893Y0029167D01*
X0314890Y0028907D01*
X0314880Y0028647D01*
X0314864Y0028388D01*
X0314842Y0028129D01*
X0314813Y0027870D01*
X0314778Y0027613D01*
X0314737Y0027356D01*
X0314689Y0027100D01*
X0314636Y0026846D01*
X0314576Y0026593D01*
X0314509Y0026342D01*
X0314437Y0026092D01*
X0314358Y0025844D01*
X0314274Y0025598D01*
X0314183Y0025355D01*
X0314087Y0025113D01*
X0313984Y0024874D01*
X0313876Y0024638D01*
X0313762Y0024404D01*
X0313642Y0024173D01*
X0313517Y0023946D01*
X0313386Y0023721D01*
X0313250Y0023500D01*
X0313108Y0023282D01*
X0312961Y0023067D01*
X0312808Y0022857D01*
X0312651Y0022650D01*
X0312488Y0022447D01*
X0312321Y0022248D01*
X0312149Y0022053D01*
X0311972Y0021863D01*
X0311790Y0021677D01*
X0311604Y0021495D01*
X0311414Y0021318D01*
X0311219Y0021146D01*
X0311020Y0020979D01*
X0310817Y0020816D01*
X0310610Y0020659D01*
X0310400Y0020506D01*
X0310185Y0020359D01*
X0309967Y0020217D01*
X0309746Y0020081D01*
X0309521Y0019950D01*
X0309294Y0019825D01*
X0309063Y0019705D01*
X0308829Y0019591D01*
X0308593Y0019483D01*
X0308354Y0019380D01*
X0308112Y0019284D01*
X0307869Y0019193D01*
X0307623Y0019109D01*
X0307375Y0019030D01*
X0307125Y0018958D01*
X0306874Y0018891D01*
X0306621Y0018831D01*
X0306367Y0018778D01*
X0306111Y0018730D01*
X0305854Y0018689D01*
X0305597Y0018654D01*
X0305338Y0018625D01*
X0305079Y0018603D01*
X0304820Y0018587D01*
X0304560Y0018577D01*
X0304300Y0018574D01*
X0304040Y0018577D01*
X0303780Y0018587D01*
X0303521Y0018603D01*
X0303262Y0018625D01*
X0303003Y0018654D01*
X0302746Y0018689D01*
X0302489Y0018730D01*
X0302233Y0018778D01*
X0301979Y0018831D01*
X0301726Y0018891D01*
X0301475Y0018958D01*
X0301225Y0019030D01*
X0300977Y0019109D01*
X0300731Y0019193D01*
X0300488Y0019284D01*
X0300246Y0019380D01*
X0300007Y0019483D01*
X0299771Y0019591D01*
X0299537Y0019705D01*
X0299306Y0019825D01*
X0299079Y0019950D01*
X0298854Y0020081D01*
X0298633Y0020217D01*
X0298415Y0020359D01*
X0298200Y0020506D01*
X0297990Y0020659D01*
X0297783Y0020816D01*
X0297580Y0020979D01*
X0297381Y0021146D01*
X0297186Y0021318D01*
X0296996Y0021495D01*
X0296810Y0021677D01*
X0296628Y0021863D01*
X0296451Y0022053D01*
X0296279Y0022248D01*
X0296112Y0022447D01*
X0295949Y0022650D01*
X0295792Y0022857D01*
X0295639Y0023067D01*
X0295492Y0023282D01*
X0295350Y0023500D01*
X0295214Y0023721D01*
X0295083Y0023946D01*
X0294958Y0024173D01*
X0294838Y0024404D01*
X0294724Y0024638D01*
X0294616Y0024874D01*
X0294513Y0025113D01*
X0294417Y0025355D01*
X0294326Y0025598D01*
X0294242Y0025844D01*
X0294163Y0026092D01*
X0294091Y0026342D01*
X0294024Y0026593D01*
X0293964Y0026846D01*
X0293911Y0027100D01*
X0293863Y0027356D01*
X0293822Y0027613D01*
X0293787Y0027870D01*
X0293758Y0028129D01*
X0293736Y0028388D01*
X0293720Y0028647D01*
X0293710Y0028907D01*
X0293707Y0029167D01*
X0291850Y0029167D02*
X0291854Y0029473D01*
X0291865Y0029778D01*
X0291884Y0030083D01*
X0291910Y0030387D01*
X0291944Y0030691D01*
X0291985Y0030994D01*
X0292033Y0031295D01*
X0292089Y0031596D01*
X0292153Y0031895D01*
X0292223Y0032192D01*
X0292301Y0032488D01*
X0292386Y0032781D01*
X0292478Y0033072D01*
X0292578Y0033361D01*
X0292684Y0033648D01*
X0292798Y0033931D01*
X0292918Y0034212D01*
X0293045Y0034490D01*
X0293179Y0034765D01*
X0293320Y0035036D01*
X0293467Y0035304D01*
X0293621Y0035568D01*
X0293782Y0035828D01*
X0293948Y0036084D01*
X0294121Y0036336D01*
X0294300Y0036583D01*
X0294485Y0036827D01*
X0294676Y0037065D01*
X0294873Y0037299D01*
X0295075Y0037528D01*
X0295283Y0037752D01*
X0295497Y0037970D01*
X0295715Y0038184D01*
X0295939Y0038392D01*
X0296168Y0038594D01*
X0296402Y0038791D01*
X0296640Y0038982D01*
X0296884Y0039167D01*
X0297131Y0039346D01*
X0297383Y0039519D01*
X0297639Y0039685D01*
X0297899Y0039846D01*
X0298163Y0040000D01*
X0298431Y0040147D01*
X0298702Y0040288D01*
X0298977Y0040422D01*
X0299255Y0040549D01*
X0299536Y0040669D01*
X0299819Y0040783D01*
X0300106Y0040889D01*
X0300395Y0040989D01*
X0300686Y0041081D01*
X0300979Y0041166D01*
X0301275Y0041244D01*
X0301572Y0041314D01*
X0301871Y0041378D01*
X0302172Y0041434D01*
X0302473Y0041482D01*
X0302776Y0041523D01*
X0303080Y0041557D01*
X0303384Y0041583D01*
X0303689Y0041602D01*
X0303994Y0041613D01*
X0304300Y0041617D01*
X0304606Y0041613D01*
X0304911Y0041602D01*
X0305216Y0041583D01*
X0305520Y0041557D01*
X0305824Y0041523D01*
X0306127Y0041482D01*
X0306428Y0041434D01*
X0306729Y0041378D01*
X0307028Y0041314D01*
X0307325Y0041244D01*
X0307621Y0041166D01*
X0307914Y0041081D01*
X0308205Y0040989D01*
X0308494Y0040889D01*
X0308781Y0040783D01*
X0309064Y0040669D01*
X0309345Y0040549D01*
X0309623Y0040422D01*
X0309898Y0040288D01*
X0310169Y0040147D01*
X0310437Y0040000D01*
X0310701Y0039846D01*
X0310961Y0039685D01*
X0311217Y0039519D01*
X0311469Y0039346D01*
X0311716Y0039167D01*
X0311960Y0038982D01*
X0312198Y0038791D01*
X0312432Y0038594D01*
X0312661Y0038392D01*
X0312885Y0038184D01*
X0313103Y0037970D01*
X0313317Y0037752D01*
X0313525Y0037528D01*
X0313727Y0037299D01*
X0313924Y0037065D01*
X0314115Y0036827D01*
X0314300Y0036583D01*
X0314479Y0036336D01*
X0314652Y0036084D01*
X0314818Y0035828D01*
X0314979Y0035568D01*
X0315133Y0035304D01*
X0315280Y0035036D01*
X0315421Y0034765D01*
X0315555Y0034490D01*
X0315682Y0034212D01*
X0315802Y0033931D01*
X0315916Y0033648D01*
X0316022Y0033361D01*
X0316122Y0033072D01*
X0316214Y0032781D01*
X0316299Y0032488D01*
X0316377Y0032192D01*
X0316447Y0031895D01*
X0316511Y0031596D01*
X0316567Y0031295D01*
X0316615Y0030994D01*
X0316656Y0030691D01*
X0316690Y0030387D01*
X0316716Y0030083D01*
X0316735Y0029778D01*
X0316746Y0029473D01*
X0316750Y0029167D01*
X0316746Y0028861D01*
X0316735Y0028556D01*
X0316716Y0028251D01*
X0316690Y0027947D01*
X0316656Y0027643D01*
X0316615Y0027340D01*
X0316567Y0027039D01*
X0316511Y0026738D01*
X0316447Y0026439D01*
X0316377Y0026142D01*
X0316299Y0025846D01*
X0316214Y0025553D01*
X0316122Y0025262D01*
X0316022Y0024973D01*
X0315916Y0024686D01*
X0315802Y0024403D01*
X0315682Y0024122D01*
X0315555Y0023844D01*
X0315421Y0023569D01*
X0315280Y0023298D01*
X0315133Y0023030D01*
X0314979Y0022766D01*
X0314818Y0022506D01*
X0314652Y0022250D01*
X0314479Y0021998D01*
X0314300Y0021751D01*
X0314115Y0021507D01*
X0313924Y0021269D01*
X0313727Y0021035D01*
X0313525Y0020806D01*
X0313317Y0020582D01*
X0313103Y0020364D01*
X0312885Y0020150D01*
X0312661Y0019942D01*
X0312432Y0019740D01*
X0312198Y0019543D01*
X0311960Y0019352D01*
X0311716Y0019167D01*
X0311469Y0018988D01*
X0311217Y0018815D01*
X0310961Y0018649D01*
X0310701Y0018488D01*
X0310437Y0018334D01*
X0310169Y0018187D01*
X0309898Y0018046D01*
X0309623Y0017912D01*
X0309345Y0017785D01*
X0309064Y0017665D01*
X0308781Y0017551D01*
X0308494Y0017445D01*
X0308205Y0017345D01*
X0307914Y0017253D01*
X0307621Y0017168D01*
X0307325Y0017090D01*
X0307028Y0017020D01*
X0306729Y0016956D01*
X0306428Y0016900D01*
X0306127Y0016852D01*
X0305824Y0016811D01*
X0305520Y0016777D01*
X0305216Y0016751D01*
X0304911Y0016732D01*
X0304606Y0016721D01*
X0304300Y0016717D01*
X0303994Y0016721D01*
X0303689Y0016732D01*
X0303384Y0016751D01*
X0303080Y0016777D01*
X0302776Y0016811D01*
X0302473Y0016852D01*
X0302172Y0016900D01*
X0301871Y0016956D01*
X0301572Y0017020D01*
X0301275Y0017090D01*
X0300979Y0017168D01*
X0300686Y0017253D01*
X0300395Y0017345D01*
X0300106Y0017445D01*
X0299819Y0017551D01*
X0299536Y0017665D01*
X0299255Y0017785D01*
X0298977Y0017912D01*
X0298702Y0018046D01*
X0298431Y0018187D01*
X0298163Y0018334D01*
X0297899Y0018488D01*
X0297639Y0018649D01*
X0297383Y0018815D01*
X0297131Y0018988D01*
X0296884Y0019167D01*
X0296640Y0019352D01*
X0296402Y0019543D01*
X0296168Y0019740D01*
X0295939Y0019942D01*
X0295715Y0020150D01*
X0295497Y0020364D01*
X0295283Y0020582D01*
X0295075Y0020806D01*
X0294873Y0021035D01*
X0294676Y0021269D01*
X0294485Y0021507D01*
X0294300Y0021751D01*
X0294121Y0021998D01*
X0293948Y0022250D01*
X0293782Y0022506D01*
X0293621Y0022766D01*
X0293467Y0023030D01*
X0293320Y0023298D01*
X0293179Y0023569D01*
X0293045Y0023844D01*
X0292918Y0024122D01*
X0292798Y0024403D01*
X0292684Y0024686D01*
X0292578Y0024973D01*
X0292478Y0025262D01*
X0292386Y0025553D01*
X0292301Y0025846D01*
X0292223Y0026142D01*
X0292153Y0026439D01*
X0292089Y0026738D01*
X0292033Y0027039D01*
X0291985Y0027340D01*
X0291944Y0027643D01*
X0291910Y0027947D01*
X0291884Y0028251D01*
X0291865Y0028556D01*
X0291854Y0028861D01*
X0291850Y0029167D01*
X0280678Y0035072D02*
X0280678Y0023261D01*
X0081207Y0066667D02*
X0081210Y0066927D01*
X0081220Y0067187D01*
X0081236Y0067446D01*
X0081258Y0067705D01*
X0081287Y0067964D01*
X0081322Y0068221D01*
X0081363Y0068478D01*
X0081411Y0068734D01*
X0081464Y0068988D01*
X0081524Y0069241D01*
X0081591Y0069492D01*
X0081663Y0069742D01*
X0081742Y0069990D01*
X0081826Y0070236D01*
X0081917Y0070479D01*
X0082013Y0070721D01*
X0082116Y0070960D01*
X0082224Y0071196D01*
X0082338Y0071430D01*
X0082458Y0071661D01*
X0082583Y0071888D01*
X0082714Y0072113D01*
X0082850Y0072334D01*
X0082992Y0072552D01*
X0083139Y0072767D01*
X0083292Y0072977D01*
X0083449Y0073184D01*
X0083612Y0073387D01*
X0083779Y0073586D01*
X0083951Y0073781D01*
X0084128Y0073971D01*
X0084310Y0074157D01*
X0084496Y0074339D01*
X0084686Y0074516D01*
X0084881Y0074688D01*
X0085080Y0074855D01*
X0085283Y0075018D01*
X0085490Y0075175D01*
X0085700Y0075328D01*
X0085915Y0075475D01*
X0086133Y0075617D01*
X0086354Y0075753D01*
X0086579Y0075884D01*
X0086806Y0076009D01*
X0087037Y0076129D01*
X0087271Y0076243D01*
X0087507Y0076351D01*
X0087746Y0076454D01*
X0087988Y0076550D01*
X0088231Y0076641D01*
X0088477Y0076725D01*
X0088725Y0076804D01*
X0088975Y0076876D01*
X0089226Y0076943D01*
X0089479Y0077003D01*
X0089733Y0077056D01*
X0089989Y0077104D01*
X0090246Y0077145D01*
X0090503Y0077180D01*
X0090762Y0077209D01*
X0091021Y0077231D01*
X0091280Y0077247D01*
X0091540Y0077257D01*
X0091800Y0077260D01*
X0092060Y0077257D01*
X0092320Y0077247D01*
X0092579Y0077231D01*
X0092838Y0077209D01*
X0093097Y0077180D01*
X0093354Y0077145D01*
X0093611Y0077104D01*
X0093867Y0077056D01*
X0094121Y0077003D01*
X0094374Y0076943D01*
X0094625Y0076876D01*
X0094875Y0076804D01*
X0095123Y0076725D01*
X0095369Y0076641D01*
X0095612Y0076550D01*
X0095854Y0076454D01*
X0096093Y0076351D01*
X0096329Y0076243D01*
X0096563Y0076129D01*
X0096794Y0076009D01*
X0097021Y0075884D01*
X0097246Y0075753D01*
X0097467Y0075617D01*
X0097685Y0075475D01*
X0097900Y0075328D01*
X0098110Y0075175D01*
X0098317Y0075018D01*
X0098520Y0074855D01*
X0098719Y0074688D01*
X0098914Y0074516D01*
X0099104Y0074339D01*
X0099290Y0074157D01*
X0099472Y0073971D01*
X0099649Y0073781D01*
X0099821Y0073586D01*
X0099988Y0073387D01*
X0100151Y0073184D01*
X0100308Y0072977D01*
X0100461Y0072767D01*
X0100608Y0072552D01*
X0100750Y0072334D01*
X0100886Y0072113D01*
X0101017Y0071888D01*
X0101142Y0071661D01*
X0101262Y0071430D01*
X0101376Y0071196D01*
X0101484Y0070960D01*
X0101587Y0070721D01*
X0101683Y0070479D01*
X0101774Y0070236D01*
X0101858Y0069990D01*
X0101937Y0069742D01*
X0102009Y0069492D01*
X0102076Y0069241D01*
X0102136Y0068988D01*
X0102189Y0068734D01*
X0102237Y0068478D01*
X0102278Y0068221D01*
X0102313Y0067964D01*
X0102342Y0067705D01*
X0102364Y0067446D01*
X0102380Y0067187D01*
X0102390Y0066927D01*
X0102393Y0066667D01*
X0102390Y0066407D01*
X0102380Y0066147D01*
X0102364Y0065888D01*
X0102342Y0065629D01*
X0102313Y0065370D01*
X0102278Y0065113D01*
X0102237Y0064856D01*
X0102189Y0064600D01*
X0102136Y0064346D01*
X0102076Y0064093D01*
X0102009Y0063842D01*
X0101937Y0063592D01*
X0101858Y0063344D01*
X0101774Y0063098D01*
X0101683Y0062855D01*
X0101587Y0062613D01*
X0101484Y0062374D01*
X0101376Y0062138D01*
X0101262Y0061904D01*
X0101142Y0061673D01*
X0101017Y0061446D01*
X0100886Y0061221D01*
X0100750Y0061000D01*
X0100608Y0060782D01*
X0100461Y0060567D01*
X0100308Y0060357D01*
X0100151Y0060150D01*
X0099988Y0059947D01*
X0099821Y0059748D01*
X0099649Y0059553D01*
X0099472Y0059363D01*
X0099290Y0059177D01*
X0099104Y0058995D01*
X0098914Y0058818D01*
X0098719Y0058646D01*
X0098520Y0058479D01*
X0098317Y0058316D01*
X0098110Y0058159D01*
X0097900Y0058006D01*
X0097685Y0057859D01*
X0097467Y0057717D01*
X0097246Y0057581D01*
X0097021Y0057450D01*
X0096794Y0057325D01*
X0096563Y0057205D01*
X0096329Y0057091D01*
X0096093Y0056983D01*
X0095854Y0056880D01*
X0095612Y0056784D01*
X0095369Y0056693D01*
X0095123Y0056609D01*
X0094875Y0056530D01*
X0094625Y0056458D01*
X0094374Y0056391D01*
X0094121Y0056331D01*
X0093867Y0056278D01*
X0093611Y0056230D01*
X0093354Y0056189D01*
X0093097Y0056154D01*
X0092838Y0056125D01*
X0092579Y0056103D01*
X0092320Y0056087D01*
X0092060Y0056077D01*
X0091800Y0056074D01*
X0091540Y0056077D01*
X0091280Y0056087D01*
X0091021Y0056103D01*
X0090762Y0056125D01*
X0090503Y0056154D01*
X0090246Y0056189D01*
X0089989Y0056230D01*
X0089733Y0056278D01*
X0089479Y0056331D01*
X0089226Y0056391D01*
X0088975Y0056458D01*
X0088725Y0056530D01*
X0088477Y0056609D01*
X0088231Y0056693D01*
X0087988Y0056784D01*
X0087746Y0056880D01*
X0087507Y0056983D01*
X0087271Y0057091D01*
X0087037Y0057205D01*
X0086806Y0057325D01*
X0086579Y0057450D01*
X0086354Y0057581D01*
X0086133Y0057717D01*
X0085915Y0057859D01*
X0085700Y0058006D01*
X0085490Y0058159D01*
X0085283Y0058316D01*
X0085080Y0058479D01*
X0084881Y0058646D01*
X0084686Y0058818D01*
X0084496Y0058995D01*
X0084310Y0059177D01*
X0084128Y0059363D01*
X0083951Y0059553D01*
X0083779Y0059748D01*
X0083612Y0059947D01*
X0083449Y0060150D01*
X0083292Y0060357D01*
X0083139Y0060567D01*
X0082992Y0060782D01*
X0082850Y0061000D01*
X0082714Y0061221D01*
X0082583Y0061446D01*
X0082458Y0061673D01*
X0082338Y0061904D01*
X0082224Y0062138D01*
X0082116Y0062374D01*
X0082013Y0062613D01*
X0081917Y0062855D01*
X0081826Y0063098D01*
X0081742Y0063344D01*
X0081663Y0063592D01*
X0081591Y0063842D01*
X0081524Y0064093D01*
X0081464Y0064346D01*
X0081411Y0064600D01*
X0081363Y0064856D01*
X0081322Y0065113D01*
X0081287Y0065370D01*
X0081258Y0065629D01*
X0081236Y0065888D01*
X0081220Y0066147D01*
X0081210Y0066407D01*
X0081207Y0066667D01*
X0079350Y0066667D02*
X0079354Y0066973D01*
X0079365Y0067278D01*
X0079384Y0067583D01*
X0079410Y0067887D01*
X0079444Y0068191D01*
X0079485Y0068494D01*
X0079533Y0068795D01*
X0079589Y0069096D01*
X0079653Y0069395D01*
X0079723Y0069692D01*
X0079801Y0069988D01*
X0079886Y0070281D01*
X0079978Y0070572D01*
X0080078Y0070861D01*
X0080184Y0071148D01*
X0080298Y0071431D01*
X0080418Y0071712D01*
X0080545Y0071990D01*
X0080679Y0072265D01*
X0080820Y0072536D01*
X0080967Y0072804D01*
X0081121Y0073068D01*
X0081282Y0073328D01*
X0081448Y0073584D01*
X0081621Y0073836D01*
X0081800Y0074083D01*
X0081985Y0074327D01*
X0082176Y0074565D01*
X0082373Y0074799D01*
X0082575Y0075028D01*
X0082783Y0075252D01*
X0082997Y0075470D01*
X0083215Y0075684D01*
X0083439Y0075892D01*
X0083668Y0076094D01*
X0083902Y0076291D01*
X0084140Y0076482D01*
X0084384Y0076667D01*
X0084631Y0076846D01*
X0084883Y0077019D01*
X0085139Y0077185D01*
X0085399Y0077346D01*
X0085663Y0077500D01*
X0085931Y0077647D01*
X0086202Y0077788D01*
X0086477Y0077922D01*
X0086755Y0078049D01*
X0087036Y0078169D01*
X0087319Y0078283D01*
X0087606Y0078389D01*
X0087895Y0078489D01*
X0088186Y0078581D01*
X0088479Y0078666D01*
X0088775Y0078744D01*
X0089072Y0078814D01*
X0089371Y0078878D01*
X0089672Y0078934D01*
X0089973Y0078982D01*
X0090276Y0079023D01*
X0090580Y0079057D01*
X0090884Y0079083D01*
X0091189Y0079102D01*
X0091494Y0079113D01*
X0091800Y0079117D01*
X0092106Y0079113D01*
X0092411Y0079102D01*
X0092716Y0079083D01*
X0093020Y0079057D01*
X0093324Y0079023D01*
X0093627Y0078982D01*
X0093928Y0078934D01*
X0094229Y0078878D01*
X0094528Y0078814D01*
X0094825Y0078744D01*
X0095121Y0078666D01*
X0095414Y0078581D01*
X0095705Y0078489D01*
X0095994Y0078389D01*
X0096281Y0078283D01*
X0096564Y0078169D01*
X0096845Y0078049D01*
X0097123Y0077922D01*
X0097398Y0077788D01*
X0097669Y0077647D01*
X0097937Y0077500D01*
X0098201Y0077346D01*
X0098461Y0077185D01*
X0098717Y0077019D01*
X0098969Y0076846D01*
X0099216Y0076667D01*
X0099460Y0076482D01*
X0099698Y0076291D01*
X0099932Y0076094D01*
X0100161Y0075892D01*
X0100385Y0075684D01*
X0100603Y0075470D01*
X0100817Y0075252D01*
X0101025Y0075028D01*
X0101227Y0074799D01*
X0101424Y0074565D01*
X0101615Y0074327D01*
X0101800Y0074083D01*
X0101979Y0073836D01*
X0102152Y0073584D01*
X0102318Y0073328D01*
X0102479Y0073068D01*
X0102633Y0072804D01*
X0102780Y0072536D01*
X0102921Y0072265D01*
X0103055Y0071990D01*
X0103182Y0071712D01*
X0103302Y0071431D01*
X0103416Y0071148D01*
X0103522Y0070861D01*
X0103622Y0070572D01*
X0103714Y0070281D01*
X0103799Y0069988D01*
X0103877Y0069692D01*
X0103947Y0069395D01*
X0104011Y0069096D01*
X0104067Y0068795D01*
X0104115Y0068494D01*
X0104156Y0068191D01*
X0104190Y0067887D01*
X0104216Y0067583D01*
X0104235Y0067278D01*
X0104246Y0066973D01*
X0104250Y0066667D01*
X0104246Y0066361D01*
X0104235Y0066056D01*
X0104216Y0065751D01*
X0104190Y0065447D01*
X0104156Y0065143D01*
X0104115Y0064840D01*
X0104067Y0064539D01*
X0104011Y0064238D01*
X0103947Y0063939D01*
X0103877Y0063642D01*
X0103799Y0063346D01*
X0103714Y0063053D01*
X0103622Y0062762D01*
X0103522Y0062473D01*
X0103416Y0062186D01*
X0103302Y0061903D01*
X0103182Y0061622D01*
X0103055Y0061344D01*
X0102921Y0061069D01*
X0102780Y0060798D01*
X0102633Y0060530D01*
X0102479Y0060266D01*
X0102318Y0060006D01*
X0102152Y0059750D01*
X0101979Y0059498D01*
X0101800Y0059251D01*
X0101615Y0059007D01*
X0101424Y0058769D01*
X0101227Y0058535D01*
X0101025Y0058306D01*
X0100817Y0058082D01*
X0100603Y0057864D01*
X0100385Y0057650D01*
X0100161Y0057442D01*
X0099932Y0057240D01*
X0099698Y0057043D01*
X0099460Y0056852D01*
X0099216Y0056667D01*
X0098969Y0056488D01*
X0098717Y0056315D01*
X0098461Y0056149D01*
X0098201Y0055988D01*
X0097937Y0055834D01*
X0097669Y0055687D01*
X0097398Y0055546D01*
X0097123Y0055412D01*
X0096845Y0055285D01*
X0096564Y0055165D01*
X0096281Y0055051D01*
X0095994Y0054945D01*
X0095705Y0054845D01*
X0095414Y0054753D01*
X0095121Y0054668D01*
X0094825Y0054590D01*
X0094528Y0054520D01*
X0094229Y0054456D01*
X0093928Y0054400D01*
X0093627Y0054352D01*
X0093324Y0054311D01*
X0093020Y0054277D01*
X0092716Y0054251D01*
X0092411Y0054232D01*
X0092106Y0054221D01*
X0091800Y0054217D01*
X0091494Y0054221D01*
X0091189Y0054232D01*
X0090884Y0054251D01*
X0090580Y0054277D01*
X0090276Y0054311D01*
X0089973Y0054352D01*
X0089672Y0054400D01*
X0089371Y0054456D01*
X0089072Y0054520D01*
X0088775Y0054590D01*
X0088479Y0054668D01*
X0088186Y0054753D01*
X0087895Y0054845D01*
X0087606Y0054945D01*
X0087319Y0055051D01*
X0087036Y0055165D01*
X0086755Y0055285D01*
X0086477Y0055412D01*
X0086202Y0055546D01*
X0085931Y0055687D01*
X0085663Y0055834D01*
X0085399Y0055988D01*
X0085139Y0056149D01*
X0084883Y0056315D01*
X0084631Y0056488D01*
X0084384Y0056667D01*
X0084140Y0056852D01*
X0083902Y0057043D01*
X0083668Y0057240D01*
X0083439Y0057442D01*
X0083215Y0057650D01*
X0082997Y0057864D01*
X0082783Y0058082D01*
X0082575Y0058306D01*
X0082373Y0058535D01*
X0082176Y0058769D01*
X0081985Y0059007D01*
X0081800Y0059251D01*
X0081621Y0059498D01*
X0081448Y0059750D01*
X0081282Y0060006D01*
X0081121Y0060266D01*
X0080967Y0060530D01*
X0080820Y0060798D01*
X0080679Y0061069D01*
X0080545Y0061344D01*
X0080418Y0061622D01*
X0080298Y0061903D01*
X0080184Y0062186D01*
X0080078Y0062473D01*
X0079978Y0062762D01*
X0079886Y0063053D01*
X0079801Y0063346D01*
X0079723Y0063642D01*
X0079653Y0063939D01*
X0079589Y0064238D01*
X0079533Y0064539D01*
X0079485Y0064840D01*
X0079444Y0065143D01*
X0079410Y0065447D01*
X0079384Y0065751D01*
X0079365Y0066056D01*
X0079354Y0066361D01*
X0079350Y0066667D01*
X0062036Y0080417D02*
X0062036Y0082917D01*
X0060802Y0081644D02*
X0063302Y0081644D01*
X0120802Y0081644D02*
X0123302Y0081644D01*
X0122036Y0080417D02*
X0122036Y0082917D01*
X0180802Y0081644D02*
X0183302Y0081644D01*
X0182036Y0080417D02*
X0182036Y0082917D01*
X0240802Y0081644D02*
X0243302Y0081644D01*
X0242036Y0080417D02*
X0242036Y0082917D01*
X0300802Y0081644D02*
X0303302Y0081644D01*
X0302036Y0080417D02*
X0302036Y0082917D01*
X0360802Y0081644D02*
X0363302Y0081644D01*
X0362036Y0080417D02*
X0362036Y0082917D01*
X0419802Y0081644D02*
X0422302Y0081644D01*
X0421036Y0080417D02*
X0421036Y0082917D01*
D11*
X0415136Y0062549D02*
X0412667Y0062549D01*
X0412050Y0061932D01*
X0412050Y0060698D01*
X0412667Y0060080D01*
X0415136Y0060080D01*
X0415753Y0060698D01*
X0415753Y0061932D01*
X0415136Y0062549D01*
X0415753Y0058866D02*
X0412667Y0058866D01*
X0412050Y0058249D01*
X0412050Y0057015D01*
X0412667Y0056397D01*
X0415753Y0056397D01*
X0415753Y0055183D02*
X0415753Y0052714D01*
X0414519Y0051500D02*
X0415753Y0050265D01*
X0412050Y0050265D01*
X0412050Y0049031D02*
X0412050Y0051500D01*
X0412050Y0053949D02*
X0415753Y0053949D01*
X0355753Y0053949D02*
X0352050Y0053949D01*
X0355753Y0055183D02*
X0355753Y0052714D01*
X0355136Y0051500D02*
X0355753Y0050883D01*
X0355753Y0049648D01*
X0355136Y0049031D01*
X0354519Y0049031D01*
X0352050Y0051500D01*
X0352050Y0049031D01*
X0352667Y0056397D02*
X0355753Y0056397D01*
X0352667Y0056397D02*
X0352050Y0057015D01*
X0352050Y0058249D01*
X0352667Y0058866D01*
X0355753Y0058866D01*
X0355136Y0060080D02*
X0355753Y0060698D01*
X0355753Y0061932D01*
X0355136Y0062549D01*
X0352667Y0062549D01*
X0352050Y0061932D01*
X0352050Y0060698D01*
X0352667Y0060080D01*
X0355136Y0060080D01*
X0295753Y0060698D02*
X0295136Y0060080D01*
X0292667Y0060080D01*
X0292050Y0060698D01*
X0292050Y0061932D01*
X0292667Y0062549D01*
X0295136Y0062549D01*
X0295753Y0061932D01*
X0295753Y0060698D01*
X0295753Y0058866D02*
X0292667Y0058866D01*
X0292050Y0058249D01*
X0292050Y0057015D01*
X0292667Y0056397D01*
X0295753Y0056397D01*
X0295753Y0055183D02*
X0295753Y0052714D01*
X0295136Y0051500D02*
X0295753Y0050883D01*
X0295753Y0049648D01*
X0295136Y0049031D01*
X0294519Y0049031D01*
X0293902Y0049648D01*
X0293284Y0049031D01*
X0292667Y0049031D01*
X0292050Y0049648D01*
X0292050Y0050883D01*
X0292667Y0051500D01*
X0293902Y0050265D02*
X0293902Y0049648D01*
X0292050Y0053949D02*
X0295753Y0053949D01*
X0235753Y0053949D02*
X0232050Y0053949D01*
X0235753Y0055183D02*
X0235753Y0052714D01*
X0233902Y0051500D02*
X0233902Y0049031D01*
X0235753Y0049648D02*
X0232050Y0049648D01*
X0233902Y0051500D02*
X0235753Y0049648D01*
X0235753Y0056397D02*
X0232667Y0056397D01*
X0232050Y0057015D01*
X0232050Y0058249D01*
X0232667Y0058866D01*
X0235753Y0058866D01*
X0235136Y0060080D02*
X0232667Y0060080D01*
X0232050Y0060698D01*
X0232050Y0061932D01*
X0232667Y0062549D01*
X0235136Y0062549D01*
X0235753Y0061932D01*
X0235753Y0060698D01*
X0235136Y0060080D01*
X0175753Y0060698D02*
X0175136Y0060080D01*
X0172667Y0060080D01*
X0172050Y0060698D01*
X0172050Y0061932D01*
X0172667Y0062549D01*
X0175136Y0062549D01*
X0175753Y0061932D01*
X0175753Y0060698D01*
X0175753Y0058866D02*
X0172667Y0058866D01*
X0172050Y0058249D01*
X0172050Y0057015D01*
X0172667Y0056397D01*
X0175753Y0056397D01*
X0175753Y0055183D02*
X0175753Y0052714D01*
X0175753Y0051500D02*
X0173902Y0051500D01*
X0174519Y0050265D01*
X0174519Y0049648D01*
X0173902Y0049031D01*
X0172667Y0049031D01*
X0172050Y0049648D01*
X0172050Y0050883D01*
X0172667Y0051500D01*
X0175753Y0051500D02*
X0175753Y0049031D01*
X0175753Y0053949D02*
X0172050Y0053949D01*
X0115753Y0053949D02*
X0112050Y0053949D01*
X0115753Y0055183D02*
X0115753Y0052714D01*
X0113902Y0051500D02*
X0112667Y0051500D01*
X0112050Y0050883D01*
X0112050Y0049648D01*
X0112667Y0049031D01*
X0113284Y0049031D01*
X0113902Y0049648D01*
X0113902Y0051500D01*
X0115136Y0050265D01*
X0115753Y0049031D01*
X0115753Y0056397D02*
X0112667Y0056397D01*
X0112050Y0057015D01*
X0112050Y0058249D01*
X0112667Y0058866D01*
X0115753Y0058866D01*
X0115136Y0060080D02*
X0112667Y0060080D01*
X0112050Y0060698D01*
X0112050Y0061932D01*
X0112667Y0062549D01*
X0115136Y0062549D01*
X0115753Y0061932D01*
X0115753Y0060698D01*
X0115136Y0060080D01*
X0055653Y0060632D02*
X0055653Y0059398D01*
X0055036Y0058780D01*
X0052567Y0058780D01*
X0051950Y0059398D01*
X0051950Y0060632D01*
X0052567Y0061249D01*
X0055036Y0061249D01*
X0055653Y0060632D01*
X0055653Y0057566D02*
X0052567Y0057566D01*
X0051950Y0056949D01*
X0051950Y0055715D01*
X0052567Y0055097D01*
X0055653Y0055097D01*
X0055653Y0053883D02*
X0055653Y0051414D01*
X0055653Y0050200D02*
X0055653Y0047731D01*
X0055036Y0047731D01*
X0052567Y0050200D01*
X0051950Y0050200D01*
X0051950Y0052649D02*
X0055653Y0052649D01*
X0147050Y0028115D02*
X0147050Y0026881D01*
X0147667Y0026264D01*
X0150136Y0026264D01*
X0150753Y0026881D01*
X0150753Y0028115D01*
X0150136Y0028732D01*
X0147667Y0028732D01*
X0147050Y0028115D01*
X0147667Y0025049D02*
X0147050Y0024432D01*
X0147050Y0023198D01*
X0147667Y0022580D01*
X0150753Y0022580D01*
X0150753Y0021366D02*
X0150753Y0018897D01*
X0150753Y0020132D02*
X0147050Y0020132D01*
X0148902Y0017683D02*
X0148902Y0015214D01*
X0147667Y0014000D02*
X0147050Y0014000D01*
X0147667Y0014000D02*
X0150136Y0011531D01*
X0150753Y0011531D01*
X0150753Y0014000D01*
X0150753Y0015831D02*
X0147050Y0015831D01*
X0148902Y0017683D02*
X0150753Y0015831D01*
X0150753Y0025049D02*
X0147667Y0025049D01*
X0088253Y0023815D02*
X0084550Y0023815D01*
X0084550Y0025049D02*
X0084550Y0022580D01*
X0084550Y0021366D02*
X0087019Y0018897D01*
X0087636Y0018897D01*
X0088253Y0019515D01*
X0088253Y0020749D01*
X0087636Y0021366D01*
X0084550Y0021366D02*
X0084550Y0018897D01*
X0086402Y0017683D02*
X0086402Y0015214D01*
X0085167Y0014000D02*
X0084550Y0014000D01*
X0085167Y0014000D02*
X0087636Y0011531D01*
X0088253Y0011531D01*
X0088253Y0014000D01*
X0088253Y0015831D02*
X0084550Y0015831D01*
X0086402Y0017683D02*
X0088253Y0015831D01*
X0088253Y0023815D02*
X0087019Y0025049D01*
X0324550Y0024432D02*
X0324550Y0023198D01*
X0325167Y0022580D01*
X0328253Y0022580D01*
X0328253Y0021366D02*
X0328253Y0018897D01*
X0328253Y0020132D02*
X0324550Y0020132D01*
X0324550Y0017683D02*
X0327019Y0015214D01*
X0327636Y0015214D01*
X0328253Y0015831D01*
X0328253Y0017066D01*
X0327636Y0017683D01*
X0324550Y0017683D02*
X0324550Y0015214D01*
X0326402Y0014000D02*
X0326402Y0011531D01*
X0328253Y0012148D02*
X0326402Y0014000D01*
X0328253Y0012148D02*
X0324550Y0012148D01*
X0324550Y0024432D02*
X0325167Y0025049D01*
X0328253Y0025049D01*
X0327636Y0026264D02*
X0325167Y0026264D01*
X0324550Y0026881D01*
X0324550Y0028115D01*
X0325167Y0028732D01*
X0327636Y0028732D01*
X0328253Y0028115D01*
X0328253Y0026881D01*
X0327636Y0026264D01*
X0382050Y0026881D02*
X0382667Y0026264D01*
X0385136Y0026264D01*
X0385753Y0026881D01*
X0385753Y0028115D01*
X0385136Y0028732D01*
X0382667Y0028732D01*
X0382050Y0028115D01*
X0382050Y0026881D01*
X0382667Y0025049D02*
X0382050Y0024432D01*
X0382050Y0023198D01*
X0382667Y0022580D01*
X0385753Y0022580D01*
X0385753Y0021366D02*
X0385753Y0018897D01*
X0385753Y0020132D02*
X0382050Y0020132D01*
X0382050Y0017683D02*
X0382050Y0015214D01*
X0382050Y0014000D02*
X0384519Y0011531D01*
X0385136Y0011531D01*
X0385753Y0012148D01*
X0385753Y0013383D01*
X0385136Y0014000D01*
X0382050Y0014000D02*
X0382050Y0011531D01*
X0382050Y0016449D02*
X0385753Y0016449D01*
X0384519Y0017683D01*
X0385753Y0025049D02*
X0382667Y0025049D01*
D12*
X0385600Y0034167D02*
X0385600Y0044167D01*
X0398613Y0043360D02*
X0398712Y0043195D01*
X0398807Y0043028D01*
X0398897Y0042859D01*
X0398984Y0042688D01*
X0399066Y0042514D01*
X0399144Y0042339D01*
X0399218Y0042162D01*
X0399288Y0041983D01*
X0399353Y0041803D01*
X0399414Y0041621D01*
X0399471Y0041438D01*
X0399523Y0041253D01*
X0399571Y0041067D01*
X0399614Y0040880D01*
X0399653Y0040692D01*
X0399688Y0040504D01*
X0399717Y0040314D01*
X0399743Y0040124D01*
X0399763Y0039933D01*
X0399779Y0039742D01*
X0399791Y0039550D01*
X0399798Y0039359D01*
X0399800Y0039167D01*
X0398746Y0043136D02*
X0398647Y0043305D01*
X0398543Y0043471D01*
X0398436Y0043635D01*
X0398325Y0043796D01*
X0398210Y0043954D01*
X0398091Y0044109D01*
X0397968Y0044262D01*
X0397842Y0044411D01*
X0397712Y0044557D01*
X0397578Y0044700D01*
X0397441Y0044840D01*
X0397301Y0044976D01*
X0397157Y0045109D01*
X0397010Y0045238D01*
X0396860Y0045364D01*
X0396707Y0045485D01*
X0396551Y0045604D01*
X0396392Y0045718D01*
X0396231Y0045828D01*
X0396066Y0045934D01*
X0395900Y0046037D01*
X0395730Y0046135D01*
X0395559Y0046229D01*
X0395385Y0046319D01*
X0395209Y0046404D01*
X0395031Y0046486D01*
X0394851Y0046562D01*
X0394669Y0046635D01*
X0394486Y0046703D01*
X0394301Y0046766D01*
X0394114Y0046825D01*
X0393926Y0046879D01*
X0393737Y0046929D01*
X0393547Y0046974D01*
X0393355Y0047014D01*
X0393163Y0047050D01*
X0392970Y0047081D01*
X0392776Y0047107D01*
X0392581Y0047129D01*
X0392386Y0047145D01*
X0392191Y0047157D01*
X0391995Y0047165D01*
X0391800Y0047167D01*
X0399800Y0039167D02*
X0399798Y0038979D01*
X0399791Y0038791D01*
X0399780Y0038603D01*
X0399765Y0038415D01*
X0399745Y0038228D01*
X0399720Y0038042D01*
X0399692Y0037856D01*
X0399659Y0037670D01*
X0399621Y0037486D01*
X0399580Y0037303D01*
X0399534Y0037120D01*
X0399483Y0036939D01*
X0399429Y0036759D01*
X0399370Y0036580D01*
X0399307Y0036403D01*
X0399240Y0036227D01*
X0399169Y0036053D01*
X0399094Y0035880D01*
X0399014Y0035710D01*
X0398931Y0035541D01*
X0398844Y0035374D01*
X0391800Y0031167D02*
X0391605Y0031169D01*
X0391411Y0031176D01*
X0391217Y0031188D01*
X0391023Y0031205D01*
X0390829Y0031226D01*
X0390636Y0031252D01*
X0390444Y0031283D01*
X0390252Y0031318D01*
X0390062Y0031358D01*
X0389872Y0031403D01*
X0389684Y0031452D01*
X0389497Y0031506D01*
X0389311Y0031564D01*
X0389127Y0031627D01*
X0388944Y0031694D01*
X0388763Y0031766D01*
X0388584Y0031842D01*
X0388407Y0031922D01*
X0388232Y0032007D01*
X0388058Y0032096D01*
X0387888Y0032189D01*
X0387719Y0032286D01*
X0387553Y0032388D01*
X0387389Y0032493D01*
X0387228Y0032602D01*
X0387069Y0032715D01*
X0386914Y0032832D01*
X0386761Y0032953D01*
X0386612Y0033078D01*
X0386465Y0033206D01*
X0386321Y0033337D01*
X0386181Y0033472D01*
X0386044Y0033611D01*
X0385911Y0033752D01*
X0385781Y0033897D01*
X0385654Y0034045D01*
X0391800Y0031167D02*
X0391992Y0031169D01*
X0392184Y0031176D01*
X0392376Y0031188D01*
X0392568Y0031204D01*
X0392759Y0031225D01*
X0392949Y0031250D01*
X0393139Y0031280D01*
X0393328Y0031314D01*
X0393516Y0031353D01*
X0393703Y0031397D01*
X0393889Y0031445D01*
X0394074Y0031497D01*
X0394258Y0031554D01*
X0394440Y0031615D01*
X0394620Y0031681D01*
X0394799Y0031751D01*
X0394977Y0031825D01*
X0395152Y0031903D01*
X0395326Y0031986D01*
X0395497Y0032073D01*
X0395666Y0032163D01*
X0395833Y0032258D01*
X0395998Y0032357D01*
X0396161Y0032460D01*
X0396320Y0032567D01*
X0396478Y0032677D01*
X0396632Y0032791D01*
X0396784Y0032909D01*
X0396933Y0033031D01*
X0397079Y0033156D01*
X0397221Y0033284D01*
X0397361Y0033416D01*
X0397498Y0033551D01*
X0397631Y0033690D01*
X0397761Y0033831D01*
X0397887Y0033976D01*
X0398010Y0034124D01*
X0398129Y0034274D01*
X0398245Y0034428D01*
X0398357Y0034584D01*
X0398465Y0034743D01*
X0398570Y0034904D01*
X0398670Y0035068D01*
X0398766Y0035234D01*
X0398859Y0035402D01*
X0391800Y0047167D02*
X0391607Y0047165D01*
X0391414Y0047158D01*
X0391222Y0047146D01*
X0391029Y0047130D01*
X0390837Y0047109D01*
X0390646Y0047083D01*
X0390456Y0047053D01*
X0390266Y0047018D01*
X0390077Y0046979D01*
X0389889Y0046935D01*
X0389702Y0046887D01*
X0389516Y0046834D01*
X0389332Y0046777D01*
X0389149Y0046715D01*
X0388968Y0046649D01*
X0388788Y0046578D01*
X0388610Y0046504D01*
X0388434Y0046425D01*
X0388260Y0046341D01*
X0388088Y0046254D01*
X0387918Y0046162D01*
X0387751Y0046066D01*
X0387585Y0045967D01*
X0387422Y0045863D01*
X0387262Y0045756D01*
X0387105Y0045644D01*
X0386950Y0045529D01*
X0386798Y0045410D01*
X0386649Y0045288D01*
X0386502Y0045162D01*
X0386359Y0045032D01*
X0386219Y0044899D01*
X0386083Y0044763D01*
X0385949Y0044623D01*
X0385820Y0044481D01*
X0385693Y0044335D01*
X0338746Y0043136D02*
X0338647Y0043305D01*
X0338543Y0043471D01*
X0338436Y0043635D01*
X0338325Y0043796D01*
X0338210Y0043954D01*
X0338091Y0044109D01*
X0337968Y0044262D01*
X0337842Y0044411D01*
X0337712Y0044557D01*
X0337578Y0044700D01*
X0337441Y0044840D01*
X0337301Y0044976D01*
X0337157Y0045109D01*
X0337010Y0045238D01*
X0336860Y0045364D01*
X0336707Y0045485D01*
X0336551Y0045604D01*
X0336392Y0045718D01*
X0336231Y0045828D01*
X0336066Y0045934D01*
X0335900Y0046037D01*
X0335730Y0046135D01*
X0335559Y0046229D01*
X0335385Y0046319D01*
X0335209Y0046404D01*
X0335031Y0046486D01*
X0334851Y0046562D01*
X0334669Y0046635D01*
X0334486Y0046703D01*
X0334301Y0046766D01*
X0334114Y0046825D01*
X0333926Y0046879D01*
X0333737Y0046929D01*
X0333547Y0046974D01*
X0333355Y0047014D01*
X0333163Y0047050D01*
X0332970Y0047081D01*
X0332776Y0047107D01*
X0332581Y0047129D01*
X0332386Y0047145D01*
X0332191Y0047157D01*
X0331995Y0047165D01*
X0331800Y0047167D01*
X0325600Y0044167D02*
X0325600Y0034167D01*
X0331800Y0031167D02*
X0331992Y0031169D01*
X0332184Y0031176D01*
X0332376Y0031188D01*
X0332568Y0031204D01*
X0332759Y0031225D01*
X0332949Y0031250D01*
X0333139Y0031280D01*
X0333328Y0031314D01*
X0333516Y0031353D01*
X0333703Y0031397D01*
X0333889Y0031445D01*
X0334074Y0031497D01*
X0334258Y0031554D01*
X0334440Y0031615D01*
X0334620Y0031681D01*
X0334799Y0031751D01*
X0334977Y0031825D01*
X0335152Y0031903D01*
X0335326Y0031986D01*
X0335497Y0032073D01*
X0335666Y0032163D01*
X0335833Y0032258D01*
X0335998Y0032357D01*
X0336161Y0032460D01*
X0336320Y0032567D01*
X0336478Y0032677D01*
X0336632Y0032791D01*
X0336784Y0032909D01*
X0336933Y0033031D01*
X0337079Y0033156D01*
X0337221Y0033284D01*
X0337361Y0033416D01*
X0337498Y0033551D01*
X0337631Y0033690D01*
X0337761Y0033831D01*
X0337887Y0033976D01*
X0338010Y0034124D01*
X0338129Y0034274D01*
X0338245Y0034428D01*
X0338357Y0034584D01*
X0338465Y0034743D01*
X0338570Y0034904D01*
X0338670Y0035068D01*
X0338766Y0035234D01*
X0338859Y0035402D01*
X0338844Y0035374D02*
X0338931Y0035541D01*
X0339014Y0035710D01*
X0339094Y0035880D01*
X0339169Y0036053D01*
X0339240Y0036227D01*
X0339307Y0036403D01*
X0339370Y0036580D01*
X0339429Y0036759D01*
X0339483Y0036939D01*
X0339534Y0037120D01*
X0339580Y0037303D01*
X0339621Y0037486D01*
X0339659Y0037670D01*
X0339692Y0037856D01*
X0339720Y0038042D01*
X0339745Y0038228D01*
X0339765Y0038415D01*
X0339780Y0038603D01*
X0339791Y0038791D01*
X0339798Y0038979D01*
X0339800Y0039167D01*
X0339798Y0039359D01*
X0339791Y0039550D01*
X0339779Y0039742D01*
X0339763Y0039933D01*
X0339743Y0040124D01*
X0339717Y0040314D01*
X0339688Y0040504D01*
X0339653Y0040692D01*
X0339614Y0040880D01*
X0339571Y0041067D01*
X0339523Y0041253D01*
X0339471Y0041438D01*
X0339414Y0041621D01*
X0339353Y0041803D01*
X0339288Y0041983D01*
X0339218Y0042162D01*
X0339144Y0042339D01*
X0339066Y0042514D01*
X0338984Y0042688D01*
X0338897Y0042859D01*
X0338807Y0043028D01*
X0338712Y0043195D01*
X0338613Y0043360D01*
X0331800Y0031167D02*
X0331605Y0031169D01*
X0331411Y0031176D01*
X0331217Y0031188D01*
X0331023Y0031205D01*
X0330829Y0031226D01*
X0330636Y0031252D01*
X0330444Y0031283D01*
X0330252Y0031318D01*
X0330062Y0031358D01*
X0329872Y0031403D01*
X0329684Y0031452D01*
X0329497Y0031506D01*
X0329311Y0031564D01*
X0329127Y0031627D01*
X0328944Y0031694D01*
X0328763Y0031766D01*
X0328584Y0031842D01*
X0328407Y0031922D01*
X0328232Y0032007D01*
X0328058Y0032096D01*
X0327888Y0032189D01*
X0327719Y0032286D01*
X0327553Y0032388D01*
X0327389Y0032493D01*
X0327228Y0032602D01*
X0327069Y0032715D01*
X0326914Y0032832D01*
X0326761Y0032953D01*
X0326612Y0033078D01*
X0326465Y0033206D01*
X0326321Y0033337D01*
X0326181Y0033472D01*
X0326044Y0033611D01*
X0325911Y0033752D01*
X0325781Y0033897D01*
X0325654Y0034045D01*
X0325693Y0044335D02*
X0325820Y0044481D01*
X0325949Y0044623D01*
X0326083Y0044763D01*
X0326219Y0044899D01*
X0326359Y0045032D01*
X0326502Y0045162D01*
X0326649Y0045288D01*
X0326798Y0045410D01*
X0326950Y0045529D01*
X0327105Y0045644D01*
X0327262Y0045756D01*
X0327422Y0045863D01*
X0327585Y0045967D01*
X0327751Y0046066D01*
X0327918Y0046162D01*
X0328088Y0046254D01*
X0328260Y0046341D01*
X0328434Y0046425D01*
X0328610Y0046504D01*
X0328788Y0046578D01*
X0328968Y0046649D01*
X0329149Y0046715D01*
X0329332Y0046777D01*
X0329516Y0046834D01*
X0329702Y0046887D01*
X0329889Y0046935D01*
X0330077Y0046979D01*
X0330266Y0047018D01*
X0330456Y0047053D01*
X0330646Y0047083D01*
X0330837Y0047109D01*
X0331029Y0047130D01*
X0331222Y0047146D01*
X0331414Y0047158D01*
X0331607Y0047165D01*
X0331800Y0047167D01*
X0353100Y0071667D02*
X0353100Y0081667D01*
X0366113Y0080860D02*
X0366212Y0080695D01*
X0366307Y0080528D01*
X0366397Y0080359D01*
X0366484Y0080188D01*
X0366566Y0080014D01*
X0366644Y0079839D01*
X0366718Y0079662D01*
X0366788Y0079483D01*
X0366853Y0079303D01*
X0366914Y0079121D01*
X0366971Y0078938D01*
X0367023Y0078753D01*
X0367071Y0078567D01*
X0367114Y0078380D01*
X0367153Y0078192D01*
X0367188Y0078004D01*
X0367217Y0077814D01*
X0367243Y0077624D01*
X0367263Y0077433D01*
X0367279Y0077242D01*
X0367291Y0077050D01*
X0367298Y0076859D01*
X0367300Y0076667D01*
X0366246Y0080636D02*
X0366147Y0080805D01*
X0366043Y0080971D01*
X0365936Y0081135D01*
X0365825Y0081296D01*
X0365710Y0081454D01*
X0365591Y0081609D01*
X0365468Y0081762D01*
X0365342Y0081911D01*
X0365212Y0082057D01*
X0365078Y0082200D01*
X0364941Y0082340D01*
X0364801Y0082476D01*
X0364657Y0082609D01*
X0364510Y0082738D01*
X0364360Y0082864D01*
X0364207Y0082985D01*
X0364051Y0083104D01*
X0363892Y0083218D01*
X0363731Y0083328D01*
X0363566Y0083434D01*
X0363400Y0083537D01*
X0363230Y0083635D01*
X0363059Y0083729D01*
X0362885Y0083819D01*
X0362709Y0083904D01*
X0362531Y0083986D01*
X0362351Y0084062D01*
X0362169Y0084135D01*
X0361986Y0084203D01*
X0361801Y0084266D01*
X0361614Y0084325D01*
X0361426Y0084379D01*
X0361237Y0084429D01*
X0361047Y0084474D01*
X0360855Y0084514D01*
X0360663Y0084550D01*
X0360470Y0084581D01*
X0360276Y0084607D01*
X0360081Y0084629D01*
X0359886Y0084645D01*
X0359691Y0084657D01*
X0359495Y0084665D01*
X0359300Y0084667D01*
X0367300Y0076667D02*
X0367298Y0076479D01*
X0367291Y0076291D01*
X0367280Y0076103D01*
X0367265Y0075915D01*
X0367245Y0075728D01*
X0367220Y0075542D01*
X0367192Y0075356D01*
X0367159Y0075170D01*
X0367121Y0074986D01*
X0367080Y0074803D01*
X0367034Y0074620D01*
X0366983Y0074439D01*
X0366929Y0074259D01*
X0366870Y0074080D01*
X0366807Y0073903D01*
X0366740Y0073727D01*
X0366669Y0073553D01*
X0366594Y0073380D01*
X0366514Y0073210D01*
X0366431Y0073041D01*
X0366344Y0072874D01*
X0359300Y0068667D02*
X0359105Y0068669D01*
X0358911Y0068676D01*
X0358717Y0068688D01*
X0358523Y0068705D01*
X0358329Y0068726D01*
X0358136Y0068752D01*
X0357944Y0068783D01*
X0357752Y0068818D01*
X0357562Y0068858D01*
X0357372Y0068903D01*
X0357184Y0068952D01*
X0356997Y0069006D01*
X0356811Y0069064D01*
X0356627Y0069127D01*
X0356444Y0069194D01*
X0356263Y0069266D01*
X0356084Y0069342D01*
X0355907Y0069422D01*
X0355732Y0069507D01*
X0355558Y0069596D01*
X0355388Y0069689D01*
X0355219Y0069786D01*
X0355053Y0069888D01*
X0354889Y0069993D01*
X0354728Y0070102D01*
X0354569Y0070215D01*
X0354414Y0070332D01*
X0354261Y0070453D01*
X0354112Y0070578D01*
X0353965Y0070706D01*
X0353821Y0070837D01*
X0353681Y0070972D01*
X0353544Y0071111D01*
X0353411Y0071252D01*
X0353281Y0071397D01*
X0353154Y0071545D01*
X0359300Y0068667D02*
X0359492Y0068669D01*
X0359684Y0068676D01*
X0359876Y0068688D01*
X0360068Y0068704D01*
X0360259Y0068725D01*
X0360449Y0068750D01*
X0360639Y0068780D01*
X0360828Y0068814D01*
X0361016Y0068853D01*
X0361203Y0068897D01*
X0361389Y0068945D01*
X0361574Y0068997D01*
X0361758Y0069054D01*
X0361940Y0069115D01*
X0362120Y0069181D01*
X0362299Y0069251D01*
X0362477Y0069325D01*
X0362652Y0069403D01*
X0362826Y0069486D01*
X0362997Y0069573D01*
X0363166Y0069663D01*
X0363333Y0069758D01*
X0363498Y0069857D01*
X0363661Y0069960D01*
X0363820Y0070067D01*
X0363978Y0070177D01*
X0364132Y0070291D01*
X0364284Y0070409D01*
X0364433Y0070531D01*
X0364579Y0070656D01*
X0364721Y0070784D01*
X0364861Y0070916D01*
X0364998Y0071051D01*
X0365131Y0071190D01*
X0365261Y0071331D01*
X0365387Y0071476D01*
X0365510Y0071624D01*
X0365629Y0071774D01*
X0365745Y0071928D01*
X0365857Y0072084D01*
X0365965Y0072243D01*
X0366070Y0072404D01*
X0366170Y0072568D01*
X0366266Y0072734D01*
X0366359Y0072902D01*
X0359300Y0084667D02*
X0359107Y0084665D01*
X0358914Y0084658D01*
X0358722Y0084646D01*
X0358529Y0084630D01*
X0358337Y0084609D01*
X0358146Y0084583D01*
X0357956Y0084553D01*
X0357766Y0084518D01*
X0357577Y0084479D01*
X0357389Y0084435D01*
X0357202Y0084387D01*
X0357016Y0084334D01*
X0356832Y0084277D01*
X0356649Y0084215D01*
X0356468Y0084149D01*
X0356288Y0084078D01*
X0356110Y0084004D01*
X0355934Y0083925D01*
X0355760Y0083841D01*
X0355588Y0083754D01*
X0355418Y0083662D01*
X0355251Y0083566D01*
X0355085Y0083467D01*
X0354922Y0083363D01*
X0354762Y0083256D01*
X0354605Y0083144D01*
X0354450Y0083029D01*
X0354298Y0082910D01*
X0354149Y0082788D01*
X0354002Y0082662D01*
X0353859Y0082532D01*
X0353719Y0082399D01*
X0353583Y0082263D01*
X0353449Y0082123D01*
X0353320Y0081981D01*
X0353193Y0081835D01*
X0306246Y0080636D02*
X0306147Y0080805D01*
X0306043Y0080971D01*
X0305936Y0081135D01*
X0305825Y0081296D01*
X0305710Y0081454D01*
X0305591Y0081609D01*
X0305468Y0081762D01*
X0305342Y0081911D01*
X0305212Y0082057D01*
X0305078Y0082200D01*
X0304941Y0082340D01*
X0304801Y0082476D01*
X0304657Y0082609D01*
X0304510Y0082738D01*
X0304360Y0082864D01*
X0304207Y0082985D01*
X0304051Y0083104D01*
X0303892Y0083218D01*
X0303731Y0083328D01*
X0303566Y0083434D01*
X0303400Y0083537D01*
X0303230Y0083635D01*
X0303059Y0083729D01*
X0302885Y0083819D01*
X0302709Y0083904D01*
X0302531Y0083986D01*
X0302351Y0084062D01*
X0302169Y0084135D01*
X0301986Y0084203D01*
X0301801Y0084266D01*
X0301614Y0084325D01*
X0301426Y0084379D01*
X0301237Y0084429D01*
X0301047Y0084474D01*
X0300855Y0084514D01*
X0300663Y0084550D01*
X0300470Y0084581D01*
X0300276Y0084607D01*
X0300081Y0084629D01*
X0299886Y0084645D01*
X0299691Y0084657D01*
X0299495Y0084665D01*
X0299300Y0084667D01*
X0293100Y0081667D02*
X0293100Y0071667D01*
X0299300Y0068667D02*
X0299492Y0068669D01*
X0299684Y0068676D01*
X0299876Y0068688D01*
X0300068Y0068704D01*
X0300259Y0068725D01*
X0300449Y0068750D01*
X0300639Y0068780D01*
X0300828Y0068814D01*
X0301016Y0068853D01*
X0301203Y0068897D01*
X0301389Y0068945D01*
X0301574Y0068997D01*
X0301758Y0069054D01*
X0301940Y0069115D01*
X0302120Y0069181D01*
X0302299Y0069251D01*
X0302477Y0069325D01*
X0302652Y0069403D01*
X0302826Y0069486D01*
X0302997Y0069573D01*
X0303166Y0069663D01*
X0303333Y0069758D01*
X0303498Y0069857D01*
X0303661Y0069960D01*
X0303820Y0070067D01*
X0303978Y0070177D01*
X0304132Y0070291D01*
X0304284Y0070409D01*
X0304433Y0070531D01*
X0304579Y0070656D01*
X0304721Y0070784D01*
X0304861Y0070916D01*
X0304998Y0071051D01*
X0305131Y0071190D01*
X0305261Y0071331D01*
X0305387Y0071476D01*
X0305510Y0071624D01*
X0305629Y0071774D01*
X0305745Y0071928D01*
X0305857Y0072084D01*
X0305965Y0072243D01*
X0306070Y0072404D01*
X0306170Y0072568D01*
X0306266Y0072734D01*
X0306359Y0072902D01*
X0306344Y0072874D02*
X0306431Y0073041D01*
X0306514Y0073210D01*
X0306594Y0073380D01*
X0306669Y0073553D01*
X0306740Y0073727D01*
X0306807Y0073903D01*
X0306870Y0074080D01*
X0306929Y0074259D01*
X0306983Y0074439D01*
X0307034Y0074620D01*
X0307080Y0074803D01*
X0307121Y0074986D01*
X0307159Y0075170D01*
X0307192Y0075356D01*
X0307220Y0075542D01*
X0307245Y0075728D01*
X0307265Y0075915D01*
X0307280Y0076103D01*
X0307291Y0076291D01*
X0307298Y0076479D01*
X0307300Y0076667D01*
X0307298Y0076859D01*
X0307291Y0077050D01*
X0307279Y0077242D01*
X0307263Y0077433D01*
X0307243Y0077624D01*
X0307217Y0077814D01*
X0307188Y0078004D01*
X0307153Y0078192D01*
X0307114Y0078380D01*
X0307071Y0078567D01*
X0307023Y0078753D01*
X0306971Y0078938D01*
X0306914Y0079121D01*
X0306853Y0079303D01*
X0306788Y0079483D01*
X0306718Y0079662D01*
X0306644Y0079839D01*
X0306566Y0080014D01*
X0306484Y0080188D01*
X0306397Y0080359D01*
X0306307Y0080528D01*
X0306212Y0080695D01*
X0306113Y0080860D01*
X0299300Y0068667D02*
X0299105Y0068669D01*
X0298911Y0068676D01*
X0298717Y0068688D01*
X0298523Y0068705D01*
X0298329Y0068726D01*
X0298136Y0068752D01*
X0297944Y0068783D01*
X0297752Y0068818D01*
X0297562Y0068858D01*
X0297372Y0068903D01*
X0297184Y0068952D01*
X0296997Y0069006D01*
X0296811Y0069064D01*
X0296627Y0069127D01*
X0296444Y0069194D01*
X0296263Y0069266D01*
X0296084Y0069342D01*
X0295907Y0069422D01*
X0295732Y0069507D01*
X0295558Y0069596D01*
X0295388Y0069689D01*
X0295219Y0069786D01*
X0295053Y0069888D01*
X0294889Y0069993D01*
X0294728Y0070102D01*
X0294569Y0070215D01*
X0294414Y0070332D01*
X0294261Y0070453D01*
X0294112Y0070578D01*
X0293965Y0070706D01*
X0293821Y0070837D01*
X0293681Y0070972D01*
X0293544Y0071111D01*
X0293411Y0071252D01*
X0293281Y0071397D01*
X0293154Y0071545D01*
X0293193Y0081835D02*
X0293320Y0081981D01*
X0293449Y0082123D01*
X0293583Y0082263D01*
X0293719Y0082399D01*
X0293859Y0082532D01*
X0294002Y0082662D01*
X0294149Y0082788D01*
X0294298Y0082910D01*
X0294450Y0083029D01*
X0294605Y0083144D01*
X0294762Y0083256D01*
X0294922Y0083363D01*
X0295085Y0083467D01*
X0295251Y0083566D01*
X0295418Y0083662D01*
X0295588Y0083754D01*
X0295760Y0083841D01*
X0295934Y0083925D01*
X0296110Y0084004D01*
X0296288Y0084078D01*
X0296468Y0084149D01*
X0296649Y0084215D01*
X0296832Y0084277D01*
X0297016Y0084334D01*
X0297202Y0084387D01*
X0297389Y0084435D01*
X0297577Y0084479D01*
X0297766Y0084518D01*
X0297956Y0084553D01*
X0298146Y0084583D01*
X0298337Y0084609D01*
X0298529Y0084630D01*
X0298722Y0084646D01*
X0298914Y0084658D01*
X0299107Y0084665D01*
X0299300Y0084667D01*
X0246246Y0080636D02*
X0246147Y0080805D01*
X0246043Y0080971D01*
X0245936Y0081135D01*
X0245825Y0081296D01*
X0245710Y0081454D01*
X0245591Y0081609D01*
X0245468Y0081762D01*
X0245342Y0081911D01*
X0245212Y0082057D01*
X0245078Y0082200D01*
X0244941Y0082340D01*
X0244801Y0082476D01*
X0244657Y0082609D01*
X0244510Y0082738D01*
X0244360Y0082864D01*
X0244207Y0082985D01*
X0244051Y0083104D01*
X0243892Y0083218D01*
X0243731Y0083328D01*
X0243566Y0083434D01*
X0243400Y0083537D01*
X0243230Y0083635D01*
X0243059Y0083729D01*
X0242885Y0083819D01*
X0242709Y0083904D01*
X0242531Y0083986D01*
X0242351Y0084062D01*
X0242169Y0084135D01*
X0241986Y0084203D01*
X0241801Y0084266D01*
X0241614Y0084325D01*
X0241426Y0084379D01*
X0241237Y0084429D01*
X0241047Y0084474D01*
X0240855Y0084514D01*
X0240663Y0084550D01*
X0240470Y0084581D01*
X0240276Y0084607D01*
X0240081Y0084629D01*
X0239886Y0084645D01*
X0239691Y0084657D01*
X0239495Y0084665D01*
X0239300Y0084667D01*
X0233100Y0081667D02*
X0233100Y0071667D01*
X0239300Y0068667D02*
X0239492Y0068669D01*
X0239684Y0068676D01*
X0239876Y0068688D01*
X0240068Y0068704D01*
X0240259Y0068725D01*
X0240449Y0068750D01*
X0240639Y0068780D01*
X0240828Y0068814D01*
X0241016Y0068853D01*
X0241203Y0068897D01*
X0241389Y0068945D01*
X0241574Y0068997D01*
X0241758Y0069054D01*
X0241940Y0069115D01*
X0242120Y0069181D01*
X0242299Y0069251D01*
X0242477Y0069325D01*
X0242652Y0069403D01*
X0242826Y0069486D01*
X0242997Y0069573D01*
X0243166Y0069663D01*
X0243333Y0069758D01*
X0243498Y0069857D01*
X0243661Y0069960D01*
X0243820Y0070067D01*
X0243978Y0070177D01*
X0244132Y0070291D01*
X0244284Y0070409D01*
X0244433Y0070531D01*
X0244579Y0070656D01*
X0244721Y0070784D01*
X0244861Y0070916D01*
X0244998Y0071051D01*
X0245131Y0071190D01*
X0245261Y0071331D01*
X0245387Y0071476D01*
X0245510Y0071624D01*
X0245629Y0071774D01*
X0245745Y0071928D01*
X0245857Y0072084D01*
X0245965Y0072243D01*
X0246070Y0072404D01*
X0246170Y0072568D01*
X0246266Y0072734D01*
X0246359Y0072902D01*
X0246344Y0072874D02*
X0246431Y0073041D01*
X0246514Y0073210D01*
X0246594Y0073380D01*
X0246669Y0073553D01*
X0246740Y0073727D01*
X0246807Y0073903D01*
X0246870Y0074080D01*
X0246929Y0074259D01*
X0246983Y0074439D01*
X0247034Y0074620D01*
X0247080Y0074803D01*
X0247121Y0074986D01*
X0247159Y0075170D01*
X0247192Y0075356D01*
X0247220Y0075542D01*
X0247245Y0075728D01*
X0247265Y0075915D01*
X0247280Y0076103D01*
X0247291Y0076291D01*
X0247298Y0076479D01*
X0247300Y0076667D01*
X0247298Y0076859D01*
X0247291Y0077050D01*
X0247279Y0077242D01*
X0247263Y0077433D01*
X0247243Y0077624D01*
X0247217Y0077814D01*
X0247188Y0078004D01*
X0247153Y0078192D01*
X0247114Y0078380D01*
X0247071Y0078567D01*
X0247023Y0078753D01*
X0246971Y0078938D01*
X0246914Y0079121D01*
X0246853Y0079303D01*
X0246788Y0079483D01*
X0246718Y0079662D01*
X0246644Y0079839D01*
X0246566Y0080014D01*
X0246484Y0080188D01*
X0246397Y0080359D01*
X0246307Y0080528D01*
X0246212Y0080695D01*
X0246113Y0080860D01*
X0239300Y0068667D02*
X0239105Y0068669D01*
X0238911Y0068676D01*
X0238717Y0068688D01*
X0238523Y0068705D01*
X0238329Y0068726D01*
X0238136Y0068752D01*
X0237944Y0068783D01*
X0237752Y0068818D01*
X0237562Y0068858D01*
X0237372Y0068903D01*
X0237184Y0068952D01*
X0236997Y0069006D01*
X0236811Y0069064D01*
X0236627Y0069127D01*
X0236444Y0069194D01*
X0236263Y0069266D01*
X0236084Y0069342D01*
X0235907Y0069422D01*
X0235732Y0069507D01*
X0235558Y0069596D01*
X0235388Y0069689D01*
X0235219Y0069786D01*
X0235053Y0069888D01*
X0234889Y0069993D01*
X0234728Y0070102D01*
X0234569Y0070215D01*
X0234414Y0070332D01*
X0234261Y0070453D01*
X0234112Y0070578D01*
X0233965Y0070706D01*
X0233821Y0070837D01*
X0233681Y0070972D01*
X0233544Y0071111D01*
X0233411Y0071252D01*
X0233281Y0071397D01*
X0233154Y0071545D01*
X0233193Y0081835D02*
X0233320Y0081981D01*
X0233449Y0082123D01*
X0233583Y0082263D01*
X0233719Y0082399D01*
X0233859Y0082532D01*
X0234002Y0082662D01*
X0234149Y0082788D01*
X0234298Y0082910D01*
X0234450Y0083029D01*
X0234605Y0083144D01*
X0234762Y0083256D01*
X0234922Y0083363D01*
X0235085Y0083467D01*
X0235251Y0083566D01*
X0235418Y0083662D01*
X0235588Y0083754D01*
X0235760Y0083841D01*
X0235934Y0083925D01*
X0236110Y0084004D01*
X0236288Y0084078D01*
X0236468Y0084149D01*
X0236649Y0084215D01*
X0236832Y0084277D01*
X0237016Y0084334D01*
X0237202Y0084387D01*
X0237389Y0084435D01*
X0237577Y0084479D01*
X0237766Y0084518D01*
X0237956Y0084553D01*
X0238146Y0084583D01*
X0238337Y0084609D01*
X0238529Y0084630D01*
X0238722Y0084646D01*
X0238914Y0084658D01*
X0239107Y0084665D01*
X0239300Y0084667D01*
X0186246Y0080636D02*
X0186147Y0080805D01*
X0186043Y0080971D01*
X0185936Y0081135D01*
X0185825Y0081296D01*
X0185710Y0081454D01*
X0185591Y0081609D01*
X0185468Y0081762D01*
X0185342Y0081911D01*
X0185212Y0082057D01*
X0185078Y0082200D01*
X0184941Y0082340D01*
X0184801Y0082476D01*
X0184657Y0082609D01*
X0184510Y0082738D01*
X0184360Y0082864D01*
X0184207Y0082985D01*
X0184051Y0083104D01*
X0183892Y0083218D01*
X0183731Y0083328D01*
X0183566Y0083434D01*
X0183400Y0083537D01*
X0183230Y0083635D01*
X0183059Y0083729D01*
X0182885Y0083819D01*
X0182709Y0083904D01*
X0182531Y0083986D01*
X0182351Y0084062D01*
X0182169Y0084135D01*
X0181986Y0084203D01*
X0181801Y0084266D01*
X0181614Y0084325D01*
X0181426Y0084379D01*
X0181237Y0084429D01*
X0181047Y0084474D01*
X0180855Y0084514D01*
X0180663Y0084550D01*
X0180470Y0084581D01*
X0180276Y0084607D01*
X0180081Y0084629D01*
X0179886Y0084645D01*
X0179691Y0084657D01*
X0179495Y0084665D01*
X0179300Y0084667D01*
X0173100Y0081667D02*
X0173100Y0071667D01*
X0179300Y0068667D02*
X0179492Y0068669D01*
X0179684Y0068676D01*
X0179876Y0068688D01*
X0180068Y0068704D01*
X0180259Y0068725D01*
X0180449Y0068750D01*
X0180639Y0068780D01*
X0180828Y0068814D01*
X0181016Y0068853D01*
X0181203Y0068897D01*
X0181389Y0068945D01*
X0181574Y0068997D01*
X0181758Y0069054D01*
X0181940Y0069115D01*
X0182120Y0069181D01*
X0182299Y0069251D01*
X0182477Y0069325D01*
X0182652Y0069403D01*
X0182826Y0069486D01*
X0182997Y0069573D01*
X0183166Y0069663D01*
X0183333Y0069758D01*
X0183498Y0069857D01*
X0183661Y0069960D01*
X0183820Y0070067D01*
X0183978Y0070177D01*
X0184132Y0070291D01*
X0184284Y0070409D01*
X0184433Y0070531D01*
X0184579Y0070656D01*
X0184721Y0070784D01*
X0184861Y0070916D01*
X0184998Y0071051D01*
X0185131Y0071190D01*
X0185261Y0071331D01*
X0185387Y0071476D01*
X0185510Y0071624D01*
X0185629Y0071774D01*
X0185745Y0071928D01*
X0185857Y0072084D01*
X0185965Y0072243D01*
X0186070Y0072404D01*
X0186170Y0072568D01*
X0186266Y0072734D01*
X0186359Y0072902D01*
X0186344Y0072874D02*
X0186431Y0073041D01*
X0186514Y0073210D01*
X0186594Y0073380D01*
X0186669Y0073553D01*
X0186740Y0073727D01*
X0186807Y0073903D01*
X0186870Y0074080D01*
X0186929Y0074259D01*
X0186983Y0074439D01*
X0187034Y0074620D01*
X0187080Y0074803D01*
X0187121Y0074986D01*
X0187159Y0075170D01*
X0187192Y0075356D01*
X0187220Y0075542D01*
X0187245Y0075728D01*
X0187265Y0075915D01*
X0187280Y0076103D01*
X0187291Y0076291D01*
X0187298Y0076479D01*
X0187300Y0076667D01*
X0187298Y0076859D01*
X0187291Y0077050D01*
X0187279Y0077242D01*
X0187263Y0077433D01*
X0187243Y0077624D01*
X0187217Y0077814D01*
X0187188Y0078004D01*
X0187153Y0078192D01*
X0187114Y0078380D01*
X0187071Y0078567D01*
X0187023Y0078753D01*
X0186971Y0078938D01*
X0186914Y0079121D01*
X0186853Y0079303D01*
X0186788Y0079483D01*
X0186718Y0079662D01*
X0186644Y0079839D01*
X0186566Y0080014D01*
X0186484Y0080188D01*
X0186397Y0080359D01*
X0186307Y0080528D01*
X0186212Y0080695D01*
X0186113Y0080860D01*
X0179300Y0068667D02*
X0179105Y0068669D01*
X0178911Y0068676D01*
X0178717Y0068688D01*
X0178523Y0068705D01*
X0178329Y0068726D01*
X0178136Y0068752D01*
X0177944Y0068783D01*
X0177752Y0068818D01*
X0177562Y0068858D01*
X0177372Y0068903D01*
X0177184Y0068952D01*
X0176997Y0069006D01*
X0176811Y0069064D01*
X0176627Y0069127D01*
X0176444Y0069194D01*
X0176263Y0069266D01*
X0176084Y0069342D01*
X0175907Y0069422D01*
X0175732Y0069507D01*
X0175558Y0069596D01*
X0175388Y0069689D01*
X0175219Y0069786D01*
X0175053Y0069888D01*
X0174889Y0069993D01*
X0174728Y0070102D01*
X0174569Y0070215D01*
X0174414Y0070332D01*
X0174261Y0070453D01*
X0174112Y0070578D01*
X0173965Y0070706D01*
X0173821Y0070837D01*
X0173681Y0070972D01*
X0173544Y0071111D01*
X0173411Y0071252D01*
X0173281Y0071397D01*
X0173154Y0071545D01*
X0173193Y0081835D02*
X0173320Y0081981D01*
X0173449Y0082123D01*
X0173583Y0082263D01*
X0173719Y0082399D01*
X0173859Y0082532D01*
X0174002Y0082662D01*
X0174149Y0082788D01*
X0174298Y0082910D01*
X0174450Y0083029D01*
X0174605Y0083144D01*
X0174762Y0083256D01*
X0174922Y0083363D01*
X0175085Y0083467D01*
X0175251Y0083566D01*
X0175418Y0083662D01*
X0175588Y0083754D01*
X0175760Y0083841D01*
X0175934Y0083925D01*
X0176110Y0084004D01*
X0176288Y0084078D01*
X0176468Y0084149D01*
X0176649Y0084215D01*
X0176832Y0084277D01*
X0177016Y0084334D01*
X0177202Y0084387D01*
X0177389Y0084435D01*
X0177577Y0084479D01*
X0177766Y0084518D01*
X0177956Y0084553D01*
X0178146Y0084583D01*
X0178337Y0084609D01*
X0178529Y0084630D01*
X0178722Y0084646D01*
X0178914Y0084658D01*
X0179107Y0084665D01*
X0179300Y0084667D01*
X0126246Y0080636D02*
X0126147Y0080805D01*
X0126043Y0080971D01*
X0125936Y0081135D01*
X0125825Y0081296D01*
X0125710Y0081454D01*
X0125591Y0081609D01*
X0125468Y0081762D01*
X0125342Y0081911D01*
X0125212Y0082057D01*
X0125078Y0082200D01*
X0124941Y0082340D01*
X0124801Y0082476D01*
X0124657Y0082609D01*
X0124510Y0082738D01*
X0124360Y0082864D01*
X0124207Y0082985D01*
X0124051Y0083104D01*
X0123892Y0083218D01*
X0123731Y0083328D01*
X0123566Y0083434D01*
X0123400Y0083537D01*
X0123230Y0083635D01*
X0123059Y0083729D01*
X0122885Y0083819D01*
X0122709Y0083904D01*
X0122531Y0083986D01*
X0122351Y0084062D01*
X0122169Y0084135D01*
X0121986Y0084203D01*
X0121801Y0084266D01*
X0121614Y0084325D01*
X0121426Y0084379D01*
X0121237Y0084429D01*
X0121047Y0084474D01*
X0120855Y0084514D01*
X0120663Y0084550D01*
X0120470Y0084581D01*
X0120276Y0084607D01*
X0120081Y0084629D01*
X0119886Y0084645D01*
X0119691Y0084657D01*
X0119495Y0084665D01*
X0119300Y0084667D01*
X0113100Y0081667D02*
X0113100Y0071667D01*
X0119300Y0068667D02*
X0119492Y0068669D01*
X0119684Y0068676D01*
X0119876Y0068688D01*
X0120068Y0068704D01*
X0120259Y0068725D01*
X0120449Y0068750D01*
X0120639Y0068780D01*
X0120828Y0068814D01*
X0121016Y0068853D01*
X0121203Y0068897D01*
X0121389Y0068945D01*
X0121574Y0068997D01*
X0121758Y0069054D01*
X0121940Y0069115D01*
X0122120Y0069181D01*
X0122299Y0069251D01*
X0122477Y0069325D01*
X0122652Y0069403D01*
X0122826Y0069486D01*
X0122997Y0069573D01*
X0123166Y0069663D01*
X0123333Y0069758D01*
X0123498Y0069857D01*
X0123661Y0069960D01*
X0123820Y0070067D01*
X0123978Y0070177D01*
X0124132Y0070291D01*
X0124284Y0070409D01*
X0124433Y0070531D01*
X0124579Y0070656D01*
X0124721Y0070784D01*
X0124861Y0070916D01*
X0124998Y0071051D01*
X0125131Y0071190D01*
X0125261Y0071331D01*
X0125387Y0071476D01*
X0125510Y0071624D01*
X0125629Y0071774D01*
X0125745Y0071928D01*
X0125857Y0072084D01*
X0125965Y0072243D01*
X0126070Y0072404D01*
X0126170Y0072568D01*
X0126266Y0072734D01*
X0126359Y0072902D01*
X0126344Y0072874D02*
X0126431Y0073041D01*
X0126514Y0073210D01*
X0126594Y0073380D01*
X0126669Y0073553D01*
X0126740Y0073727D01*
X0126807Y0073903D01*
X0126870Y0074080D01*
X0126929Y0074259D01*
X0126983Y0074439D01*
X0127034Y0074620D01*
X0127080Y0074803D01*
X0127121Y0074986D01*
X0127159Y0075170D01*
X0127192Y0075356D01*
X0127220Y0075542D01*
X0127245Y0075728D01*
X0127265Y0075915D01*
X0127280Y0076103D01*
X0127291Y0076291D01*
X0127298Y0076479D01*
X0127300Y0076667D01*
X0127298Y0076859D01*
X0127291Y0077050D01*
X0127279Y0077242D01*
X0127263Y0077433D01*
X0127243Y0077624D01*
X0127217Y0077814D01*
X0127188Y0078004D01*
X0127153Y0078192D01*
X0127114Y0078380D01*
X0127071Y0078567D01*
X0127023Y0078753D01*
X0126971Y0078938D01*
X0126914Y0079121D01*
X0126853Y0079303D01*
X0126788Y0079483D01*
X0126718Y0079662D01*
X0126644Y0079839D01*
X0126566Y0080014D01*
X0126484Y0080188D01*
X0126397Y0080359D01*
X0126307Y0080528D01*
X0126212Y0080695D01*
X0126113Y0080860D01*
X0119300Y0068667D02*
X0119105Y0068669D01*
X0118911Y0068676D01*
X0118717Y0068688D01*
X0118523Y0068705D01*
X0118329Y0068726D01*
X0118136Y0068752D01*
X0117944Y0068783D01*
X0117752Y0068818D01*
X0117562Y0068858D01*
X0117372Y0068903D01*
X0117184Y0068952D01*
X0116997Y0069006D01*
X0116811Y0069064D01*
X0116627Y0069127D01*
X0116444Y0069194D01*
X0116263Y0069266D01*
X0116084Y0069342D01*
X0115907Y0069422D01*
X0115732Y0069507D01*
X0115558Y0069596D01*
X0115388Y0069689D01*
X0115219Y0069786D01*
X0115053Y0069888D01*
X0114889Y0069993D01*
X0114728Y0070102D01*
X0114569Y0070215D01*
X0114414Y0070332D01*
X0114261Y0070453D01*
X0114112Y0070578D01*
X0113965Y0070706D01*
X0113821Y0070837D01*
X0113681Y0070972D01*
X0113544Y0071111D01*
X0113411Y0071252D01*
X0113281Y0071397D01*
X0113154Y0071545D01*
X0113193Y0081835D02*
X0113320Y0081981D01*
X0113449Y0082123D01*
X0113583Y0082263D01*
X0113719Y0082399D01*
X0113859Y0082532D01*
X0114002Y0082662D01*
X0114149Y0082788D01*
X0114298Y0082910D01*
X0114450Y0083029D01*
X0114605Y0083144D01*
X0114762Y0083256D01*
X0114922Y0083363D01*
X0115085Y0083467D01*
X0115251Y0083566D01*
X0115418Y0083662D01*
X0115588Y0083754D01*
X0115760Y0083841D01*
X0115934Y0083925D01*
X0116110Y0084004D01*
X0116288Y0084078D01*
X0116468Y0084149D01*
X0116649Y0084215D01*
X0116832Y0084277D01*
X0117016Y0084334D01*
X0117202Y0084387D01*
X0117389Y0084435D01*
X0117577Y0084479D01*
X0117766Y0084518D01*
X0117956Y0084553D01*
X0118146Y0084583D01*
X0118337Y0084609D01*
X0118529Y0084630D01*
X0118722Y0084646D01*
X0118914Y0084658D01*
X0119107Y0084665D01*
X0119300Y0084667D01*
X0066246Y0080636D02*
X0066147Y0080805D01*
X0066043Y0080971D01*
X0065936Y0081135D01*
X0065825Y0081296D01*
X0065710Y0081454D01*
X0065591Y0081609D01*
X0065468Y0081762D01*
X0065342Y0081911D01*
X0065212Y0082057D01*
X0065078Y0082200D01*
X0064941Y0082340D01*
X0064801Y0082476D01*
X0064657Y0082609D01*
X0064510Y0082738D01*
X0064360Y0082864D01*
X0064207Y0082985D01*
X0064051Y0083104D01*
X0063892Y0083218D01*
X0063731Y0083328D01*
X0063566Y0083434D01*
X0063400Y0083537D01*
X0063230Y0083635D01*
X0063059Y0083729D01*
X0062885Y0083819D01*
X0062709Y0083904D01*
X0062531Y0083986D01*
X0062351Y0084062D01*
X0062169Y0084135D01*
X0061986Y0084203D01*
X0061801Y0084266D01*
X0061614Y0084325D01*
X0061426Y0084379D01*
X0061237Y0084429D01*
X0061047Y0084474D01*
X0060855Y0084514D01*
X0060663Y0084550D01*
X0060470Y0084581D01*
X0060276Y0084607D01*
X0060081Y0084629D01*
X0059886Y0084645D01*
X0059691Y0084657D01*
X0059495Y0084665D01*
X0059300Y0084667D01*
X0053100Y0081667D02*
X0053100Y0071667D01*
X0059300Y0068667D02*
X0059492Y0068669D01*
X0059684Y0068676D01*
X0059876Y0068688D01*
X0060068Y0068704D01*
X0060259Y0068725D01*
X0060449Y0068750D01*
X0060639Y0068780D01*
X0060828Y0068814D01*
X0061016Y0068853D01*
X0061203Y0068897D01*
X0061389Y0068945D01*
X0061574Y0068997D01*
X0061758Y0069054D01*
X0061940Y0069115D01*
X0062120Y0069181D01*
X0062299Y0069251D01*
X0062477Y0069325D01*
X0062652Y0069403D01*
X0062826Y0069486D01*
X0062997Y0069573D01*
X0063166Y0069663D01*
X0063333Y0069758D01*
X0063498Y0069857D01*
X0063661Y0069960D01*
X0063820Y0070067D01*
X0063978Y0070177D01*
X0064132Y0070291D01*
X0064284Y0070409D01*
X0064433Y0070531D01*
X0064579Y0070656D01*
X0064721Y0070784D01*
X0064861Y0070916D01*
X0064998Y0071051D01*
X0065131Y0071190D01*
X0065261Y0071331D01*
X0065387Y0071476D01*
X0065510Y0071624D01*
X0065629Y0071774D01*
X0065745Y0071928D01*
X0065857Y0072084D01*
X0065965Y0072243D01*
X0066070Y0072404D01*
X0066170Y0072568D01*
X0066266Y0072734D01*
X0066359Y0072902D01*
X0066344Y0072874D02*
X0066431Y0073041D01*
X0066514Y0073210D01*
X0066594Y0073380D01*
X0066669Y0073553D01*
X0066740Y0073727D01*
X0066807Y0073903D01*
X0066870Y0074080D01*
X0066929Y0074259D01*
X0066983Y0074439D01*
X0067034Y0074620D01*
X0067080Y0074803D01*
X0067121Y0074986D01*
X0067159Y0075170D01*
X0067192Y0075356D01*
X0067220Y0075542D01*
X0067245Y0075728D01*
X0067265Y0075915D01*
X0067280Y0076103D01*
X0067291Y0076291D01*
X0067298Y0076479D01*
X0067300Y0076667D01*
X0067298Y0076859D01*
X0067291Y0077050D01*
X0067279Y0077242D01*
X0067263Y0077433D01*
X0067243Y0077624D01*
X0067217Y0077814D01*
X0067188Y0078004D01*
X0067153Y0078192D01*
X0067114Y0078380D01*
X0067071Y0078567D01*
X0067023Y0078753D01*
X0066971Y0078938D01*
X0066914Y0079121D01*
X0066853Y0079303D01*
X0066788Y0079483D01*
X0066718Y0079662D01*
X0066644Y0079839D01*
X0066566Y0080014D01*
X0066484Y0080188D01*
X0066397Y0080359D01*
X0066307Y0080528D01*
X0066212Y0080695D01*
X0066113Y0080860D01*
X0059300Y0068667D02*
X0059105Y0068669D01*
X0058911Y0068676D01*
X0058717Y0068688D01*
X0058523Y0068705D01*
X0058329Y0068726D01*
X0058136Y0068752D01*
X0057944Y0068783D01*
X0057752Y0068818D01*
X0057562Y0068858D01*
X0057372Y0068903D01*
X0057184Y0068952D01*
X0056997Y0069006D01*
X0056811Y0069064D01*
X0056627Y0069127D01*
X0056444Y0069194D01*
X0056263Y0069266D01*
X0056084Y0069342D01*
X0055907Y0069422D01*
X0055732Y0069507D01*
X0055558Y0069596D01*
X0055388Y0069689D01*
X0055219Y0069786D01*
X0055053Y0069888D01*
X0054889Y0069993D01*
X0054728Y0070102D01*
X0054569Y0070215D01*
X0054414Y0070332D01*
X0054261Y0070453D01*
X0054112Y0070578D01*
X0053965Y0070706D01*
X0053821Y0070837D01*
X0053681Y0070972D01*
X0053544Y0071111D01*
X0053411Y0071252D01*
X0053281Y0071397D01*
X0053154Y0071545D01*
X0053193Y0081835D02*
X0053320Y0081981D01*
X0053449Y0082123D01*
X0053583Y0082263D01*
X0053719Y0082399D01*
X0053859Y0082532D01*
X0054002Y0082662D01*
X0054149Y0082788D01*
X0054298Y0082910D01*
X0054450Y0083029D01*
X0054605Y0083144D01*
X0054762Y0083256D01*
X0054922Y0083363D01*
X0055085Y0083467D01*
X0055251Y0083566D01*
X0055418Y0083662D01*
X0055588Y0083754D01*
X0055760Y0083841D01*
X0055934Y0083925D01*
X0056110Y0084004D01*
X0056288Y0084078D01*
X0056468Y0084149D01*
X0056649Y0084215D01*
X0056832Y0084277D01*
X0057016Y0084334D01*
X0057202Y0084387D01*
X0057389Y0084435D01*
X0057577Y0084479D01*
X0057766Y0084518D01*
X0057956Y0084553D01*
X0058146Y0084583D01*
X0058337Y0084609D01*
X0058529Y0084630D01*
X0058722Y0084646D01*
X0058914Y0084658D01*
X0059107Y0084665D01*
X0059300Y0084667D01*
X0085600Y0044167D02*
X0085600Y0034167D01*
X0091800Y0031167D02*
X0091992Y0031169D01*
X0092184Y0031176D01*
X0092376Y0031188D01*
X0092568Y0031204D01*
X0092759Y0031225D01*
X0092949Y0031250D01*
X0093139Y0031280D01*
X0093328Y0031314D01*
X0093516Y0031353D01*
X0093703Y0031397D01*
X0093889Y0031445D01*
X0094074Y0031497D01*
X0094258Y0031554D01*
X0094440Y0031615D01*
X0094620Y0031681D01*
X0094799Y0031751D01*
X0094977Y0031825D01*
X0095152Y0031903D01*
X0095326Y0031986D01*
X0095497Y0032073D01*
X0095666Y0032163D01*
X0095833Y0032258D01*
X0095998Y0032357D01*
X0096161Y0032460D01*
X0096320Y0032567D01*
X0096478Y0032677D01*
X0096632Y0032791D01*
X0096784Y0032909D01*
X0096933Y0033031D01*
X0097079Y0033156D01*
X0097221Y0033284D01*
X0097361Y0033416D01*
X0097498Y0033551D01*
X0097631Y0033690D01*
X0097761Y0033831D01*
X0097887Y0033976D01*
X0098010Y0034124D01*
X0098129Y0034274D01*
X0098245Y0034428D01*
X0098357Y0034584D01*
X0098465Y0034743D01*
X0098570Y0034904D01*
X0098670Y0035068D01*
X0098766Y0035234D01*
X0098859Y0035402D01*
X0098746Y0043136D02*
X0098647Y0043305D01*
X0098543Y0043471D01*
X0098436Y0043635D01*
X0098325Y0043796D01*
X0098210Y0043954D01*
X0098091Y0044109D01*
X0097968Y0044262D01*
X0097842Y0044411D01*
X0097712Y0044557D01*
X0097578Y0044700D01*
X0097441Y0044840D01*
X0097301Y0044976D01*
X0097157Y0045109D01*
X0097010Y0045238D01*
X0096860Y0045364D01*
X0096707Y0045485D01*
X0096551Y0045604D01*
X0096392Y0045718D01*
X0096231Y0045828D01*
X0096066Y0045934D01*
X0095900Y0046037D01*
X0095730Y0046135D01*
X0095559Y0046229D01*
X0095385Y0046319D01*
X0095209Y0046404D01*
X0095031Y0046486D01*
X0094851Y0046562D01*
X0094669Y0046635D01*
X0094486Y0046703D01*
X0094301Y0046766D01*
X0094114Y0046825D01*
X0093926Y0046879D01*
X0093737Y0046929D01*
X0093547Y0046974D01*
X0093355Y0047014D01*
X0093163Y0047050D01*
X0092970Y0047081D01*
X0092776Y0047107D01*
X0092581Y0047129D01*
X0092386Y0047145D01*
X0092191Y0047157D01*
X0091995Y0047165D01*
X0091800Y0047167D01*
X0098613Y0043360D02*
X0098712Y0043195D01*
X0098807Y0043028D01*
X0098897Y0042859D01*
X0098984Y0042688D01*
X0099066Y0042514D01*
X0099144Y0042339D01*
X0099218Y0042162D01*
X0099288Y0041983D01*
X0099353Y0041803D01*
X0099414Y0041621D01*
X0099471Y0041438D01*
X0099523Y0041253D01*
X0099571Y0041067D01*
X0099614Y0040880D01*
X0099653Y0040692D01*
X0099688Y0040504D01*
X0099717Y0040314D01*
X0099743Y0040124D01*
X0099763Y0039933D01*
X0099779Y0039742D01*
X0099791Y0039550D01*
X0099798Y0039359D01*
X0099800Y0039167D01*
X0099798Y0038979D01*
X0099791Y0038791D01*
X0099780Y0038603D01*
X0099765Y0038415D01*
X0099745Y0038228D01*
X0099720Y0038042D01*
X0099692Y0037856D01*
X0099659Y0037670D01*
X0099621Y0037486D01*
X0099580Y0037303D01*
X0099534Y0037120D01*
X0099483Y0036939D01*
X0099429Y0036759D01*
X0099370Y0036580D01*
X0099307Y0036403D01*
X0099240Y0036227D01*
X0099169Y0036053D01*
X0099094Y0035880D01*
X0099014Y0035710D01*
X0098931Y0035541D01*
X0098844Y0035374D01*
X0091800Y0031167D02*
X0091605Y0031169D01*
X0091411Y0031176D01*
X0091217Y0031188D01*
X0091023Y0031205D01*
X0090829Y0031226D01*
X0090636Y0031252D01*
X0090444Y0031283D01*
X0090252Y0031318D01*
X0090062Y0031358D01*
X0089872Y0031403D01*
X0089684Y0031452D01*
X0089497Y0031506D01*
X0089311Y0031564D01*
X0089127Y0031627D01*
X0088944Y0031694D01*
X0088763Y0031766D01*
X0088584Y0031842D01*
X0088407Y0031922D01*
X0088232Y0032007D01*
X0088058Y0032096D01*
X0087888Y0032189D01*
X0087719Y0032286D01*
X0087553Y0032388D01*
X0087389Y0032493D01*
X0087228Y0032602D01*
X0087069Y0032715D01*
X0086914Y0032832D01*
X0086761Y0032953D01*
X0086612Y0033078D01*
X0086465Y0033206D01*
X0086321Y0033337D01*
X0086181Y0033472D01*
X0086044Y0033611D01*
X0085911Y0033752D01*
X0085781Y0033897D01*
X0085654Y0034045D01*
X0085693Y0044335D02*
X0085820Y0044481D01*
X0085949Y0044623D01*
X0086083Y0044763D01*
X0086219Y0044899D01*
X0086359Y0045032D01*
X0086502Y0045162D01*
X0086649Y0045288D01*
X0086798Y0045410D01*
X0086950Y0045529D01*
X0087105Y0045644D01*
X0087262Y0045756D01*
X0087422Y0045863D01*
X0087585Y0045967D01*
X0087751Y0046066D01*
X0087918Y0046162D01*
X0088088Y0046254D01*
X0088260Y0046341D01*
X0088434Y0046425D01*
X0088610Y0046504D01*
X0088788Y0046578D01*
X0088968Y0046649D01*
X0089149Y0046715D01*
X0089332Y0046777D01*
X0089516Y0046834D01*
X0089702Y0046887D01*
X0089889Y0046935D01*
X0090077Y0046979D01*
X0090266Y0047018D01*
X0090456Y0047053D01*
X0090646Y0047083D01*
X0090837Y0047109D01*
X0091029Y0047130D01*
X0091222Y0047146D01*
X0091414Y0047158D01*
X0091607Y0047165D01*
X0091800Y0047167D01*
X0150600Y0044167D02*
X0150600Y0034167D01*
X0156800Y0031167D02*
X0156992Y0031169D01*
X0157184Y0031176D01*
X0157376Y0031188D01*
X0157568Y0031204D01*
X0157759Y0031225D01*
X0157949Y0031250D01*
X0158139Y0031280D01*
X0158328Y0031314D01*
X0158516Y0031353D01*
X0158703Y0031397D01*
X0158889Y0031445D01*
X0159074Y0031497D01*
X0159258Y0031554D01*
X0159440Y0031615D01*
X0159620Y0031681D01*
X0159799Y0031751D01*
X0159977Y0031825D01*
X0160152Y0031903D01*
X0160326Y0031986D01*
X0160497Y0032073D01*
X0160666Y0032163D01*
X0160833Y0032258D01*
X0160998Y0032357D01*
X0161161Y0032460D01*
X0161320Y0032567D01*
X0161478Y0032677D01*
X0161632Y0032791D01*
X0161784Y0032909D01*
X0161933Y0033031D01*
X0162079Y0033156D01*
X0162221Y0033284D01*
X0162361Y0033416D01*
X0162498Y0033551D01*
X0162631Y0033690D01*
X0162761Y0033831D01*
X0162887Y0033976D01*
X0163010Y0034124D01*
X0163129Y0034274D01*
X0163245Y0034428D01*
X0163357Y0034584D01*
X0163465Y0034743D01*
X0163570Y0034904D01*
X0163670Y0035068D01*
X0163766Y0035234D01*
X0163859Y0035402D01*
X0163746Y0043136D02*
X0163647Y0043305D01*
X0163543Y0043471D01*
X0163436Y0043635D01*
X0163325Y0043796D01*
X0163210Y0043954D01*
X0163091Y0044109D01*
X0162968Y0044262D01*
X0162842Y0044411D01*
X0162712Y0044557D01*
X0162578Y0044700D01*
X0162441Y0044840D01*
X0162301Y0044976D01*
X0162157Y0045109D01*
X0162010Y0045238D01*
X0161860Y0045364D01*
X0161707Y0045485D01*
X0161551Y0045604D01*
X0161392Y0045718D01*
X0161231Y0045828D01*
X0161066Y0045934D01*
X0160900Y0046037D01*
X0160730Y0046135D01*
X0160559Y0046229D01*
X0160385Y0046319D01*
X0160209Y0046404D01*
X0160031Y0046486D01*
X0159851Y0046562D01*
X0159669Y0046635D01*
X0159486Y0046703D01*
X0159301Y0046766D01*
X0159114Y0046825D01*
X0158926Y0046879D01*
X0158737Y0046929D01*
X0158547Y0046974D01*
X0158355Y0047014D01*
X0158163Y0047050D01*
X0157970Y0047081D01*
X0157776Y0047107D01*
X0157581Y0047129D01*
X0157386Y0047145D01*
X0157191Y0047157D01*
X0156995Y0047165D01*
X0156800Y0047167D01*
X0163613Y0043360D02*
X0163712Y0043195D01*
X0163807Y0043028D01*
X0163897Y0042859D01*
X0163984Y0042688D01*
X0164066Y0042514D01*
X0164144Y0042339D01*
X0164218Y0042162D01*
X0164288Y0041983D01*
X0164353Y0041803D01*
X0164414Y0041621D01*
X0164471Y0041438D01*
X0164523Y0041253D01*
X0164571Y0041067D01*
X0164614Y0040880D01*
X0164653Y0040692D01*
X0164688Y0040504D01*
X0164717Y0040314D01*
X0164743Y0040124D01*
X0164763Y0039933D01*
X0164779Y0039742D01*
X0164791Y0039550D01*
X0164798Y0039359D01*
X0164800Y0039167D01*
X0164798Y0038979D01*
X0164791Y0038791D01*
X0164780Y0038603D01*
X0164765Y0038415D01*
X0164745Y0038228D01*
X0164720Y0038042D01*
X0164692Y0037856D01*
X0164659Y0037670D01*
X0164621Y0037486D01*
X0164580Y0037303D01*
X0164534Y0037120D01*
X0164483Y0036939D01*
X0164429Y0036759D01*
X0164370Y0036580D01*
X0164307Y0036403D01*
X0164240Y0036227D01*
X0164169Y0036053D01*
X0164094Y0035880D01*
X0164014Y0035710D01*
X0163931Y0035541D01*
X0163844Y0035374D01*
X0156800Y0031167D02*
X0156605Y0031169D01*
X0156411Y0031176D01*
X0156217Y0031188D01*
X0156023Y0031205D01*
X0155829Y0031226D01*
X0155636Y0031252D01*
X0155444Y0031283D01*
X0155252Y0031318D01*
X0155062Y0031358D01*
X0154872Y0031403D01*
X0154684Y0031452D01*
X0154497Y0031506D01*
X0154311Y0031564D01*
X0154127Y0031627D01*
X0153944Y0031694D01*
X0153763Y0031766D01*
X0153584Y0031842D01*
X0153407Y0031922D01*
X0153232Y0032007D01*
X0153058Y0032096D01*
X0152888Y0032189D01*
X0152719Y0032286D01*
X0152553Y0032388D01*
X0152389Y0032493D01*
X0152228Y0032602D01*
X0152069Y0032715D01*
X0151914Y0032832D01*
X0151761Y0032953D01*
X0151612Y0033078D01*
X0151465Y0033206D01*
X0151321Y0033337D01*
X0151181Y0033472D01*
X0151044Y0033611D01*
X0150911Y0033752D01*
X0150781Y0033897D01*
X0150654Y0034045D01*
X0150693Y0044335D02*
X0150820Y0044481D01*
X0150949Y0044623D01*
X0151083Y0044763D01*
X0151219Y0044899D01*
X0151359Y0045032D01*
X0151502Y0045162D01*
X0151649Y0045288D01*
X0151798Y0045410D01*
X0151950Y0045529D01*
X0152105Y0045644D01*
X0152262Y0045756D01*
X0152422Y0045863D01*
X0152585Y0045967D01*
X0152751Y0046066D01*
X0152918Y0046162D01*
X0153088Y0046254D01*
X0153260Y0046341D01*
X0153434Y0046425D01*
X0153610Y0046504D01*
X0153788Y0046578D01*
X0153968Y0046649D01*
X0154149Y0046715D01*
X0154332Y0046777D01*
X0154516Y0046834D01*
X0154702Y0046887D01*
X0154889Y0046935D01*
X0155077Y0046979D01*
X0155266Y0047018D01*
X0155456Y0047053D01*
X0155646Y0047083D01*
X0155837Y0047109D01*
X0156029Y0047130D01*
X0156222Y0047146D01*
X0156414Y0047158D01*
X0156607Y0047165D01*
X0156800Y0047167D01*
X0412100Y0071667D02*
X0412100Y0081667D01*
X0425113Y0080860D02*
X0425212Y0080695D01*
X0425307Y0080528D01*
X0425397Y0080359D01*
X0425484Y0080188D01*
X0425566Y0080014D01*
X0425644Y0079839D01*
X0425718Y0079662D01*
X0425788Y0079483D01*
X0425853Y0079303D01*
X0425914Y0079121D01*
X0425971Y0078938D01*
X0426023Y0078753D01*
X0426071Y0078567D01*
X0426114Y0078380D01*
X0426153Y0078192D01*
X0426188Y0078004D01*
X0426217Y0077814D01*
X0426243Y0077624D01*
X0426263Y0077433D01*
X0426279Y0077242D01*
X0426291Y0077050D01*
X0426298Y0076859D01*
X0426300Y0076667D01*
X0425246Y0080636D02*
X0425147Y0080805D01*
X0425043Y0080971D01*
X0424936Y0081135D01*
X0424825Y0081296D01*
X0424710Y0081454D01*
X0424591Y0081609D01*
X0424468Y0081762D01*
X0424342Y0081911D01*
X0424212Y0082057D01*
X0424078Y0082200D01*
X0423941Y0082340D01*
X0423801Y0082476D01*
X0423657Y0082609D01*
X0423510Y0082738D01*
X0423360Y0082864D01*
X0423207Y0082985D01*
X0423051Y0083104D01*
X0422892Y0083218D01*
X0422731Y0083328D01*
X0422566Y0083434D01*
X0422400Y0083537D01*
X0422230Y0083635D01*
X0422059Y0083729D01*
X0421885Y0083819D01*
X0421709Y0083904D01*
X0421531Y0083986D01*
X0421351Y0084062D01*
X0421169Y0084135D01*
X0420986Y0084203D01*
X0420801Y0084266D01*
X0420614Y0084325D01*
X0420426Y0084379D01*
X0420237Y0084429D01*
X0420047Y0084474D01*
X0419855Y0084514D01*
X0419663Y0084550D01*
X0419470Y0084581D01*
X0419276Y0084607D01*
X0419081Y0084629D01*
X0418886Y0084645D01*
X0418691Y0084657D01*
X0418495Y0084665D01*
X0418300Y0084667D01*
X0426300Y0076667D02*
X0426298Y0076479D01*
X0426291Y0076291D01*
X0426280Y0076103D01*
X0426265Y0075915D01*
X0426245Y0075728D01*
X0426220Y0075542D01*
X0426192Y0075356D01*
X0426159Y0075170D01*
X0426121Y0074986D01*
X0426080Y0074803D01*
X0426034Y0074620D01*
X0425983Y0074439D01*
X0425929Y0074259D01*
X0425870Y0074080D01*
X0425807Y0073903D01*
X0425740Y0073727D01*
X0425669Y0073553D01*
X0425594Y0073380D01*
X0425514Y0073210D01*
X0425431Y0073041D01*
X0425344Y0072874D01*
X0418300Y0068667D02*
X0418105Y0068669D01*
X0417911Y0068676D01*
X0417717Y0068688D01*
X0417523Y0068705D01*
X0417329Y0068726D01*
X0417136Y0068752D01*
X0416944Y0068783D01*
X0416752Y0068818D01*
X0416562Y0068858D01*
X0416372Y0068903D01*
X0416184Y0068952D01*
X0415997Y0069006D01*
X0415811Y0069064D01*
X0415627Y0069127D01*
X0415444Y0069194D01*
X0415263Y0069266D01*
X0415084Y0069342D01*
X0414907Y0069422D01*
X0414732Y0069507D01*
X0414558Y0069596D01*
X0414388Y0069689D01*
X0414219Y0069786D01*
X0414053Y0069888D01*
X0413889Y0069993D01*
X0413728Y0070102D01*
X0413569Y0070215D01*
X0413414Y0070332D01*
X0413261Y0070453D01*
X0413112Y0070578D01*
X0412965Y0070706D01*
X0412821Y0070837D01*
X0412681Y0070972D01*
X0412544Y0071111D01*
X0412411Y0071252D01*
X0412281Y0071397D01*
X0412154Y0071545D01*
X0418300Y0068667D02*
X0418492Y0068669D01*
X0418684Y0068676D01*
X0418876Y0068688D01*
X0419068Y0068704D01*
X0419259Y0068725D01*
X0419449Y0068750D01*
X0419639Y0068780D01*
X0419828Y0068814D01*
X0420016Y0068853D01*
X0420203Y0068897D01*
X0420389Y0068945D01*
X0420574Y0068997D01*
X0420758Y0069054D01*
X0420940Y0069115D01*
X0421120Y0069181D01*
X0421299Y0069251D01*
X0421477Y0069325D01*
X0421652Y0069403D01*
X0421826Y0069486D01*
X0421997Y0069573D01*
X0422166Y0069663D01*
X0422333Y0069758D01*
X0422498Y0069857D01*
X0422661Y0069960D01*
X0422820Y0070067D01*
X0422978Y0070177D01*
X0423132Y0070291D01*
X0423284Y0070409D01*
X0423433Y0070531D01*
X0423579Y0070656D01*
X0423721Y0070784D01*
X0423861Y0070916D01*
X0423998Y0071051D01*
X0424131Y0071190D01*
X0424261Y0071331D01*
X0424387Y0071476D01*
X0424510Y0071624D01*
X0424629Y0071774D01*
X0424745Y0071928D01*
X0424857Y0072084D01*
X0424965Y0072243D01*
X0425070Y0072404D01*
X0425170Y0072568D01*
X0425266Y0072734D01*
X0425359Y0072902D01*
X0418300Y0084667D02*
X0418107Y0084665D01*
X0417914Y0084658D01*
X0417722Y0084646D01*
X0417529Y0084630D01*
X0417337Y0084609D01*
X0417146Y0084583D01*
X0416956Y0084553D01*
X0416766Y0084518D01*
X0416577Y0084479D01*
X0416389Y0084435D01*
X0416202Y0084387D01*
X0416016Y0084334D01*
X0415832Y0084277D01*
X0415649Y0084215D01*
X0415468Y0084149D01*
X0415288Y0084078D01*
X0415110Y0084004D01*
X0414934Y0083925D01*
X0414760Y0083841D01*
X0414588Y0083754D01*
X0414418Y0083662D01*
X0414251Y0083566D01*
X0414085Y0083467D01*
X0413922Y0083363D01*
X0413762Y0083256D01*
X0413605Y0083144D01*
X0413450Y0083029D01*
X0413298Y0082910D01*
X0413149Y0082788D01*
X0413002Y0082662D01*
X0412859Y0082532D01*
X0412719Y0082399D01*
X0412583Y0082263D01*
X0412449Y0082123D01*
X0412320Y0081981D01*
X0412193Y0081835D01*
M02*
