G75*
%MOIN*%
%OFA0B0*%
%FSLAX25Y25*%
%IPPOS*%
%LPD*%
%AMOC8*
5,1,8,0,0,1.08239X$1,22.5*
%
%ADD10C,0.00500*%
%ADD11C,0.00900*%
%ADD12C,0.00600*%
%ADD13C,0.01000*%
%ADD14C,0.00400*%
%ADD15C,0.00300*%
%ADD16C,0.00100*%
D10*
X0008834Y0010017D02*
X0008250Y0010600D01*
X0008250Y0011768D01*
X0008834Y0012352D01*
X0011169Y0012352D02*
X0011753Y0011768D01*
X0011753Y0010600D01*
X0011169Y0010017D01*
X0008834Y0010017D01*
X0014250Y0010017D02*
X0017753Y0010017D01*
X0017753Y0011768D01*
X0017169Y0012352D01*
X0016001Y0012352D01*
X0015418Y0011768D01*
X0015418Y0010017D01*
X0020250Y0010600D02*
X0020250Y0011184D01*
X0020834Y0011768D01*
X0023753Y0011768D01*
X0023753Y0011184D02*
X0023753Y0012352D01*
X0026250Y0011184D02*
X0029753Y0011184D01*
X0029753Y0010017D02*
X0029753Y0012352D01*
X0032250Y0012352D02*
X0032250Y0010017D01*
X0035753Y0010017D01*
X0035753Y0012352D01*
X0034001Y0011184D02*
X0034001Y0010017D01*
X0038250Y0011184D02*
X0041753Y0011184D01*
X0041753Y0010017D02*
X0041753Y0012352D01*
X0040585Y0013700D02*
X0038834Y0013700D01*
X0038250Y0014284D01*
X0038250Y0016035D01*
X0040585Y0016035D01*
X0040585Y0017383D02*
X0038250Y0017383D01*
X0039418Y0017383D02*
X0040585Y0018551D01*
X0040585Y0019134D01*
X0040585Y0020452D02*
X0040585Y0021036D01*
X0038250Y0021036D01*
X0038250Y0020452D02*
X0038250Y0021620D01*
X0038250Y0022908D02*
X0040585Y0022908D01*
X0040585Y0024659D01*
X0040001Y0025243D01*
X0038250Y0025243D01*
X0038834Y0026591D02*
X0038250Y0027175D01*
X0038250Y0028926D01*
X0037666Y0028926D02*
X0040585Y0028926D01*
X0040585Y0027175D01*
X0040001Y0026591D01*
X0038834Y0026591D01*
X0037082Y0027758D02*
X0037082Y0028342D01*
X0037666Y0028926D01*
X0034585Y0029016D02*
X0034001Y0028432D01*
X0032834Y0028432D01*
X0032250Y0029016D01*
X0032250Y0030768D01*
X0035753Y0030768D01*
X0034585Y0030768D02*
X0034585Y0029016D01*
X0029753Y0028432D02*
X0026250Y0028432D01*
X0026250Y0027085D02*
X0029753Y0027085D01*
X0028001Y0028432D02*
X0028585Y0029016D01*
X0028585Y0030184D01*
X0028001Y0030768D01*
X0026250Y0030768D01*
X0026250Y0032116D02*
X0026250Y0033283D01*
X0026250Y0032699D02*
X0028585Y0032699D01*
X0028585Y0032116D01*
X0029753Y0032699D02*
X0030337Y0032699D01*
X0032250Y0032699D02*
X0032834Y0032116D01*
X0034001Y0032116D01*
X0034585Y0032699D01*
X0034585Y0033867D01*
X0034001Y0034451D01*
X0033418Y0034451D01*
X0033418Y0032116D01*
X0032250Y0032699D02*
X0032250Y0033867D01*
X0029169Y0035155D02*
X0026834Y0035155D01*
X0026250Y0035739D01*
X0026834Y0037026D02*
X0026250Y0037610D01*
X0026834Y0038194D01*
X0026250Y0038778D01*
X0026834Y0039362D01*
X0028585Y0039362D01*
X0028001Y0040710D02*
X0028585Y0041293D01*
X0028585Y0042461D01*
X0028001Y0043045D01*
X0027418Y0043045D01*
X0027418Y0040710D01*
X0028001Y0040710D02*
X0026834Y0040710D01*
X0026250Y0041293D01*
X0026250Y0042461D01*
X0026250Y0044393D02*
X0026250Y0045560D01*
X0026250Y0044976D02*
X0029753Y0044976D01*
X0029753Y0044393D01*
X0029753Y0046848D02*
X0029753Y0047432D01*
X0026250Y0047432D01*
X0026250Y0046848D02*
X0026250Y0048016D01*
X0038250Y0048046D02*
X0038834Y0047462D01*
X0040001Y0047462D01*
X0040585Y0048046D01*
X0040585Y0049213D01*
X0040001Y0049797D01*
X0039418Y0049797D01*
X0039418Y0047462D01*
X0038250Y0048046D02*
X0038250Y0049213D01*
X0038834Y0046114D02*
X0039418Y0045530D01*
X0039418Y0044363D01*
X0040001Y0043779D01*
X0040585Y0044363D01*
X0040585Y0046114D01*
X0038834Y0046114D02*
X0038250Y0045530D01*
X0038250Y0043779D01*
X0038250Y0042491D02*
X0038250Y0041323D01*
X0038250Y0041907D02*
X0041753Y0041907D01*
X0041753Y0041323D01*
X0040585Y0039976D02*
X0038250Y0039976D01*
X0038250Y0038224D01*
X0038834Y0037640D01*
X0040585Y0037640D01*
X0040001Y0036292D02*
X0039418Y0035709D01*
X0039418Y0033957D01*
X0038250Y0033957D02*
X0041753Y0033957D01*
X0041753Y0035709D01*
X0041169Y0036292D01*
X0040001Y0036292D01*
X0034585Y0035799D02*
X0032250Y0035799D01*
X0033418Y0035799D02*
X0034585Y0036966D01*
X0034585Y0037550D01*
X0028585Y0037026D02*
X0026834Y0037026D01*
X0028585Y0035739D02*
X0028585Y0034571D01*
X0023169Y0036966D02*
X0022001Y0035799D01*
X0022001Y0037550D01*
X0021418Y0038134D01*
X0020834Y0038134D01*
X0020250Y0037550D01*
X0020250Y0036382D01*
X0020834Y0035799D01*
X0022001Y0035799D01*
X0023169Y0036966D02*
X0023753Y0038134D01*
X0017753Y0040066D02*
X0017169Y0039482D01*
X0017753Y0040066D02*
X0017753Y0041233D01*
X0017169Y0041817D01*
X0016585Y0041817D01*
X0016001Y0041233D01*
X0015418Y0041817D01*
X0014834Y0041817D01*
X0014250Y0041233D01*
X0014250Y0040066D01*
X0014834Y0039482D01*
X0016001Y0040649D02*
X0016001Y0041233D01*
X0011753Y0036966D02*
X0010585Y0038134D01*
X0008250Y0038134D01*
X0010001Y0038134D02*
X0010001Y0035799D01*
X0010585Y0035799D02*
X0011753Y0036966D01*
X0010585Y0035799D02*
X0008250Y0035799D01*
X0008834Y0034451D02*
X0008250Y0033867D01*
X0008250Y0032699D01*
X0008834Y0032116D01*
X0010001Y0032699D02*
X0010585Y0032116D01*
X0011169Y0032116D01*
X0011753Y0032699D01*
X0011753Y0033867D01*
X0011169Y0034451D01*
X0010001Y0033867D02*
X0009418Y0034451D01*
X0008834Y0034451D01*
X0010001Y0033867D02*
X0010001Y0032699D01*
X0014250Y0033283D02*
X0016585Y0032116D01*
X0016001Y0030768D02*
X0015418Y0030768D01*
X0015418Y0028432D01*
X0016001Y0028432D02*
X0016585Y0029016D01*
X0016585Y0030184D01*
X0016001Y0030768D01*
X0014250Y0030184D02*
X0014250Y0029016D01*
X0014834Y0028432D01*
X0016001Y0028432D01*
X0016001Y0027085D02*
X0015418Y0026501D01*
X0015418Y0024749D01*
X0014250Y0024749D02*
X0017753Y0024749D01*
X0017753Y0026501D01*
X0017169Y0027085D01*
X0016001Y0027085D01*
X0015418Y0025917D02*
X0014250Y0027085D01*
X0011753Y0027085D02*
X0011169Y0027085D01*
X0010001Y0025917D01*
X0008250Y0025917D01*
X0010001Y0025917D02*
X0011169Y0024749D01*
X0011753Y0024749D01*
X0011169Y0023401D02*
X0010585Y0023401D01*
X0010001Y0022818D01*
X0010001Y0021066D01*
X0010001Y0019718D02*
X0010001Y0017383D01*
X0014250Y0017383D02*
X0014250Y0019134D01*
X0014834Y0019718D01*
X0015418Y0019718D01*
X0016001Y0019134D01*
X0016001Y0017383D01*
X0014250Y0017383D02*
X0017753Y0017383D01*
X0017753Y0019134D01*
X0017169Y0019718D01*
X0016585Y0019718D01*
X0016001Y0019134D01*
X0020250Y0019718D02*
X0022001Y0019718D01*
X0022585Y0019134D01*
X0022585Y0017383D01*
X0020250Y0017383D01*
X0020250Y0016035D02*
X0020250Y0014284D01*
X0020834Y0013700D01*
X0021418Y0014284D01*
X0021418Y0016035D01*
X0022001Y0016035D02*
X0020250Y0016035D01*
X0022001Y0016035D02*
X0022585Y0015451D01*
X0022585Y0014284D01*
X0026250Y0014284D02*
X0026834Y0013700D01*
X0028001Y0013700D01*
X0028585Y0014284D01*
X0028585Y0015451D01*
X0028001Y0016035D01*
X0026834Y0016035D01*
X0026250Y0015451D01*
X0026250Y0014284D01*
X0032250Y0013700D02*
X0034585Y0016035D01*
X0034585Y0013700D02*
X0032250Y0016035D01*
X0032250Y0017383D02*
X0032250Y0019134D01*
X0032834Y0019718D01*
X0034001Y0019718D01*
X0034585Y0019134D01*
X0034585Y0017383D01*
X0031082Y0017383D01*
X0028585Y0017383D02*
X0028585Y0017967D01*
X0028001Y0018551D01*
X0028585Y0019134D01*
X0028001Y0019718D01*
X0026250Y0019718D01*
X0026250Y0018551D02*
X0028001Y0018551D01*
X0028585Y0017383D02*
X0026250Y0017383D01*
X0017753Y0015451D02*
X0017753Y0014284D01*
X0017169Y0013700D01*
X0014834Y0013700D01*
X0014250Y0014284D01*
X0014250Y0015451D01*
X0014834Y0016035D01*
X0017169Y0016035D02*
X0017753Y0015451D01*
X0011753Y0015451D02*
X0011753Y0014284D01*
X0011169Y0013700D01*
X0008834Y0013700D01*
X0008250Y0014284D01*
X0008250Y0015451D01*
X0008834Y0016035D01*
X0011169Y0016035D02*
X0011753Y0015451D01*
X0011753Y0021066D02*
X0008250Y0021066D01*
X0008250Y0022818D01*
X0008834Y0023401D01*
X0009418Y0023401D01*
X0010001Y0022818D01*
X0011169Y0023401D02*
X0011753Y0022818D01*
X0011753Y0021066D01*
X0020250Y0024749D02*
X0022585Y0027085D01*
X0023169Y0027085D01*
X0023753Y0026501D01*
X0023753Y0025333D01*
X0023169Y0024749D01*
X0020250Y0024749D02*
X0020250Y0027085D01*
X0020834Y0028432D02*
X0023169Y0030768D01*
X0020834Y0030768D01*
X0020250Y0030184D01*
X0020250Y0029016D01*
X0020834Y0028432D01*
X0023169Y0028432D01*
X0023753Y0029016D01*
X0023753Y0030184D01*
X0023169Y0030768D01*
X0022585Y0032116D02*
X0023753Y0033283D01*
X0020250Y0033283D01*
X0020250Y0032116D02*
X0020250Y0034451D01*
X0016585Y0034451D02*
X0014250Y0033283D01*
X0010001Y0030768D02*
X0010001Y0028432D01*
X0026250Y0027085D02*
X0027418Y0025917D01*
X0026250Y0024749D01*
X0029753Y0024749D01*
X0032250Y0024749D02*
X0034585Y0024749D01*
X0034585Y0026501D01*
X0034001Y0027085D01*
X0032250Y0027085D01*
X0032250Y0023401D02*
X0032250Y0021650D01*
X0032834Y0021066D01*
X0033418Y0021650D01*
X0033418Y0023401D01*
X0034001Y0023401D02*
X0032250Y0023401D01*
X0034001Y0023401D02*
X0034585Y0022818D01*
X0034585Y0021650D01*
X0041753Y0021036D02*
X0042337Y0021036D01*
X0020834Y0010017D02*
X0020250Y0010600D01*
X0147046Y0011541D02*
X0147046Y0013793D01*
X0151550Y0013793D01*
X0151550Y0011541D01*
X0150799Y0010791D01*
X0147797Y0010791D01*
X0147046Y0011541D01*
X0154546Y0011541D02*
X0154546Y0013793D01*
X0159050Y0013793D01*
X0159050Y0011541D01*
X0158299Y0010791D01*
X0155297Y0010791D01*
X0154546Y0011541D01*
X0154546Y0015394D02*
X0154546Y0018397D01*
X0159050Y0018397D01*
X0159050Y0015394D01*
X0156798Y0016896D02*
X0156798Y0018397D01*
X0156798Y0019998D02*
X0155297Y0019998D01*
X0154546Y0020749D01*
X0154546Y0023001D01*
X0159050Y0023001D01*
X0157549Y0023001D02*
X0157549Y0020749D01*
X0156798Y0019998D01*
X0157549Y0021500D02*
X0159050Y0019998D01*
X0151550Y0019998D02*
X0150049Y0021500D01*
X0150049Y0020749D02*
X0150049Y0023001D01*
X0151550Y0023001D02*
X0147046Y0023001D01*
X0147046Y0020749D01*
X0147797Y0019998D01*
X0149298Y0019998D01*
X0150049Y0020749D01*
X0149298Y0018397D02*
X0149298Y0016896D01*
X0147046Y0015394D02*
X0147046Y0018397D01*
X0151550Y0018397D01*
X0151550Y0015394D01*
X0149298Y0024602D02*
X0151550Y0027605D01*
X0154546Y0027605D02*
X0156798Y0024602D01*
X0159050Y0027605D01*
X0158299Y0029206D02*
X0155297Y0029206D01*
X0154546Y0029957D01*
X0154546Y0032209D01*
X0159050Y0032209D01*
X0159050Y0029957D01*
X0158299Y0029206D01*
X0163651Y0030917D02*
X0166654Y0030917D01*
X0165153Y0030917D02*
X0165153Y0035420D01*
X0166654Y0033919D01*
X0159050Y0033810D02*
X0159050Y0036813D01*
X0154546Y0036813D01*
X0154546Y0033810D01*
X0156798Y0035311D02*
X0156798Y0036813D01*
X0156798Y0038414D02*
X0155297Y0038414D01*
X0154546Y0039165D01*
X0154546Y0041417D01*
X0159050Y0041417D01*
X0157549Y0041417D02*
X0157549Y0039165D01*
X0156798Y0038414D01*
X0157549Y0039915D02*
X0159050Y0038414D01*
X0151550Y0038414D02*
X0150049Y0039915D01*
X0150049Y0039165D02*
X0150049Y0041417D01*
X0151550Y0041417D02*
X0147046Y0041417D01*
X0147046Y0039165D01*
X0147797Y0038414D01*
X0149298Y0038414D01*
X0150049Y0039165D01*
X0149298Y0036813D02*
X0149298Y0035311D01*
X0147046Y0033810D02*
X0147046Y0036813D01*
X0151550Y0036813D01*
X0151550Y0033810D01*
X0151550Y0032209D02*
X0147046Y0032209D01*
X0147046Y0029957D01*
X0147797Y0029206D01*
X0150799Y0029206D01*
X0151550Y0029957D01*
X0151550Y0032209D01*
X0147046Y0027605D02*
X0149298Y0024602D01*
X0230651Y0007420D02*
X0232153Y0006670D01*
X0233654Y0005169D01*
X0231402Y0005169D01*
X0230651Y0004418D01*
X0230651Y0003667D01*
X0231402Y0002917D01*
X0232903Y0002917D01*
X0233654Y0003667D01*
X0233654Y0005169D01*
X0236757Y0007420D02*
X0238258Y0005919D01*
X0236757Y0007420D02*
X0236757Y0002917D01*
X0238258Y0002917D02*
X0235255Y0002917D01*
X0256236Y0040667D02*
X0259238Y0040667D01*
X0257737Y0040667D02*
X0257737Y0045170D01*
X0259238Y0043669D01*
X0260840Y0043669D02*
X0261590Y0042919D01*
X0263092Y0042919D01*
X0263842Y0043669D01*
X0263842Y0044420D01*
X0263092Y0045170D01*
X0261590Y0045170D01*
X0260840Y0044420D01*
X0260840Y0043669D01*
X0261590Y0042919D02*
X0260840Y0042168D01*
X0260840Y0041417D01*
X0261590Y0040667D01*
X0263092Y0040667D01*
X0263842Y0041417D01*
X0263842Y0042168D01*
X0263092Y0042919D01*
X0265444Y0044420D02*
X0268446Y0041417D01*
X0267695Y0040667D01*
X0266194Y0040667D01*
X0265444Y0041417D01*
X0265444Y0044420D01*
X0266194Y0045170D01*
X0267695Y0045170D01*
X0268446Y0044420D01*
X0268446Y0041417D01*
X0270047Y0042919D02*
X0273050Y0042919D01*
X0270798Y0045170D01*
X0270798Y0040667D01*
D11*
X0220720Y0039906D02*
X0220720Y0048013D01*
X0216666Y0048013D01*
X0215315Y0046662D01*
X0215315Y0043960D01*
X0216666Y0042609D01*
X0220720Y0042609D01*
X0212433Y0041258D02*
X0211081Y0039906D01*
X0208379Y0039906D01*
X0207028Y0041258D01*
X0207028Y0048013D01*
X0204146Y0048013D02*
X0204146Y0039906D01*
X0198741Y0039906D01*
X0195858Y0041258D02*
X0194507Y0039906D01*
X0191805Y0039906D01*
X0190454Y0041258D01*
X0190454Y0042609D01*
X0191805Y0043960D01*
X0194507Y0043960D01*
X0195858Y0045311D01*
X0195858Y0046662D01*
X0194507Y0048013D01*
X0191805Y0048013D01*
X0190454Y0046662D01*
X0187571Y0048013D02*
X0182167Y0048013D01*
X0187571Y0048013D02*
X0187571Y0039906D01*
X0182167Y0039906D01*
X0184869Y0043960D02*
X0187571Y0043960D01*
X0212433Y0041258D02*
X0212433Y0048013D01*
D12*
X0241800Y0045367D02*
X0241800Y0032967D01*
X0241800Y0032867D02*
X0276800Y0032867D01*
X0276800Y0032967D02*
X0276800Y0037167D01*
X0276800Y0041167D01*
X0276800Y0045367D01*
X0276798Y0045443D01*
X0276792Y0045519D01*
X0276783Y0045594D01*
X0276769Y0045669D01*
X0276752Y0045743D01*
X0276731Y0045816D01*
X0276707Y0045888D01*
X0276678Y0045959D01*
X0276647Y0046028D01*
X0276612Y0046095D01*
X0276573Y0046160D01*
X0276531Y0046224D01*
X0276486Y0046285D01*
X0276438Y0046344D01*
X0276387Y0046400D01*
X0276333Y0046454D01*
X0276277Y0046505D01*
X0276218Y0046553D01*
X0276157Y0046598D01*
X0276093Y0046640D01*
X0276028Y0046679D01*
X0275961Y0046714D01*
X0275892Y0046745D01*
X0275821Y0046774D01*
X0275749Y0046798D01*
X0275676Y0046819D01*
X0275602Y0046836D01*
X0275527Y0046850D01*
X0275452Y0046859D01*
X0275376Y0046865D01*
X0275300Y0046867D01*
X0243300Y0046867D01*
X0243224Y0046865D01*
X0243148Y0046859D01*
X0243073Y0046850D01*
X0242998Y0046836D01*
X0242924Y0046819D01*
X0242851Y0046798D01*
X0242779Y0046774D01*
X0242708Y0046745D01*
X0242639Y0046714D01*
X0242572Y0046679D01*
X0242507Y0046640D01*
X0242443Y0046598D01*
X0242382Y0046553D01*
X0242323Y0046505D01*
X0242267Y0046454D01*
X0242213Y0046400D01*
X0242162Y0046344D01*
X0242114Y0046285D01*
X0242069Y0046224D01*
X0242027Y0046160D01*
X0241988Y0046095D01*
X0241953Y0046028D01*
X0241922Y0045959D01*
X0241893Y0045888D01*
X0241869Y0045816D01*
X0241848Y0045743D01*
X0241831Y0045669D01*
X0241817Y0045594D01*
X0241808Y0045519D01*
X0241802Y0045443D01*
X0241800Y0045367D01*
X0276800Y0041167D02*
X0276712Y0041165D01*
X0276623Y0041159D01*
X0276535Y0041149D01*
X0276448Y0041136D01*
X0276361Y0041118D01*
X0276275Y0041097D01*
X0276190Y0041072D01*
X0276107Y0041043D01*
X0276024Y0041010D01*
X0275944Y0040974D01*
X0275865Y0040935D01*
X0275787Y0040892D01*
X0275712Y0040845D01*
X0275639Y0040795D01*
X0275568Y0040742D01*
X0275499Y0040686D01*
X0275433Y0040627D01*
X0275370Y0040565D01*
X0275310Y0040501D01*
X0275252Y0040434D01*
X0275198Y0040364D01*
X0275146Y0040292D01*
X0275098Y0040218D01*
X0275053Y0040141D01*
X0275012Y0040063D01*
X0274974Y0039983D01*
X0274940Y0039902D01*
X0274909Y0039819D01*
X0274882Y0039734D01*
X0274859Y0039649D01*
X0274840Y0039563D01*
X0274824Y0039475D01*
X0274812Y0039388D01*
X0274804Y0039300D01*
X0274800Y0039211D01*
X0274800Y0039123D01*
X0274804Y0039034D01*
X0274812Y0038946D01*
X0274824Y0038859D01*
X0274840Y0038771D01*
X0274859Y0038685D01*
X0274882Y0038600D01*
X0274909Y0038515D01*
X0274940Y0038432D01*
X0274974Y0038351D01*
X0275012Y0038271D01*
X0275053Y0038193D01*
X0275098Y0038116D01*
X0275146Y0038042D01*
X0275198Y0037970D01*
X0275252Y0037900D01*
X0275310Y0037833D01*
X0275370Y0037769D01*
X0275433Y0037707D01*
X0275499Y0037648D01*
X0275568Y0037592D01*
X0275639Y0037539D01*
X0275712Y0037489D01*
X0275787Y0037442D01*
X0275865Y0037399D01*
X0275944Y0037360D01*
X0276024Y0037324D01*
X0276107Y0037291D01*
X0276190Y0037262D01*
X0276275Y0037237D01*
X0276361Y0037216D01*
X0276448Y0037198D01*
X0276535Y0037185D01*
X0276623Y0037175D01*
X0276712Y0037169D01*
X0276800Y0037167D01*
X0276800Y0032967D02*
X0276798Y0032891D01*
X0276792Y0032815D01*
X0276783Y0032740D01*
X0276769Y0032665D01*
X0276752Y0032591D01*
X0276731Y0032518D01*
X0276707Y0032446D01*
X0276678Y0032375D01*
X0276647Y0032306D01*
X0276612Y0032239D01*
X0276573Y0032174D01*
X0276531Y0032110D01*
X0276486Y0032049D01*
X0276438Y0031990D01*
X0276387Y0031934D01*
X0276333Y0031880D01*
X0276277Y0031829D01*
X0276218Y0031781D01*
X0276157Y0031736D01*
X0276093Y0031694D01*
X0276028Y0031655D01*
X0275961Y0031620D01*
X0275892Y0031589D01*
X0275821Y0031560D01*
X0275749Y0031536D01*
X0275676Y0031515D01*
X0275602Y0031498D01*
X0275527Y0031484D01*
X0275452Y0031475D01*
X0275376Y0031469D01*
X0275300Y0031467D01*
X0243300Y0031467D01*
X0243224Y0031469D01*
X0243148Y0031475D01*
X0243073Y0031484D01*
X0242998Y0031498D01*
X0242924Y0031515D01*
X0242851Y0031536D01*
X0242779Y0031560D01*
X0242708Y0031589D01*
X0242639Y0031620D01*
X0242572Y0031655D01*
X0242507Y0031694D01*
X0242443Y0031736D01*
X0242382Y0031781D01*
X0242323Y0031829D01*
X0242267Y0031880D01*
X0242213Y0031934D01*
X0242162Y0031990D01*
X0242114Y0032049D01*
X0242069Y0032110D01*
X0242027Y0032174D01*
X0241988Y0032239D01*
X0241953Y0032306D01*
X0241922Y0032375D01*
X0241893Y0032446D01*
X0241869Y0032518D01*
X0241848Y0032591D01*
X0241831Y0032665D01*
X0241817Y0032740D01*
X0241808Y0032815D01*
X0241802Y0032891D01*
X0241800Y0032967D01*
X0236020Y0033669D02*
X0234219Y0033669D01*
X0232417Y0036371D02*
X0236020Y0036371D01*
X0236020Y0030967D01*
X0232417Y0030967D01*
X0230495Y0030967D02*
X0226892Y0036371D01*
X0224971Y0036371D02*
X0222268Y0036371D01*
X0221368Y0035470D01*
X0221368Y0033669D01*
X0222268Y0032768D01*
X0224971Y0032768D01*
X0219446Y0033669D02*
X0215843Y0033669D01*
X0215843Y0034570D02*
X0215843Y0030967D01*
X0213921Y0030967D02*
X0213921Y0036371D01*
X0210318Y0030967D01*
X0210318Y0036371D01*
X0208397Y0036371D02*
X0205694Y0036371D01*
X0204793Y0035470D01*
X0204793Y0031867D01*
X0205694Y0030967D01*
X0208397Y0030967D01*
X0208397Y0036371D01*
X0215843Y0034570D02*
X0217644Y0036371D01*
X0219446Y0034570D01*
X0219446Y0030967D01*
X0224971Y0030967D02*
X0224971Y0036371D01*
X0230495Y0036371D02*
X0226892Y0030967D01*
X0226800Y0029167D02*
X0221800Y0029167D01*
X0219300Y0026667D01*
X0216800Y0029167D01*
X0211800Y0029167D01*
X0209300Y0026667D01*
X0206800Y0029167D01*
X0201800Y0029167D01*
X0199300Y0026667D01*
X0196800Y0029167D01*
X0191800Y0029167D01*
X0189300Y0026667D01*
X0186800Y0029167D01*
X0181800Y0029167D01*
X0179300Y0026667D01*
X0176800Y0029167D01*
X0171800Y0029167D01*
X0169300Y0026667D01*
X0166800Y0029167D01*
X0161800Y0029167D01*
X0159300Y0026667D01*
X0159300Y0011667D01*
X0161800Y0009167D01*
X0166800Y0009167D01*
X0169300Y0011667D01*
X0171800Y0009167D01*
X0176800Y0009167D01*
X0179300Y0011667D01*
X0181800Y0009167D01*
X0186800Y0009167D01*
X0189300Y0011667D01*
X0191800Y0009167D01*
X0196800Y0009167D01*
X0199300Y0011667D01*
X0201800Y0009167D01*
X0206800Y0009167D01*
X0209300Y0011667D01*
X0211800Y0009167D01*
X0216800Y0009167D01*
X0219300Y0011667D01*
X0221800Y0009167D01*
X0226800Y0009167D01*
X0229300Y0011667D01*
X0231800Y0009167D01*
X0236800Y0009167D01*
X0239300Y0011667D01*
X0239300Y0026667D01*
X0236800Y0029167D01*
X0231800Y0029167D01*
X0229300Y0026667D01*
X0226800Y0029167D01*
X0202872Y0030967D02*
X0199269Y0030967D01*
X0197347Y0030967D02*
X0197347Y0036371D01*
X0194645Y0036371D01*
X0193744Y0035470D01*
X0193744Y0033669D01*
X0194645Y0032768D01*
X0197347Y0032768D01*
X0195546Y0032768D02*
X0193744Y0030967D01*
X0186298Y0031867D02*
X0185397Y0030967D01*
X0183595Y0030967D01*
X0182695Y0031867D01*
X0182695Y0035470D01*
X0183595Y0036371D01*
X0185397Y0036371D01*
X0186298Y0035470D01*
X0186298Y0031867D01*
X0180773Y0030967D02*
X0180773Y0036371D01*
X0177170Y0030967D01*
X0177170Y0036371D01*
X0175248Y0036371D02*
X0175248Y0030967D01*
X0171645Y0030967D01*
X0167922Y0030967D02*
X0167922Y0033669D01*
X0166120Y0035470D01*
X0166120Y0036371D01*
X0167922Y0033669D02*
X0169724Y0035470D01*
X0169724Y0036371D01*
X0199269Y0036371D02*
X0202872Y0036371D01*
X0202872Y0030967D01*
X0202872Y0033669D02*
X0201070Y0033669D01*
D13*
X0149300Y0041667D02*
X0049300Y0041667D01*
X0049300Y0051667D01*
X0016800Y0051667D01*
X0016800Y0061667D01*
X0426800Y0061667D01*
X0426800Y0041667D01*
X0284300Y0041667D01*
D14*
X0389286Y0047634D02*
X0390053Y0046867D01*
X0392355Y0046867D01*
X0390053Y0048401D02*
X0389286Y0047634D01*
X0390053Y0048401D02*
X0391588Y0048401D01*
X0392355Y0049169D01*
X0391588Y0049936D01*
X0389286Y0049936D01*
X0393890Y0049936D02*
X0394657Y0049936D01*
X0396192Y0048401D01*
X0397726Y0047634D02*
X0397726Y0049169D01*
X0398494Y0049936D01*
X0400028Y0049936D01*
X0400796Y0049169D01*
X0400796Y0047634D01*
X0400028Y0046867D01*
X0398494Y0046867D01*
X0397726Y0047634D01*
X0396192Y0046867D02*
X0396192Y0049936D01*
X0402330Y0049936D02*
X0403865Y0049936D01*
X0403098Y0050703D02*
X0403098Y0047634D01*
X0402330Y0046867D01*
X0405400Y0047634D02*
X0406167Y0048401D01*
X0407702Y0048401D01*
X0408469Y0049169D01*
X0407702Y0049936D01*
X0405400Y0049936D01*
X0410771Y0049936D02*
X0410771Y0046867D01*
X0411538Y0046867D02*
X0410004Y0046867D01*
X0408469Y0046867D02*
X0406167Y0046867D01*
X0405400Y0047634D01*
X0413073Y0047634D02*
X0413840Y0046867D01*
X0416142Y0046867D01*
X0418444Y0046867D02*
X0419979Y0046867D01*
X0420746Y0047634D01*
X0420746Y0049169D01*
X0419979Y0049936D01*
X0418444Y0049936D01*
X0417677Y0049169D01*
X0417677Y0048401D01*
X0420746Y0048401D01*
X0422281Y0049169D02*
X0423048Y0048401D01*
X0425350Y0048401D01*
X0423815Y0048401D02*
X0422281Y0046867D01*
X0425350Y0046867D02*
X0425350Y0051471D01*
X0423048Y0051471D01*
X0422281Y0050703D01*
X0422281Y0049169D01*
X0416142Y0049169D02*
X0415375Y0048401D01*
X0413840Y0048401D01*
X0413073Y0047634D01*
X0415375Y0049936D02*
X0416142Y0049169D01*
X0415375Y0049936D02*
X0413073Y0049936D01*
X0411538Y0049936D02*
X0410771Y0049936D01*
X0410771Y0051471D02*
X0410771Y0052238D01*
X0418444Y0054367D02*
X0420746Y0055901D01*
X0418444Y0057436D01*
X0420746Y0058971D02*
X0420746Y0054367D01*
X0422281Y0054367D02*
X0425350Y0054367D01*
X0423815Y0054367D02*
X0423815Y0058971D01*
X0425350Y0057436D01*
D15*
X0425416Y0037270D02*
X0424181Y0036035D01*
X0424181Y0033567D01*
X0422967Y0033567D02*
X0421732Y0033567D01*
X0422350Y0033567D02*
X0422350Y0037270D01*
X0422967Y0037270D01*
X0425416Y0037270D02*
X0426650Y0036035D01*
X0426650Y0033567D01*
X0426650Y0035418D02*
X0424181Y0035418D01*
X0420511Y0033567D02*
X0419277Y0033567D01*
X0419894Y0033567D02*
X0419894Y0037270D01*
X0420511Y0037270D01*
X0414373Y0036035D02*
X0413138Y0036035D01*
X0413756Y0036653D02*
X0413756Y0034184D01*
X0413138Y0033567D01*
X0411917Y0033567D02*
X0411917Y0037270D01*
X0411300Y0036035D02*
X0410066Y0036035D01*
X0409449Y0035418D01*
X0409449Y0033567D01*
X0408234Y0034184D02*
X0407617Y0033567D01*
X0406383Y0033567D01*
X0408234Y0034184D02*
X0408234Y0035418D01*
X0407617Y0036035D01*
X0406383Y0036035D01*
X0405766Y0035418D01*
X0405766Y0034801D01*
X0408234Y0034801D01*
X0411300Y0036035D02*
X0411917Y0035418D01*
X0420511Y0031270D02*
X0420511Y0027567D01*
X0421732Y0027567D02*
X0422350Y0028184D01*
X0422350Y0030653D01*
X0422967Y0030035D02*
X0421732Y0030035D01*
X0420511Y0029418D02*
X0419894Y0030035D01*
X0418660Y0030035D01*
X0418043Y0029418D01*
X0418043Y0027567D01*
X0416828Y0028184D02*
X0416828Y0029418D01*
X0416211Y0030035D01*
X0414977Y0030035D01*
X0414360Y0029418D01*
X0414360Y0028801D01*
X0416828Y0028801D01*
X0416828Y0028184D02*
X0416211Y0027567D01*
X0414977Y0027567D01*
X0413145Y0027567D02*
X0413145Y0030035D01*
X0413145Y0028801D02*
X0411911Y0030035D01*
X0411294Y0030035D01*
X0410076Y0029418D02*
X0409459Y0030035D01*
X0407607Y0030035D01*
X0408224Y0028801D02*
X0409459Y0028801D01*
X0410076Y0029418D01*
X0408224Y0028801D02*
X0407607Y0028184D01*
X0408224Y0027567D01*
X0410076Y0027567D01*
X0410063Y0025270D02*
X0412531Y0025270D01*
X0412531Y0021567D01*
X0410063Y0021567D01*
X0408848Y0021567D02*
X0406997Y0021567D01*
X0406379Y0022184D01*
X0406379Y0024653D01*
X0406997Y0025270D01*
X0408848Y0025270D01*
X0408848Y0021567D01*
X0413746Y0021567D02*
X0416214Y0021567D01*
X0416214Y0025270D01*
X0412531Y0023418D02*
X0411297Y0023418D01*
X0421115Y0024035D02*
X0422967Y0022801D01*
X0421115Y0021567D01*
X0422967Y0021567D02*
X0422967Y0025270D01*
X0424181Y0024653D02*
X0424798Y0025270D01*
X0426033Y0025270D01*
X0426650Y0024653D01*
X0424181Y0024653D02*
X0424181Y0024035D01*
X0426650Y0021567D01*
X0424181Y0021567D01*
X0415597Y0019887D02*
X0415597Y0019270D01*
X0409459Y0018653D02*
X0409459Y0016184D01*
X0408841Y0015567D01*
X0407620Y0016184D02*
X0407003Y0015567D01*
X0405769Y0015567D01*
X0405152Y0016184D01*
X0405152Y0017418D01*
X0405769Y0018035D01*
X0407003Y0018035D01*
X0407620Y0017418D01*
X0407620Y0016184D01*
X0411290Y0016184D02*
X0411907Y0016801D01*
X0413142Y0016801D01*
X0413759Y0017418D01*
X0413142Y0018035D01*
X0411290Y0018035D01*
X0410076Y0018035D02*
X0408841Y0018035D01*
X0403937Y0018035D02*
X0403937Y0015567D01*
X0403937Y0016801D02*
X0402703Y0018035D01*
X0402086Y0018035D01*
X0400868Y0017418D02*
X0400251Y0018035D01*
X0398399Y0018035D01*
X0399016Y0016801D02*
X0400251Y0016801D01*
X0400868Y0017418D01*
X0399016Y0016801D02*
X0398399Y0016184D01*
X0399016Y0015567D01*
X0400868Y0015567D01*
X0411290Y0016184D02*
X0411907Y0015567D01*
X0413759Y0015567D01*
X0414980Y0015567D02*
X0416214Y0015567D01*
X0415597Y0015567D02*
X0415597Y0018035D01*
X0416214Y0018035D01*
X0417429Y0018035D02*
X0419280Y0018035D01*
X0419898Y0017418D01*
X0419280Y0016801D01*
X0418046Y0016801D01*
X0417429Y0016184D01*
X0418046Y0015567D01*
X0419898Y0015567D01*
X0421112Y0016801D02*
X0423581Y0016801D01*
X0423581Y0016184D02*
X0423581Y0017418D01*
X0422964Y0018035D01*
X0421729Y0018035D01*
X0421112Y0017418D01*
X0421112Y0016801D01*
X0421729Y0015567D02*
X0422964Y0015567D01*
X0423581Y0016184D01*
X0425416Y0018035D02*
X0426650Y0016801D01*
X0426650Y0015567D02*
X0426650Y0018035D01*
X0425416Y0018035D02*
X0424798Y0018035D01*
X0424798Y0027567D02*
X0424181Y0028184D01*
X0424181Y0029418D01*
X0424798Y0030035D01*
X0426033Y0030035D01*
X0426650Y0029418D01*
X0426650Y0028184D01*
X0426033Y0027567D01*
X0424798Y0027567D01*
D16*
X0092063Y0012118D02*
X0092063Y0010617D01*
X0091062Y0010617D01*
X0090590Y0010617D02*
X0090590Y0012118D01*
X0089839Y0012118D01*
X0089589Y0011868D01*
X0089589Y0011367D01*
X0089839Y0011117D01*
X0090590Y0011117D01*
X0090089Y0011117D02*
X0089589Y0010617D01*
X0089116Y0010366D02*
X0088115Y0010366D01*
X0087643Y0010617D02*
X0086642Y0010617D01*
X0086170Y0010617D02*
X0085169Y0011618D01*
X0085169Y0011868D01*
X0085419Y0012118D01*
X0085920Y0012118D01*
X0086170Y0011868D01*
X0087143Y0012118D02*
X0087143Y0010617D01*
X0086170Y0010617D02*
X0085169Y0010617D01*
X0084697Y0011367D02*
X0083696Y0011367D01*
X0083223Y0010867D02*
X0083223Y0010617D01*
X0083223Y0010867D02*
X0082222Y0011868D01*
X0082222Y0012118D01*
X0083223Y0012118D01*
X0083946Y0012118D02*
X0084697Y0011367D01*
X0083946Y0010617D02*
X0083946Y0012118D01*
X0087143Y0012118D02*
X0087643Y0011618D01*
X0083951Y0021117D02*
X0082950Y0022118D01*
X0082950Y0022368D01*
X0083200Y0022618D01*
X0083701Y0022618D01*
X0083951Y0022368D01*
X0083951Y0021117D02*
X0082950Y0021117D01*
X0082478Y0021117D02*
X0082478Y0022618D01*
X0081727Y0022118D02*
X0082478Y0021617D01*
X0081727Y0021117D01*
X0090026Y0070717D02*
X0090777Y0071217D01*
X0090026Y0071718D01*
X0090777Y0072218D02*
X0090777Y0070717D01*
X0091249Y0070717D02*
X0092250Y0070717D01*
X0091249Y0071718D01*
X0091249Y0071968D01*
X0091499Y0072218D01*
X0092000Y0072218D01*
X0092250Y0071968D01*
X0091750Y0081217D02*
X0090749Y0081217D01*
X0090277Y0081217D02*
X0090277Y0082718D01*
X0089526Y0082718D01*
X0089276Y0082468D01*
X0089276Y0081967D01*
X0089526Y0081717D01*
X0090277Y0081717D01*
X0089776Y0081717D02*
X0089276Y0081217D01*
X0088803Y0081217D02*
X0087803Y0081217D01*
X0087330Y0081217D02*
X0086329Y0081217D01*
X0086830Y0081217D02*
X0086830Y0082718D01*
X0087330Y0082218D01*
X0088303Y0082718D02*
X0088803Y0082218D01*
X0088303Y0082718D02*
X0088303Y0081217D01*
X0091750Y0081217D02*
X0091750Y0082718D01*
M02*
