G75*
%MOIN*%
%OFA0B0*%
%FSLAX25Y25*%
%IPPOS*%
%LPD*%
%AMOC8*
5,1,8,0,0,1.08239X$1,22.5*
%
%ADD10C,0.06896*%
%ADD11R,0.05200X0.05200*%
%ADD12OC8,0.05200*%
%ADD13OC8,0.06400*%
D10*
X0044615Y0029167D03*
X0078080Y0029167D03*
X0089891Y0029167D03*
X0107115Y0029167D03*
X0140580Y0029167D03*
X0152391Y0029167D03*
X0284615Y0029167D03*
X0318080Y0029167D03*
X0329891Y0029167D03*
X0344615Y0029167D03*
X0378080Y0029167D03*
X0389891Y0029167D03*
X0405580Y0066667D03*
X0417391Y0066667D03*
X0372115Y0066667D03*
X0357391Y0066667D03*
X0345580Y0066667D03*
X0312115Y0066667D03*
X0297391Y0066667D03*
X0285580Y0066667D03*
X0252115Y0066667D03*
X0237391Y0066667D03*
X0225580Y0066667D03*
X0192115Y0066667D03*
X0177391Y0066667D03*
X0165580Y0066667D03*
X0132115Y0066667D03*
X0117391Y0066667D03*
X0105580Y0066667D03*
X0072115Y0066667D03*
X0057391Y0066667D03*
X0045580Y0066667D03*
X0012115Y0066667D03*
D11*
X0064300Y0076667D03*
X0124300Y0076667D03*
X0184300Y0076667D03*
X0244300Y0076667D03*
X0304300Y0076667D03*
X0364300Y0076667D03*
X0423300Y0076667D03*
X0396800Y0039167D03*
X0336800Y0039167D03*
X0161800Y0039167D03*
X0096800Y0039167D03*
D12*
X0086800Y0039167D03*
X0151800Y0039167D03*
X0174300Y0076667D03*
X0114300Y0076667D03*
X0054300Y0076667D03*
X0234300Y0076667D03*
X0294300Y0076667D03*
X0354300Y0076667D03*
X0413300Y0076667D03*
X0386800Y0039167D03*
X0326800Y0039167D03*
D13*
X0234300Y0024167D03*
X0224300Y0024167D03*
X0214300Y0024167D03*
X0204300Y0024167D03*
X0194300Y0024167D03*
X0184300Y0024167D03*
X0174300Y0024167D03*
X0164300Y0024167D03*
X0164300Y0014167D03*
X0174300Y0014167D03*
X0184300Y0014167D03*
X0194300Y0014167D03*
X0204300Y0014167D03*
X0214300Y0014167D03*
X0224300Y0014167D03*
X0234300Y0014167D03*
M02*
